%TF.GenerationSoftware,KiCad,Pcbnew,8.0.1*%
%TF.CreationDate,2025-12-30T01:33:59+09:00*%
%TF.ProjectId,keycultTKL_narrow,6b657963-756c-4745-944b-4c5f6e617272,rev?*%
%TF.SameCoordinates,Original*%
%TF.FileFunction,Profile,NP*%
%FSLAX46Y46*%
G04 Gerber Fmt 4.6, Leading zero omitted, Abs format (unit mm)*
G04 Created by KiCad (PCBNEW 8.0.1) date 2025-12-30 01:33:59*
%MOMM*%
%LPD*%
G01*
G04 APERTURE LIST*
%TA.AperFunction,Profile*%
%ADD10C,0.500000*%
%TD*%
G04 APERTURE END LIST*
D10*
X93833125Y-193637502D02*
X93833125Y-192637500D01*
X323176875Y-193637650D02*
G75*
G02*
X322164704Y-194637501I-999975J50D01*
G01*
X118580001Y-75325000D02*
G75*
G02*
X119580000Y-76324999I-1J-1000000D01*
G01*
X398442450Y-194637500D02*
G75*
G02*
X397442500Y-193637550I50J1000000D01*
G01*
X391042500Y-192637500D02*
G75*
G02*
X397442500Y-192637500I3200000J0D01*
G01*
X87433125Y-192637500D02*
X87433125Y-193637502D01*
X212704998Y-75325000D02*
X290030050Y-75325000D01*
X378392500Y-77325000D02*
X378392500Y-76324950D01*
X378392500Y-77325000D02*
G75*
G02*
X371992500Y-77325000I-3200000J0D01*
G01*
X211705000Y-77325000D02*
X211705000Y-76324999D01*
X291030000Y-76324950D02*
X291030000Y-77325000D01*
X323176875Y-192637510D02*
G75*
G02*
X329576915Y-192629500I3200025J10D01*
G01*
X391042500Y-193637550D02*
G75*
G02*
X390042550Y-194637500I-1000000J50D01*
G01*
X87433125Y-193637502D02*
G75*
G02*
X86433127Y-194637525I-1000025J2D01*
G01*
X413417500Y-77824950D02*
X413417500Y-192137550D01*
X211705000Y-77325000D02*
G75*
G02*
X205305000Y-77325000I-3200000J0D01*
G01*
X390042550Y-194637500D02*
X330576850Y-194637500D01*
X370992550Y-75325000D02*
G75*
G02*
X371992500Y-76324950I-50J-1000000D01*
G01*
X410917550Y-75325000D02*
G75*
G02*
X413417500Y-77824950I50J-2499900D01*
G01*
X125980000Y-77325000D02*
X125980000Y-76324999D01*
X168990937Y-192637503D02*
X168990938Y-193637496D01*
X297430000Y-77325000D02*
X297430000Y-76324950D01*
X94833124Y-194637500D02*
G75*
G02*
X93833100Y-193637502I-24J1000000D01*
G01*
X168990937Y-192637503D02*
G75*
G02*
X175390863Y-192637500I3199963J3D01*
G01*
X205305000Y-76324999D02*
X205305000Y-77325000D01*
X397442500Y-193637550D02*
X397442500Y-192637500D01*
X323176875Y-192637510D02*
X323176875Y-193637650D01*
X65505000Y-192137500D02*
X65505000Y-77825001D01*
X379392450Y-75325000D02*
X410917550Y-75325000D01*
X330576850Y-194637500D02*
G75*
G02*
X329576900Y-193637500I50J1000000D01*
G01*
X329576875Y-193637500D02*
X329576875Y-192629500D01*
X322164704Y-194637500D02*
X176390941Y-194637500D01*
X119580000Y-76324999D02*
X119580000Y-77325000D01*
X391042500Y-192637500D02*
X391042500Y-193637550D01*
X175390937Y-193637497D02*
X175390937Y-192637500D01*
X86433127Y-194637500D02*
X68005001Y-194637500D01*
X413417500Y-192137550D02*
G75*
G02*
X410917550Y-194637500I-2499900J-50D01*
G01*
X298429950Y-75325000D02*
X370992550Y-75325000D01*
X297430000Y-77325000D02*
G75*
G02*
X291030000Y-77325000I-3200000J0D01*
G01*
X126979998Y-75325000D02*
X204305001Y-75325000D01*
X204305001Y-75325000D02*
G75*
G02*
X205305000Y-76324999I-1J-1000000D01*
G01*
X211705000Y-76324999D02*
G75*
G02*
X212704998Y-75325000I1000000J-1D01*
G01*
X125980000Y-76324999D02*
G75*
G02*
X126979998Y-75325000I1000000J-1D01*
G01*
X410917550Y-194637500D02*
X398442450Y-194637500D01*
X168990938Y-193637496D02*
G75*
G02*
X167990935Y-194637538I-1000038J-4D01*
G01*
X125980000Y-77325000D02*
G75*
G02*
X119580000Y-77325000I-3200000J0D01*
G01*
X176390941Y-194637500D02*
G75*
G02*
X175390900Y-193637497I-41J1000000D01*
G01*
X68005000Y-75325000D02*
X118580001Y-75325000D01*
X167990935Y-194637500D02*
X94833124Y-194637500D01*
X65505000Y-77825001D02*
G75*
G02*
X68005000Y-75325000I2500000J1D01*
G01*
X371992500Y-76324950D02*
X371992500Y-77325000D01*
X378392500Y-76324950D02*
G75*
G02*
X379392450Y-75325000I1000000J-50D01*
G01*
X68005001Y-194637500D02*
G75*
G02*
X65505000Y-192137500I-1J2500000D01*
G01*
X290030050Y-75325000D02*
G75*
G02*
X291030000Y-76324950I-50J-1000000D01*
G01*
X87433125Y-192637500D02*
G75*
G02*
X93833125Y-192637500I3200000J0D01*
G01*
X297430000Y-76324950D02*
G75*
G02*
X298429950Y-75325000I1000000J-50D01*
G01*
M02*
