%TF.GenerationSoftware,KiCad,Pcbnew,8.0.1*%
%TF.CreationDate,2025-12-30T01:33:59+09:00*%
%TF.ProjectId,keycultTKL_narrow,6b657963-756c-4745-944b-4c5f6e617272,rev?*%
%TF.SameCoordinates,Original*%
%TF.FileFunction,Legend,Top*%
%TF.FilePolarity,Positive*%
%FSLAX46Y46*%
G04 Gerber Fmt 4.6, Leading zero omitted, Abs format (unit mm)*
G04 Created by KiCad (PCBNEW 8.0.1) date 2025-12-30 01:33:59*
%MOMM*%
%LPD*%
G01*
G04 APERTURE LIST*
%ADD10C,2.000000*%
%ADD11C,0.440000*%
G04 APERTURE END LIST*
D10*
X175390937Y-193637497D02*
X175390937Y-192637500D01*
X119580000Y-76324999D02*
X119580000Y-77325000D01*
X212704998Y-75325000D02*
X290030050Y-75325000D01*
X167990935Y-194637500D02*
X94833124Y-194637500D01*
X329576875Y-193637500D02*
X329576875Y-192629500D01*
X378392500Y-76324950D02*
G75*
G02*
X379392450Y-75325000I1000000J-50D01*
G01*
X323176875Y-193637650D02*
G75*
G02*
X322164704Y-194637501I-999975J50D01*
G01*
X211705000Y-77325000D02*
X211705000Y-76324999D01*
X125980000Y-76324999D02*
G75*
G02*
X126979998Y-75325000I1000000J-1D01*
G01*
X204305001Y-75325000D02*
G75*
G02*
X205305000Y-76324999I-1J-1000000D01*
G01*
X297430000Y-77325000D02*
G75*
G02*
X291030000Y-77325000I-3200000J0D01*
G01*
X297430000Y-77325000D02*
X297430000Y-76324950D01*
X298429950Y-75325000D02*
X370992550Y-75325000D01*
X65505000Y-77825001D02*
G75*
G02*
X68005000Y-75325000I2500000J1D01*
G01*
X211705000Y-77325000D02*
G75*
G02*
X205305000Y-77325000I-3200000J0D01*
G01*
X176390941Y-194637500D02*
G75*
G02*
X175390900Y-193637497I-41J1000000D01*
G01*
X413417500Y-77824950D02*
X413417500Y-192137550D01*
X398442450Y-194637500D02*
G75*
G02*
X397442500Y-193637550I50J1000000D01*
G01*
X118580001Y-75325000D02*
G75*
G02*
X119580000Y-76324999I-1J-1000000D01*
G01*
X290030050Y-75325000D02*
G75*
G02*
X291030000Y-76324950I-50J-1000000D01*
G01*
X410917550Y-75325000D02*
G75*
G02*
X413417500Y-77824950I50J-2499900D01*
G01*
X168990938Y-193637496D02*
G75*
G02*
X167990935Y-194637538I-1000038J-4D01*
G01*
X126979998Y-75325000D02*
X204305001Y-75325000D01*
X68005001Y-194637500D02*
G75*
G02*
X65505000Y-192137500I-1J2500000D01*
G01*
X397442500Y-193637550D02*
X397442500Y-192637500D01*
X86433127Y-194637500D02*
X68005001Y-194637500D01*
X211705000Y-76324999D02*
G75*
G02*
X212704998Y-75325000I1000000J-1D01*
G01*
X87433125Y-193637502D02*
G75*
G02*
X86433127Y-194637525I-1000025J2D01*
G01*
X413417500Y-192137550D02*
G75*
G02*
X410917550Y-194637500I-2499900J-50D01*
G01*
X330576850Y-194637500D02*
G75*
G02*
X329576900Y-193637500I50J1000000D01*
G01*
X125980000Y-77325000D02*
G75*
G02*
X119580000Y-77325000I-3200000J0D01*
G01*
X65505000Y-192137500D02*
X65505000Y-77825001D01*
X323176875Y-192637510D02*
G75*
G02*
X329576915Y-192629500I3200025J10D01*
G01*
X378392500Y-77325000D02*
X378392500Y-76324950D01*
X168990937Y-192637503D02*
X168990938Y-193637496D01*
X68005000Y-75325000D02*
X118580001Y-75325000D01*
X391042500Y-193637550D02*
G75*
G02*
X390042550Y-194637500I-1000000J50D01*
G01*
X94833124Y-194637500D02*
G75*
G02*
X93833100Y-193637502I-24J1000000D01*
G01*
X410917550Y-194637500D02*
X398442450Y-194637500D01*
X371992500Y-76324950D02*
X371992500Y-77325000D01*
X125980000Y-77325000D02*
X125980000Y-76324999D01*
X297430000Y-76324950D02*
G75*
G02*
X298429950Y-75325000I1000000J-50D01*
G01*
X391042500Y-192637500D02*
G75*
G02*
X397442500Y-192637500I3200000J0D01*
G01*
X168990937Y-192637503D02*
G75*
G02*
X175390863Y-192637500I3199963J3D01*
G01*
X370992550Y-75325000D02*
G75*
G02*
X371992500Y-76324950I-50J-1000000D01*
G01*
X87433125Y-192637500D02*
X87433125Y-193637502D01*
X291030000Y-76324950D02*
X291030000Y-77325000D01*
X323176875Y-192637510D02*
X323176875Y-193637650D01*
X391042500Y-192637500D02*
X391042500Y-193637550D01*
X322164704Y-194637500D02*
X176390941Y-194637500D01*
X390042550Y-194637500D02*
X330576850Y-194637500D01*
X205305000Y-76324999D02*
X205305000Y-77325000D01*
X379392450Y-75325000D02*
X410917550Y-75325000D01*
X93833125Y-193637502D02*
X93833125Y-192637500D01*
X87433125Y-192637500D02*
G75*
G02*
X93833125Y-192637500I3200000J0D01*
G01*
X378392500Y-77325000D02*
G75*
G02*
X371992500Y-77325000I-3200000J0D01*
G01*
D11*
%TO.C,REF\u002A\u002A*%
X382837951Y-147757449D02*
X384727414Y-147757449D01*
X384727414Y-146217449D02*
X382837951Y-146217449D01*
X385167414Y-143797449D02*
X385167414Y-145777449D01*
X385167414Y-148197449D02*
X385167414Y-150177449D01*
X385607414Y-150617449D02*
X386267414Y-150617449D01*
X386267414Y-143357449D02*
X385607414Y-143357449D01*
X386707414Y-145777449D02*
X386707414Y-143797449D01*
X386707414Y-150177449D02*
X386707414Y-148197449D01*
X387147414Y-147757449D02*
X392647414Y-147757449D01*
X390667414Y-143027449D02*
X390667414Y-143687449D01*
X390667415Y-150287449D02*
X390667414Y-150947449D01*
X391107414Y-144127449D02*
X392647414Y-144127449D01*
X391107414Y-151387449D02*
X396607414Y-151387449D01*
X392647414Y-146217448D02*
X387147414Y-146217449D01*
X392647414Y-149847449D02*
X391107415Y-149847449D01*
X393087414Y-144567449D02*
X393087414Y-145777448D01*
X393087414Y-148197449D02*
X393087414Y-149407449D01*
X394627413Y-149407449D02*
X394627414Y-148197449D01*
X394627414Y-145777449D02*
X394627414Y-144567449D01*
X395067414Y-144127449D02*
X396607414Y-144127449D01*
X395067414Y-147757449D02*
X398257414Y-147757449D01*
X396607414Y-142587449D02*
X391107414Y-142587449D01*
X396607414Y-149847449D02*
X395067413Y-149847449D01*
X397047414Y-143687449D02*
X397047414Y-143027449D01*
X397047414Y-150947449D02*
X397047414Y-150287449D01*
X398257414Y-146217448D02*
X395067414Y-146217449D01*
X398697414Y-147317449D02*
X398697414Y-146657448D01*
X375179343Y-150473550D02*
G75*
G02*
X375179343Y-143501348I-1011929J3486101D01*
G01*
X375179343Y-150473550D02*
G75*
G02*
X375591821Y-150711889I91957J-316950D01*
G01*
X375591842Y-143263015D02*
G75*
G02*
X375179343Y-143501347I-320505J78585D01*
G01*
X375591844Y-143263015D02*
G75*
G02*
X382435730Y-145599071I3525570J-864434D01*
G01*
X382435730Y-148375827D02*
G75*
G02*
X375591844Y-150711883I-3318316J-1471622D01*
G01*
X382435731Y-148375827D02*
G75*
G02*
X382837951Y-147757452I402219J178377D01*
G01*
X382837951Y-146217449D02*
G75*
G02*
X382435731Y-145599071I0J440000D01*
G01*
X384727414Y-147757449D02*
G75*
G02*
X385167414Y-148197449I0J-440000D01*
G01*
X385167414Y-143797449D02*
G75*
G02*
X385607414Y-143357449I440000J0D01*
G01*
X385167414Y-145777449D02*
G75*
G02*
X384727414Y-146217449I-440000J0D01*
G01*
X385607414Y-150617449D02*
G75*
G02*
X385167411Y-150177449I-4J439999D01*
G01*
X386267414Y-143357449D02*
G75*
G02*
X386707414Y-143797449I0J-440000D01*
G01*
X386707414Y-148197449D02*
G75*
G02*
X387147414Y-147757444I440006J-1D01*
G01*
X386707414Y-150177449D02*
G75*
G02*
X386267414Y-150617444I-439994J-1D01*
G01*
X387147414Y-146217449D02*
G75*
G02*
X386707414Y-145777449I0J440000D01*
G01*
X390667414Y-143027449D02*
G75*
G02*
X391107414Y-142587449I440000J0D01*
G01*
X390667415Y-150287449D02*
G75*
G02*
X391107415Y-149847445I440005J-1D01*
G01*
X391107414Y-144127449D02*
G75*
G02*
X390667414Y-143687449I0J440000D01*
G01*
X391107414Y-151387449D02*
G75*
G02*
X390667411Y-150947449I-4J439999D01*
G01*
X392647414Y-144127449D02*
G75*
G02*
X393087414Y-144567449I0J-440000D01*
G01*
X392647414Y-147757449D02*
G75*
G02*
X393087414Y-148197449I0J-440000D01*
G01*
X393087414Y-145777448D02*
G75*
G02*
X392647414Y-146217448I-440000J0D01*
G01*
X393087414Y-149407449D02*
G75*
G02*
X392647414Y-149847444I-439994J-1D01*
G01*
X394627414Y-144567449D02*
G75*
G02*
X395067414Y-144127449I440000J0D01*
G01*
X394627414Y-148197449D02*
G75*
G02*
X395067414Y-147757444I440006J-1D01*
G01*
X395067413Y-149847449D02*
G75*
G02*
X394627411Y-149407449I-3J439999D01*
G01*
X395067414Y-146217449D02*
G75*
G02*
X394627414Y-145777449I0J440000D01*
G01*
X396607414Y-142587449D02*
G75*
G02*
X397047414Y-143027449I0J-440000D01*
G01*
X396607414Y-149847449D02*
G75*
G02*
X397047411Y-150287449I-4J-440001D01*
G01*
X397047414Y-143687449D02*
G75*
G02*
X396607414Y-144127449I-440000J0D01*
G01*
X397047414Y-150947449D02*
G75*
G02*
X396607414Y-151387444I-439994J-1D01*
G01*
X398257414Y-146217448D02*
G75*
G02*
X398697414Y-146657448I0J-440000D01*
G01*
X398697414Y-147317449D02*
G75*
G02*
X398257414Y-147757444I-439994J-1D01*
G01*
X376257414Y-146987449D02*
G75*
G02*
X372077414Y-146987449I-2090000J0D01*
G01*
X372077414Y-146987449D02*
G75*
G02*
X376257414Y-146987449I2090000J0D01*
G01*
X381207414Y-144127449D02*
G75*
G02*
X377027414Y-144127449I-2090000J0D01*
G01*
X377027414Y-144127449D02*
G75*
G02*
X381207414Y-144127449I2090000J0D01*
G01*
X381207414Y-149847449D02*
G75*
G02*
X377027414Y-149847449I-2090000J0D01*
G01*
X377027414Y-149847449D02*
G75*
G02*
X381207414Y-149847449I2090000J0D01*
G01*
%TD*%
M02*
