%TF.GenerationSoftware,KiCad,Pcbnew,8.0.1*%
%TF.CreationDate,2025-12-30T01:33:59+09:00*%
%TF.ProjectId,keycultTKL_narrow,6b657963-756c-4745-944b-4c5f6e617272,rev?*%
%TF.SameCoordinates,Original*%
%TF.FileFunction,Paste,Bot*%
%TF.FilePolarity,Positive*%
%FSLAX46Y46*%
G04 Gerber Fmt 4.6, Leading zero omitted, Abs format (unit mm)*
G04 Created by KiCad (PCBNEW 8.0.1) date 2025-12-30 01:33:59*
%MOMM*%
%LPD*%
G01*
G04 APERTURE LIST*
G04 Aperture macros list*
%AMRoundRect*
0 Rectangle with rounded corners*
0 $1 Rounding radius*
0 $2 $3 $4 $5 $6 $7 $8 $9 X,Y pos of 4 corners*
0 Add a 4 corners polygon primitive as box body*
4,1,4,$2,$3,$4,$5,$6,$7,$8,$9,$2,$3,0*
0 Add four circle primitives for the rounded corners*
1,1,$1+$1,$2,$3*
1,1,$1+$1,$4,$5*
1,1,$1+$1,$6,$7*
1,1,$1+$1,$8,$9*
0 Add four rect primitives between the rounded corners*
20,1,$1+$1,$2,$3,$4,$5,0*
20,1,$1+$1,$4,$5,$6,$7,0*
20,1,$1+$1,$6,$7,$8,$9,0*
20,1,$1+$1,$8,$9,$2,$3,0*%
%AMFreePoly0*
4,1,801,-0.360511,0.190735,0.360034,0.185390,1.357739,0.166351,2.305046,0.130369,3.189838,0.081800,4.000000,0.025000,4.723415,-0.035673,5.347965,-0.095864,6.252008,-0.197373,6.279082,-0.201388,6.305744,-0.206686,6.331960,-0.213249,6.357694,-0.221057,6.382914,-0.230088,6.407583,-0.240325,6.431668,-0.251745,6.455134,-0.264331,6.477946,-0.278062,6.500071,-0.292918,6.521472,-0.308879,
6.542117,-0.325926,6.561970,-0.344039,6.580997,-0.363197,6.599163,-0.383382,6.616434,-0.404573,6.632631,-0.426560,6.647628,-0.449164,6.661415,-0.472346,6.673981,-0.496066,6.685316,-0.520286,6.695409,-0.544966,6.704252,-0.570069,6.711832,-0.595555,6.718141,-0.621386,6.723168,-0.647521,6.726902,-0.673924,6.729334,-0.700554,6.730452,-0.727373,6.730248,-0.754342,6.728710,-0.781423,
6.725828,-0.808576,6.714262,-0.894374,6.702676,-0.974480,6.691078,-1.048837,6.679476,-1.117386,6.667878,-1.180069,6.656291,-1.236828,6.644724,-1.287604,6.633183,-1.332340,6.625366,-1.368167,6.619475,-1.410902,6.615420,-1.459649,6.613108,-1.513513,6.612449,-1.571597,6.613352,-1.633008,6.619476,-1.762227,6.630750,-1.894005,6.646445,-2.021180,6.665829,-2.136590,6.676677,-2.187644,
6.688174,-2.233071,6.693268,-2.248606,6.700139,-2.265202,6.708687,-2.282760,6.718808,-2.301181,6.743365,-2.340217,6.772997,-2.381514,6.806890,-2.424281,6.844231,-2.467723,6.884207,-2.511048,6.926002,-2.553461,6.968805,-2.594169,7.011800,-2.632378,7.054174,-2.667296,7.095115,-2.698129,7.133807,-2.724084,7.169437,-2.744366,7.185850,-2.752132,7.201192,-2.758183,7.215362,-2.762419,
7.228258,-2.764741,7.301913,-2.766653,7.374968,-2.772414,7.447500,-2.782059,7.519590,-2.795622,7.591315,-2.813138,7.662756,-2.834644,7.733990,-2.860173,7.805096,-2.889760,7.876154,-2.923442,7.947243,-2.961253,8.018440,-3.003228,8.089826,-3.049402,8.161479,-3.099810,8.233478,-3.154487,8.305902,-3.213468,8.378830,-3.276789,8.482087,-3.374438,8.578110,-3.476085,8.666856,-3.581622,
8.748283,-3.690940,8.822350,-3.803933,8.889015,-3.920489,8.948236,-4.040503,8.999971,-4.163864,9.044178,-4.290465,9.080817,-4.420197,9.109844,-4.552952,9.131219,-4.688622,9.144899,-4.827097,9.150842,-4.968270,9.149007,-5.112032,9.139353,-5.258275,9.129464,-5.348940,9.116935,-5.435759,9.101871,-5.518844,9.084378,-5.598308,9.064563,-5.674262,9.042530,-5.746820,9.018386,-5.816094,
8.992237,-5.882197,8.964190,-5.945240,8.934349,-6.005337,8.902821,-6.062600,8.869713,-6.117141,8.835129,-6.169074,8.799177,-6.218509,8.761961,-6.265560,8.723589,-6.310340,8.684165,-6.352961,8.643797,-6.393535,8.560649,-6.468992,8.474992,-6.537613,8.387676,-6.600297,8.299548,-6.657943,8.211455,-6.711452,8.038768,-6.809658,7.963481,-6.848894,7.887645,-6.882941,7.810784,-6.912132,
7.732419,-6.936796,7.652072,-6.957264,7.569266,-6.973868,7.483521,-6.986939,7.394362,-6.996807,7.301308,-7.003803,7.203883,-7.008258,6.994007,-7.010869,6.760909,-7.007287,6.500766,-7.000158,6.065276,-6.988802,5.819776,-6.984878,5.551775,-6.983363,5.334327,-6.979694,5.124616,-6.969128,4.922660,-6.952328,4.728481,-6.929956,4.542097,-6.902676,4.363529,-6.871149,4.192795,-6.836039,
4.029916,-6.798008,3.874911,-6.757719,3.727800,-6.715834,3.457337,-6.629928,3.218684,-6.545591,3.011999,-6.468124,2.879696,-6.418395,2.821716,-6.397445,2.794777,-6.388118,2.769207,-6.379621,2.764150,-6.378282,2.758688,-6.377424,2.752839,-6.377028,2.746620,-6.377077,2.733146,-6.378436,2.718407,-6.381357,2.702546,-6.385695,2.685704,-6.391307,2.668022,-6.398048,2.649644,-6.405775,
2.630711,-6.414342,2.611364,-6.423606,2.571999,-6.443646,2.532684,-6.464744,2.494554,-6.485745,2.389422,-6.542332,2.330129,-6.571279,2.266870,-6.598741,2.200035,-6.623275,2.130014,-6.643441,2.057197,-6.657799,2.019862,-6.662349,1.981973,-6.664906,1.943581,-6.665290,1.904733,-6.663322,1.865479,-6.658820,1.825866,-6.651606,1.785944,-6.641498,1.745762,-6.628316,1.705368,-6.611881,
1.664811,-6.592012,1.624139,-6.568530,1.583402,-6.541253,1.542648,-6.510002,1.501926,-6.474597,1.461284,-6.434857,1.420772,-6.390603,1.380437,-6.341655,1.340329,-6.287831,1.313992,-6.249153,1.289840,-6.210441,1.267874,-6.171706,1.248098,-6.132954,1.230514,-6.094194,1.215124,-6.055435,1.201929,-6.016685,1.190934,-5.977951,1.182139,-5.939243,1.175547,-5.900569,1.171161,-5.861936,
1.168982,-5.823354,1.169013,-5.784829,1.171257,-5.746372,1.175715,-5.707990,1.182389,-5.669691,1.192301,-5.627722,1.204809,-5.586439,1.219906,-5.545850,1.237587,-5.505963,1.257844,-5.466787,1.280670,-5.428329,1.306060,-5.390598,1.334006,-5.353602,1.364501,-5.317349,1.397539,-5.281847,1.433114,-5.247106,1.471218,-5.213132,1.511845,-5.179934,1.554989,-5.147520,1.600641,-5.115899,
1.648797,-5.085078,1.651210,-5.083519,1.653500,-5.081878,1.655669,-5.080157,1.657715,-5.078355,1.659640,-5.076473,1.661443,-5.074512,1.663123,-5.072473,1.664682,-5.070356,1.666119,-5.068162,1.667434,-5.065891,1.668628,-5.063544,1.669699,-5.061122,1.670649,-5.058625,1.671477,-5.056055,1.672183,-5.053410,1.672768,-5.050693,1.673118,-5.048559,1.673396,-5.046300,1.673588,-5.043924,
1.673677,-5.041438,1.673651,-5.038850,1.673493,-5.036168,1.673188,-5.033399,1.672722,-5.030552,1.672080,-5.027633,1.671247,-5.024651,1.670208,-5.021614,1.668948,-5.018528,1.667452,-5.015403,1.665706,-5.012245,1.663694,-5.009062,1.661401,-5.005862,1.623153,-4.954308,1.587220,-4.902606,1.553625,-4.850802,1.522390,-4.798942,1.493539,-4.747070,1.467094,-4.695232,1.443078,-4.643474,
1.431988,-4.617640,1.421514,-4.591842,1.352863,-4.424767,1.259798,-4.211165,1.146631,-3.963672,1.017677,-3.694923,0.877246,-3.417550,0.729654,-3.144190,0.579211,-2.887477,0.504269,-2.769312,0.430232,-2.660046,0.361819,-2.567122,0.291575,-2.480955,0.218305,-2.400930,0.140814,-2.326432,0.057908,-2.256846,-0.031609,-2.191559,-0.128931,-2.129955,-0.235252,-2.071420,-0.351767,-2.015340,
-0.479672,-1.961100,-0.620160,-1.908085,-0.774427,-1.855681,-0.943667,-1.803274,-1.129075,-1.750249,-1.553174,-1.639886,-1.697293,-1.606831,-1.839041,-1.579477,-1.978540,-1.557442,-2.115915,-1.540342,-2.251288,-1.527793,-2.384784,-1.519411,-2.516525,-1.514814,-2.646635,-1.513617,-2.775237,-1.515436,-2.902454,-1.519889,-3.153229,-1.535159,-3.399947,-1.556359,-3.643594,-1.580419,-3.903628,-1.606046,
-4.167854,-1.628313,-4.301391,-1.636964,-4.435800,-1.643306,-4.571021,-1.646851,-4.706996,-1.647109,-4.821757,-1.643389,-4.939692,-1.634903,-5.060230,-1.622026,-5.182803,-1.605136,-5.306842,-1.584609,-5.431777,-1.560820,-5.682059,-1.504967,-5.929095,-1.440586,-6.168331,-1.370689,-6.395213,-1.298286,-6.605186,-1.226390,-6.647371,-1.209548,-6.687467,-1.189646,-6.725365,-1.166850,-6.760956,-1.141322,
-6.794130,-1.113228,-6.824778,-1.082731,-6.852790,-1.049994,-6.878057,-1.015183,-6.900471,-0.978461,-6.919921,-0.939993,-6.936298,-0.899941,-6.949492,-0.858471,-6.959396,-0.815747,-6.965898,-0.771932,-6.968890,-0.727191,-6.968680,-0.711901,-6.475972,-0.711901,-6.475925,-0.715400,-6.475719,-0.718731,-6.475363,-0.721897,-6.474866,-0.724903,-6.474237,-0.727754,-6.473486,-0.730453,-6.472620,-0.733006,
-6.471650,-0.735416,-6.470583,-0.737688,-6.469429,-0.739826,-6.468197,-0.741834,-6.466895,-0.743717,-6.465533,-0.745479,-6.464120,-0.747125,-6.462664,-0.748658,-6.461175,-0.750083,-6.459661,-0.751404,-6.458131,-0.752626,-6.456594,-0.753753,-6.453537,-0.755738,-6.450559,-0.757395,-6.447733,-0.758758,-6.445130,-0.759861,-6.440880,-0.761428,-6.245085,-0.828583,-6.034233,-0.896203,-5.812769,-0.961472,
-5.585136,-1.021575,-5.355779,-1.073696,-5.241843,-1.095884,-5.129142,-1.115021,-5.018233,-1.130754,-4.909670,-1.142732,-4.804009,-1.150604,-4.701805,-1.154016,-4.575940,-1.153944,-4.450705,-1.150732,-4.325752,-1.144813,-4.200735,-1.136623,-3.949122,-1.115165,-3.693092,-1.089833,-3.433554,-1.064212,-3.170406,-1.041740,-2.902199,-1.025776,-2.627483,-1.019684,-2.487230,-1.021389,-2.344807,-1.026822,
-2.200031,-1.036404,-2.052722,-1.050554,-1.902698,-1.069692,-1.749778,-1.094239,-1.593781,-1.124615,-1.434525,-1.161239,-1.215427,-1.216690,-1.010212,-1.271384,-0.818113,-1.326068,-0.638366,-1.381491,-0.470206,-1.438399,-0.312868,-1.497541,-0.165587,-1.559664,-0.027599,-1.625515,0.101862,-1.695844,0.163634,-1.732920,0.223560,-1.771396,0.281737,-1.811364,0.338261,-1.852919,0.393226,-1.896154,
0.446728,-1.941162,0.498864,-1.988037,0.549728,-2.036872,0.599416,-2.087761,0.648025,-2.140797,0.695648,-2.196073,0.742383,-2.253683,0.833568,-2.376279,0.912922,-2.493232,0.992821,-2.618785,1.072752,-2.751387,1.152198,-2.889487,1.307578,-3.175980,1.454840,-3.465858,1.589865,-3.746717,1.708531,-4.006151,1.806717,-4.231754,1.880303,-4.411121,1.887553,-4.428969,1.895288,-4.446916,
1.912202,-4.483093,1.931026,-4.519619,1.951740,-4.556461,1.974323,-4.593587,1.998755,-4.630966,2.025016,-4.668563,2.053087,-4.706349,2.070153,-4.729931,2.085880,-4.754262,2.100255,-4.779284,2.113262,-4.804936,2.124888,-4.831160,2.135118,-4.857896,2.143939,-4.885084,2.151336,-4.912666,2.157296,-4.940582,2.161804,-4.968772,2.164846,-4.997178,2.166408,-5.025739,2.166476,-5.054397,
2.165036,-5.083092,2.162073,-5.111764,2.157575,-5.140355,2.151604,-5.168431,2.144187,-5.196033,2.135356,-5.223113,2.125147,-5.249620,2.113591,-5.275505,2.100724,-5.300718,2.086580,-5.325210,2.071191,-5.348929,2.054593,-5.371827,2.036819,-5.393853,2.017902,-5.414959,1.997877,-5.435093,1.976777,-5.454207,1.954637,-5.472250,1.931489,-5.489172,1.907369,-5.504924,1.881973,-5.521031,
1.857841,-5.537301,1.834997,-5.553709,1.813463,-5.570229,1.793262,-5.586837,1.774419,-5.603507,1.756954,-5.620214,1.740892,-5.636933,1.726256,-5.653638,1.713067,-5.670305,1.701350,-5.686908,1.691128,-5.703422,1.682423,-5.719822,1.675258,-5.736083,1.672260,-5.744153,1.669656,-5.752178,1.667449,-5.760157,1.665641,-5.768084,1.663608,-5.780432,1.662493,-5.793101,1.662295,-5.806088,
1.663011,-5.819390,1.664640,-5.833004,1.667182,-5.846927,1.670635,-5.861155,1.674997,-5.875685,1.680268,-5.890514,1.686446,-5.905640,1.693530,-5.921058,1.701518,-5.936766,1.710410,-5.952760,1.720204,-5.969038,1.730898,-5.985596,1.742492,-6.002431,1.773625,-6.044407,1.788508,-6.062968,1.803004,-6.079957,1.817162,-6.095406,1.831033,-6.109351,1.844666,-6.121824,1.858113,-6.132859,
1.871424,-6.142491,1.884648,-6.150753,1.897837,-6.157679,1.911041,-6.163303,1.924310,-6.167659,1.937694,-6.170779,1.951243,-6.172699,1.965009,-6.173452,1.979041,-6.173072,1.993390,-6.171593,2.008106,-6.169048,2.023239,-6.165471,2.038840,-6.160897,2.054959,-6.155358,2.088952,-6.141524,2.125622,-6.124240,2.165370,-6.103776,2.255714,-6.054390,2.326195,-6.015783,2.400649,-5.977594,
2.439314,-5.959512,2.478909,-5.942562,2.519413,-5.927086,2.560805,-5.913426,2.603064,-5.901925,2.646168,-5.892924,2.690097,-5.886767,2.734829,-5.883795,2.780343,-5.884351,2.803387,-5.886059,2.826619,-5.888777,2.850035,-5.892549,2.873634,-5.897416,2.897413,-5.903422,2.921368,-5.910610,2.980161,-5.930523,3.043921,-5.953473,3.186703,-6.007051,3.380544,-6.079701,3.604158,-6.158795,
3.857202,-6.239363,4.139330,-6.316431,4.291193,-6.352099,4.450197,-6.385027,4.616299,-6.414595,4.789457,-6.440181,4.969626,-6.461162,5.156765,-6.476919,5.350829,-6.486828,5.551775,-6.490270,5.824592,-6.491810,6.073905,-6.495794,6.515213,-6.507272,6.750123,-6.513774,6.957208,-6.517536,7.051338,-6.517812,7.139738,-6.516710,7.222816,-6.513998,7.300981,-6.509447,7.374642,-6.502825,
7.444208,-6.493900,7.510087,-6.482443,7.572688,-6.468222,7.632420,-6.451007,7.689691,-6.430565,7.744910,-6.406667,7.798486,-6.379081,7.952831,-6.291606,8.027116,-6.246944,8.099012,-6.200574,8.168169,-6.151679,8.234238,-6.099440,8.296872,-6.043038,8.355720,-5.981654,8.410435,-5.914472,8.436133,-5.878450,8.460666,-5.840672,8.483992,-5.801034,8.506067,-5.759435,8.526846,-5.715772,
8.546287,-5.669943,8.564345,-5.621846,8.580977,-5.571379,8.596140,-5.518439,8.609790,-5.462923,8.621883,-5.404730,8.632376,-5.343757,8.641225,-5.279902,8.648386,-5.213063,8.656270,-5.095505,8.658078,-4.980449,8.653820,-4.867916,8.643504,-4.757927,8.627136,-4.650502,8.604725,-4.545665,8.576280,-4.443435,8.541809,-4.343835,8.501318,-4.246885,8.454818,-4.152607,8.402314,-4.061023,
8.343816,-3.972153,8.279332,-3.886019,8.208870,-3.802643,8.132437,-3.722045,8.050042,-3.644248,7.978865,-3.582829,7.910466,-3.528200,7.844815,-3.479969,7.781883,-3.437747,7.721642,-3.401144,7.664062,-3.369769,7.609114,-3.343234,7.556770,-3.321148,7.507000,-3.303120,7.459775,-3.288761,7.415067,-3.277681,7.372846,-3.269491,7.333083,-3.263799,7.295751,-3.260216,7.260818,-3.258353,
7.228258,-3.257818,7.191501,-3.256189,7.153983,-3.251397,7.115812,-3.243592,7.077096,-3.232918,7.037945,-3.219523,6.998467,-3.203554,6.958770,-3.185157,6.918964,-3.164480,6.839458,-3.116868,6.760816,-3.061895,6.683908,-3.000732,6.609604,-2.934556,6.538772,-2.864538,6.472282,-2.791854,6.411003,-2.717678,6.355804,-2.643183,6.307555,-2.569544,6.267123,-2.497935,6.235380,-2.429529,
6.223038,-2.396894,6.213194,-2.365500,6.199294,-2.311171,6.185925,-2.250001,6.161516,-2.110895,6.141444,-1.955701,6.127185,-1.791935,6.122697,-1.709187,6.120217,-1.627115,6.119928,-1.546658,6.122016,-1.468757,6.126664,-1.394351,6.134059,-1.324379,6.144383,-1.259782,6.157822,-1.201498,6.166997,-1.165451,6.176492,-1.122692,6.186251,-1.073572,6.196215,-1.018440,6.206329,-0.957644,
6.216534,-0.891535,6.236989,-0.744775,6.237170,-0.743135,6.237302,-0.741523,6.237386,-0.739939,6.237424,-0.738383,6.237418,-0.736855,6.237368,-0.735356,6.237278,-0.733884,6.237148,-0.732441,6.236776,-0.729640,6.236267,-0.726954,6.235635,-0.724382,6.234891,-0.721927,6.234051,-0.719587,6.233127,-0.717365,6.232134,-0.715261,6.231084,-0.713275,6.229991,-0.711409,6.228869,-0.709662,
6.227732,-0.708036,6.226591,-0.706532,6.225410,-0.705049,6.224109,-0.703534,6.222686,-0.702001,6.221136,-0.700463,6.219457,-0.698934,6.217647,-0.697429,6.215702,-0.695962,6.213619,-0.694546,6.211395,-0.693195,6.209028,-0.691924,6.206513,-0.690747,6.203849,-0.689677,6.201032,-0.688728,6.198059,-0.687915,6.194928,-0.687251,6.191634,-0.686751,5.296246,-0.586218,3.961164,-0.466525,
3.158713,-0.410277,2.282309,-0.362179,1.343943,-0.326545,0.355604,-0.307688,-1.575336,-0.301236,-2.516602,-0.312123,-3.423616,-0.337539,-4.282791,-0.381326,-5.080542,-0.447324,-5.452136,-0.489853,-5.803280,-0.539375,-6.132273,-0.596370,-6.437419,-0.661320,-6.441836,-0.662444,-6.444476,-0.663246,-6.447324,-0.664263,-6.450320,-0.665536,-6.453404,-0.667106,-6.456515,-0.669015,-6.458063,-0.670109,
-6.459594,-0.671303,-6.461103,-0.672603,-6.462581,-0.674013,-6.464021,-0.675538,-6.465415,-0.677184,-6.466756,-0.678956,-6.468036,-0.680859,-6.469249,-0.682899,-6.470385,-0.685079,-6.471439,-0.687406,-6.472401,-0.689885,-6.473266,-0.692520,-6.474024,-0.695318,-6.474670,-0.698282,-6.475195,-0.701419,-6.475591,-0.704733,-6.475852,-0.708230,-6.475972,-0.711901,-6.968680,-0.711901,-6.968263,-0.681688,
-6.966585,-0.659004,-6.964015,-0.636586,-6.960570,-0.614454,-6.956265,-0.592626,-6.951117,-0.571122,-6.945140,-0.549959,-6.938351,-0.529157,-6.930766,-0.508734,-6.922399,-0.488710,-6.913268,-0.469103,-6.903387,-0.449932,-6.892772,-0.431216,-6.881440,-0.412974,-6.869406,-0.395224,-6.856685,-0.377986,-6.843293,-0.361278,-6.829247,-0.345119,-6.814561,-0.329528,-6.799252,-0.314524,-6.783336,-0.300125,
-6.766827,-0.286351,-6.749743,-0.273220,-6.732098,-0.260751,-6.713908,-0.248964,-6.695189,-0.237875,-6.675957,-0.227506,-6.656228,-0.217874,-6.636017,-0.208998,-6.615340,-0.200897,-6.594213,-0.193590,-6.572652,-0.187096,-6.550671,-0.181434,-6.295370,-0.125960,-6.024265,-0.076026,-5.438287,0.008303,-4.800025,0.073719,-4.116764,0.122385,-3.395790,0.156469,-2.644389,0.178133,-1.079448,0.192867,
-0.360511,0.190735,-0.360511,0.190735,$1*%
%AMFreePoly1*
4,1,1541,0.375988,14.169472,0.650720,14.138024,0.922945,14.085610,1.191405,14.012231,1.454849,13.917886,1.712021,13.802576,1.961666,13.666300,2.202531,13.509059,2.318488,13.423174,2.430270,13.333343,2.537825,13.239715,2.641100,13.142438,2.740046,13.041659,2.834609,12.937526,2.924738,12.830189,3.010383,12.719794,3.091490,12.606490,3.168009,12.490425,3.239888,12.371747,3.307075,12.250604,
3.369520,12.127144,3.427169,12.001515,3.479972,11.873866,3.527877,11.744344,3.570832,11.613097,3.608787,11.480274,3.641688,11.346022,3.669485,11.210491,3.692127,11.073826,3.709560,10.936178,3.721735,10.797693,3.728599,10.658520,3.730100,10.518808,3.726188,10.378703,3.716810,10.238354,3.701915,10.097910,3.681451,9.957518,3.655368,9.817326,3.623612,9.677482,3.586133,9.538135,
3.581853,9.521870,3.578421,9.505485,3.575833,9.489010,3.574086,9.472477,3.573175,9.455918,3.573096,9.439363,3.573847,9.422845,3.575422,9.406396,3.577819,9.390045,3.581033,9.373826,3.585060,9.357769,3.589897,9.341906,3.595541,9.326268,3.601986,9.310887,3.609230,9.295794,3.617268,9.281021,3.626048,9.266675,3.635502,9.252857,3.645604,9.239588,3.656330,9.226884,
3.667653,9.214767,3.679549,9.203253,3.691993,9.192364,3.704958,9.182117,3.718419,9.172532,3.732352,9.163628,3.746731,9.155423,3.761530,9.147937,3.776724,9.141189,3.792288,9.135198,3.808196,9.129982,3.824423,9.125561,4.071000,9.055859,4.309939,8.969801,4.540610,8.868028,4.762380,8.751182,4.974619,8.619905,5.176695,8.474838,5.367976,8.316624,5.547832,8.145903,
5.715630,7.963318,5.870740,7.769510,6.012529,7.565121,6.140367,7.350793,6.253622,7.127167,6.351662,6.894886,6.433856,6.654590,6.499573,6.406922,6.547722,6.155247,6.577826,5.903074,6.590177,5.651252,6.585064,5.400635,6.562780,5.152075,6.523614,4.906422,6.467858,4.664531,6.395802,4.427252,6.307737,4.195437,6.203955,3.969938,6.084745,3.751609,5.950399,3.541299,
5.801207,3.339862,5.637460,3.148149,5.459450,2.967013,5.267466,2.797305,5.064030,2.641509,4.852064,2.501622,4.632459,2.377765,4.406108,2.270061,4.173902,2.178630,3.936734,2.103595,3.695496,2.045077,3.451079,2.003197,3.204375,1.978078,2.956278,1.969842,2.707677,1.978609,2.459467,2.004501,2.212538,2.047641,1.967782,2.108150,1.726092,2.186149,1.488360,2.281761,
1.462606,2.292222,1.436432,2.300982,1.409917,2.308045,1.383139,2.313417,1.356179,2.317107,1.329114,2.319118,1.302024,2.319459,1.274988,2.318135,1.248084,2.315153,1.221391,2.310518,1.194988,2.304237,1.168955,2.296317,1.143369,2.286763,1.118311,2.275583,1.093859,2.262782,1.070091,2.248366,1.047278,2.232482,1.025664,2.215317,1.005285,2.196942,0.986180,2.177426,
0.968387,2.156838,0.951943,2.135248,0.936886,2.112725,0.923253,2.089340,0.911083,2.065161,0.900413,2.040259,0.891281,2.014702,0.883724,1.988560,0.877781,1.961904,0.873489,1.934802,0.870886,1.907324,0.870010,1.879540,0.870010,-0.009961,0.870582,-0.032599,0.872281,-0.054939,0.875079,-0.076955,0.878948,-0.098619,0.883860,-0.119903,0.889788,-0.140780,0.896705,-0.161221,
0.904582,-0.181199,0.913392,-0.200687,0.923107,-0.219656,0.933701,-0.238080,0.945144,-0.255930,0.957409,-0.273180,0.970470,-0.289800,0.984297,-0.305764,0.998864,-0.321044,1.014143,-0.335612,1.030106,-0.349441,1.046726,-0.362503,1.063974,-0.374771,1.081824,-0.386216,1.100248,-0.396811,1.119218,-0.406529,1.138706,-0.415341,1.158685,-0.423220,1.179127,-0.430139,1.200004,-0.436070,
1.221289,-0.440985,1.242955,-0.444857,1.264973,-0.447657,1.287316,-0.449359,1.309956,-0.449934,3.289976,-0.449934,3.312616,-0.450508,3.334959,-0.452208,3.356977,-0.455007,3.378643,-0.458877,3.399929,-0.463790,3.420806,-0.469720,3.441249,-0.476637,3.461228,-0.484516,3.480717,-0.493327,3.499687,-0.503043,3.518111,-0.513638,3.535962,-0.525082,3.553212,-0.537348,3.569832,-0.550410,
3.585796,-0.564238,3.601076,-0.578806,3.615644,-0.594086,3.629472,-0.610050,3.642534,-0.626670,3.654800,-0.643920,3.666245,-0.661771,3.676839,-0.680195,3.686556,-0.699165,3.695367,-0.718654,3.703245,-0.738633,3.710163,-0.759076,3.716092,-0.779954,3.721006,-0.801239,3.724876,-0.822905,3.727675,-0.844923,3.729375,-0.867267,3.729949,-0.889907,3.729949,-1.549978,3.729376,-1.572615,
3.727677,-1.594956,3.724880,-1.616972,3.721011,-1.638636,3.716099,-1.659920,3.710170,-1.680796,3.703254,-1.701237,3.695377,-1.721216,3.686567,-1.740703,3.676851,-1.759673,3.666258,-1.778097,3.654815,-1.795947,3.642549,-1.813196,3.629489,-1.829817,3.615661,-1.845781,3.601094,-1.861061,3.585815,-1.875629,3.569852,-1.889458,3.553233,-1.902520,3.535984,-1.914788,3.518134,-1.926233,
3.499710,-1.936828,3.480741,-1.946545,3.461253,-1.955358,3.441274,-1.963237,3.420832,-1.970156,3.399954,-1.976087,3.378669,-1.981002,3.357004,-1.984873,3.334986,-1.987674,3.312643,-1.989376,3.290003,-1.989951,1.309983,-1.989951,1.287343,-1.990524,1.265000,-1.992225,1.242981,-1.995023,1.221315,-1.998894,1.200030,-2.003807,1.179152,-2.009737,1.158710,-2.016654,1.138730,-2.024532,
1.119242,-2.033344,1.100271,-2.043060,1.081847,-2.053654,1.063996,-2.065099,1.046747,-2.077365,1.030127,-2.090427,1.014163,-2.104255,0.998883,-2.118823,0.984315,-2.134103,0.970487,-2.150067,0.957425,-2.166687,0.945159,-2.183937,0.933714,-2.201787,0.923120,-2.220212,0.913404,-2.239182,0.904592,-2.258671,0.896714,-2.278650,0.889796,-2.299093,0.883867,-2.319970,0.878953,-2.341256,
0.875083,-2.362922,0.872284,-2.384940,0.870584,-2.407283,0.870010,-2.429924,0.870010,-7.929927,0.870582,-7.952565,0.872281,-7.974906,0.875079,-7.996922,0.878948,-8.018586,0.883860,-8.039870,0.889788,-8.060746,0.896705,-8.081187,0.904582,-8.101166,0.913392,-8.120654,0.923107,-8.139623,0.933701,-8.158047,0.945144,-8.175898,0.957409,-8.193147,0.970470,-8.209768,0.984297,-8.225732,
0.998864,-8.241012,1.014143,-8.255580,1.030106,-8.269409,1.046726,-8.282471,1.063974,-8.294739,1.081824,-8.306184,1.100248,-8.316779,1.119218,-8.326496,1.138706,-8.335309,1.158685,-8.343188,1.179127,-8.350107,1.200004,-8.356038,1.221289,-8.360953,1.242955,-8.364824,1.264973,-8.367624,1.287316,-8.369325,1.309956,-8.369900,2.519966,-8.369900,2.541786,-8.369363,2.563459,-8.367755,
2.584947,-8.365089,2.606216,-8.361382,2.627228,-8.356648,2.647948,-8.350901,2.668340,-8.344158,2.688367,-8.336433,2.707994,-8.327741,2.727184,-8.318096,2.745902,-8.307514,2.764111,-8.296010,2.781776,-8.283598,2.798859,-8.270294,2.815326,-8.256112,2.831140,-8.241068,2.846189,-8.225258,2.860375,-8.208795,2.873684,-8.191715,2.886100,-8.174053,2.897610,-8.155847,2.908197,-8.137132,
2.917846,-8.117944,2.926544,-8.098319,2.934274,-8.078294,2.941023,-8.057904,2.946774,-8.037185,2.951514,-8.016174,2.955226,-7.994907,2.957897,-7.973419,2.959511,-7.951747,2.960053,-7.929927,2.960053,-6.389904,2.960625,-6.367266,2.962324,-6.344925,2.965122,-6.322909,2.968991,-6.301245,2.973903,-6.279961,2.979831,-6.259085,2.986748,-6.238644,2.994625,-6.218666,3.003435,-6.199178,
3.013150,-6.180208,3.023744,-6.161785,3.035187,-6.143934,3.047452,-6.126685,3.060513,-6.110065,3.074340,-6.094101,3.088907,-6.078821,3.104186,-6.064252,3.120149,-6.050423,3.136769,-6.037361,3.154018,-6.025094,3.171868,-6.013649,3.190291,-6.003054,3.209261,-5.993336,3.228749,-5.984524,3.248728,-5.976644,3.269170,-5.969725,3.290047,-5.963794,3.311332,-5.958879,3.332998,-5.955008,
3.355016,-5.952208,3.377359,-5.950506,3.399999,-5.949931,4.059986,-5.949931,4.082626,-5.950504,4.104969,-5.952204,4.126987,-5.955003,4.148653,-5.958874,4.169939,-5.963787,4.190816,-5.969717,4.211259,-5.976634,4.231238,-5.984513,4.250727,-5.993324,4.269697,-6.003041,4.288121,-6.013635,4.305972,-6.025079,4.323221,-6.037346,4.339842,-6.050408,4.355806,-6.064236,4.371085,-6.078804,
4.385653,-6.094084,4.399482,-6.110048,4.412543,-6.126669,4.424810,-6.143918,4.436254,-6.161769,4.446848,-6.180193,4.456565,-6.199163,4.465376,-6.218652,4.473255,-6.238631,4.480172,-6.259074,4.486102,-6.279951,4.491016,-6.301237,4.494886,-6.322903,4.497685,-6.344921,4.499385,-6.367264,4.499959,-6.389904,4.499959,-11.889914,4.499418,-11.911749,4.497805,-11.933433,4.495136,-11.954932,
4.491425,-11.976210,4.486686,-11.997229,4.480936,-12.017955,4.474189,-12.038351,4.466460,-12.058381,4.457763,-12.078010,4.448115,-12.097201,4.437529,-12.115919,4.426021,-12.134127,4.413605,-12.151790,4.400297,-12.168871,4.386112,-12.185335,4.371064,-12.201145,4.355252,-12.216191,4.338786,-12.230374,4.321703,-12.243679,4.304040,-12.256093,4.285832,-12.267598,4.267114,-12.278182,4.247925,-12.287828,
4.228298,-12.296522,4.208271,-12.304249,4.187880,-12.310994,4.167160,-12.316741,4.146148,-12.321477,4.124880,-12.325186,4.103392,-12.327853,4.081719,-12.329463,4.059898,-12.330001,3.400026,-12.330001,3.378206,-12.329458,3.356534,-12.327844,3.335046,-12.325173,3.313778,-12.321460,3.292767,-12.316720,3.272049,-12.310969,3.251658,-12.304220,3.231633,-12.296489,3.212008,-12.287792,3.192820,-12.278142,
3.174105,-12.267555,3.155899,-12.256045,3.138238,-12.243629,3.121158,-12.230320,3.104695,-12.216134,3.088885,-12.201085,3.073840,-12.185271,3.059658,-12.168805,3.046354,-12.151721,3.033942,-12.134057,3.022437,-12.115848,3.011855,-12.097130,3.002210,-12.077940,2.993518,-12.058313,2.985792,-12.038286,2.979049,-12.017894,2.973303,-11.997174,2.968570,-11.976162,2.964863,-11.954894,2.962198,-11.933406,
2.960589,-11.911734,2.960053,-11.889914,2.960053,-10.349894,2.959512,-10.328078,2.957899,-10.306411,2.955230,-10.284926,2.951519,-10.263662,2.946780,-10.242653,2.941030,-10.221937,2.934283,-10.201548,2.926554,-10.181524,2.917857,-10.161900,2.908209,-10.142712,2.897623,-10.123997,2.886115,-10.105791,2.873699,-10.088130,2.860391,-10.071050,2.846206,-10.054586,2.831158,-10.038776,2.815346,-10.023731,
2.798880,-10.009548,2.781797,-9.996242,2.764134,-9.983829,2.745926,-9.972323,2.727208,-9.961740,2.708019,-9.952094,2.688392,-9.943400,2.668365,-9.935673,2.647974,-9.928928,2.627254,-9.923180,2.606242,-9.918445,2.584974,-9.914736,2.563486,-9.912069,2.541813,-9.910459,2.519992,-9.909921,1.309983,-9.909921,1.287343,-9.910494,1.265000,-9.912194,1.242981,-9.914993,1.221315,-9.918863,
1.200030,-9.923777,1.179152,-9.929706,1.158710,-9.936624,1.138730,-9.944502,1.119242,-9.953313,1.100271,-9.963030,1.081847,-9.973624,1.063996,-9.985068,1.046747,-9.997335,1.030127,-10.010396,1.014163,-10.024225,0.998883,-10.038793,0.984315,-10.054073,0.970487,-10.070037,0.957425,-10.086657,0.945159,-10.103906,0.933714,-10.121757,0.923120,-10.140182,0.913404,-10.159152,0.904592,-10.178641,
0.896714,-10.198620,0.889796,-10.219062,0.883867,-10.239940,0.878953,-10.261226,0.875083,-10.282892,0.872284,-10.304910,0.870584,-10.327253,0.870010,-10.349894,0.870010,-13.539984,0.869438,-13.562622,0.867739,-13.584963,0.864941,-13.606979,0.861072,-13.628643,0.856160,-13.649927,0.850232,-13.670803,0.843315,-13.691244,0.835438,-13.711222,0.826628,-13.730710,0.816913,-13.749680,0.806320,-13.768103,
0.794876,-13.785954,0.782611,-13.803203,0.769550,-13.819823,0.755723,-13.835787,0.741156,-13.851067,0.725877,-13.865635,0.709914,-13.879464,0.693294,-13.892526,0.676046,-13.904793,0.658196,-13.916238,0.639772,-13.926833,0.620802,-13.936551,0.601314,-13.945363,0.581335,-13.953242,0.560893,-13.960161,0.540016,-13.966092,0.518731,-13.971006,0.497065,-13.974878,0.475047,-13.977678,0.452704,-13.979379,
0.430064,-13.979954,-0.230035,-13.979954,-0.252676,-13.979380,-0.275019,-13.977680,-0.297037,-13.974881,-0.318703,-13.971011,-0.339989,-13.966098,-0.360866,-13.960168,-0.381309,-13.953251,-0.401288,-13.945372,-0.420777,-13.936561,-0.439747,-13.926845,-0.458171,-13.916251,-0.476022,-13.904806,-0.493271,-13.892540,-0.509892,-13.879479,-0.525856,-13.865650,-0.541136,-13.851082,-0.555703,-13.835803,-0.569532,-13.819839,
-0.582593,-13.803218,-0.594860,-13.785969,-0.606304,-13.768118,-0.616898,-13.749694,-0.626615,-13.730724,-0.635426,-13.711236,-0.643304,-13.691256,-0.650222,-13.670814,-0.656152,-13.649936,-0.661065,-13.628651,-0.664935,-13.606985,-0.667734,-13.584967,-0.669435,-13.562624,-0.670008,-13.539984,-0.670008,-10.349894,-0.670581,-10.327256,-0.672280,-10.304915,-0.675077,-10.282899,-0.678946,-10.261235,-0.683859,-10.239951,
-0.689787,-10.219075,-0.696703,-10.198633,-0.704580,-10.178655,-0.713390,-10.159167,-0.723106,-10.140198,-0.733699,-10.121774,-0.745142,-10.103923,-0.757408,-10.086674,-0.770468,-10.070053,-0.784296,-10.054089,-0.798863,-10.038809,-0.814142,-10.024241,-0.830105,-10.010412,-0.846724,-9.997350,-0.863973,-9.985082,-0.881823,-9.973637,-0.900247,-9.963042,-0.919216,-9.953324,-0.938705,-9.944512,-0.958683,-9.936633,
-0.979125,-9.929714,-1.000003,-9.923783,-1.021288,-9.918868,-1.042954,-9.914997,-1.064972,-9.912197,-1.087315,-9.910496,-1.109956,-9.909921,-2.319965,-9.909921,-2.341785,-9.910458,-2.363458,-9.912066,-2.384946,-9.914732,-2.406214,-9.918439,-2.427227,-9.923173,-2.447947,-9.928919,-2.468339,-9.935662,-2.488366,-9.943387,-2.507993,-9.952079,-2.527184,-9.961723,-2.545901,-9.972305,-2.564111,-9.983810,
-2.581775,-9.996222,-2.598859,-10.009526,-2.615325,-10.023708,-2.631139,-10.038753,-2.646188,-10.054563,-2.660374,-10.071026,-2.673683,-10.088106,-2.686100,-10.105768,-2.697609,-10.123974,-2.708196,-10.142689,-2.717845,-10.161877,-2.726543,-10.181502,-2.734273,-10.201527,-2.741021,-10.221917,-2.746773,-10.242636,-2.751512,-10.263647,-2.755225,-10.284914,-2.757895,-10.306402,-2.759509,-10.328074,-2.760051,-10.349894,
-2.760051,-11.889914,-2.760592,-11.911749,-2.762205,-11.933433,-2.764874,-11.954932,-2.768585,-11.976210,-2.773324,-11.997229,-2.779074,-12.017955,-2.785821,-12.038351,-2.793550,-12.058381,-2.802247,-12.078010,-2.811895,-12.097201,-2.822481,-12.115919,-2.833989,-12.134127,-2.846405,-12.151790,-2.859713,-12.168871,-2.873898,-12.185335,-2.888946,-12.201145,-2.904758,-12.216191,-2.921224,-12.230374,-2.938307,-12.243679,
-2.955970,-12.256093,-2.974179,-12.267598,-2.992896,-12.278182,-3.012086,-12.287828,-3.031712,-12.296522,-3.051739,-12.304249,-3.072131,-12.310994,-3.092850,-12.316741,-3.113862,-12.321477,-3.135131,-12.325186,-3.156619,-12.327853,-3.178291,-12.329463,-3.200112,-12.330001,-3.859985,-12.330001,-3.881805,-12.329458,-3.903477,-12.327844,-3.924965,-12.325173,-3.946232,-12.321460,-3.967244,-12.316720,-3.987962,-12.310969,
-4.008352,-12.304220,-4.028378,-12.296489,-4.048002,-12.287792,-4.067190,-12.278142,-4.085905,-12.267555,-4.104112,-12.256045,-4.121773,-12.243629,-4.138853,-12.230320,-4.155316,-12.216134,-4.171126,-12.201085,-4.186170,-12.185271,-4.200353,-12.168805,-4.213657,-12.151721,-4.226069,-12.134057,-4.237574,-12.115848,-4.248156,-12.097130,-4.257800,-12.077940,-4.266493,-12.058313,-4.274218,-12.038286,-4.280961,-12.017894,
-4.286707,-11.997174,-4.291441,-11.976162,-4.295148,-11.954894,-4.297813,-11.933406,-4.299422,-11.911734,-4.299958,-11.889914,-4.299958,-6.389904,-4.299386,-6.367266,-4.297687,-6.344925,-4.294889,-6.322909,-4.291020,-6.301245,-4.286108,-6.279961,-4.280180,-6.259085,-4.273263,-6.238644,-4.265386,-6.218666,-4.256576,-6.199178,-4.246861,-6.180208,-4.236268,-6.161785,-4.224825,-6.143934,-4.212559,-6.126685,
-4.199499,-6.110065,-4.185671,-6.094101,-4.171104,-6.078821,-4.155825,-6.064252,-4.139862,-6.050423,-4.123243,-6.037361,-4.105994,-6.025094,-4.088144,-6.013649,-4.069720,-6.003054,-4.050751,-5.993336,-4.031263,-5.984524,-4.011284,-5.976644,-3.990842,-5.969725,-3.969964,-5.963794,-3.948679,-5.958879,-3.927013,-5.955008,-3.904995,-5.952208,-3.882652,-5.950506,-3.860012,-5.949931,-3.200024,-5.949931,
-3.177384,-5.950504,-3.155041,-5.952204,-3.133023,-5.955003,-3.111357,-5.958874,-3.090071,-5.963787,-3.069193,-5.969717,-3.048751,-5.976634,-3.028772,-5.984513,-3.009283,-5.993324,-2.990313,-6.003041,-2.971889,-6.013635,-2.954038,-6.025079,-2.936789,-6.037346,-2.920168,-6.050408,-2.904204,-6.064236,-2.888924,-6.078804,-2.874357,-6.094084,-2.860528,-6.110048,-2.847467,-6.126669,-2.835200,-6.143918,
-2.823756,-6.161769,-2.813162,-6.180193,-2.803445,-6.199163,-2.794634,-6.218652,-2.786755,-6.238631,-2.779838,-6.259074,-2.773908,-6.279951,-2.768995,-6.301237,-2.765124,-6.322903,-2.762325,-6.344921,-2.760625,-6.367264,-2.760051,-6.389904,-2.760051,-7.929927,-2.759510,-7.951743,-2.757898,-7.973410,-2.755228,-7.994894,-2.751517,-8.016159,-2.746779,-8.037168,-2.741029,-8.057884,-2.734282,-8.078273,
-2.726553,-8.098297,-2.717856,-8.117921,-2.708208,-8.137109,-2.697622,-8.155824,-2.686114,-8.174030,-2.673699,-8.191691,-2.660391,-8.208771,-2.646205,-8.225235,-2.631158,-8.241045,-2.615345,-8.256090,-2.598879,-8.270273,-2.581796,-8.283579,-2.564133,-8.295992,-2.545924,-8.307498,-2.527207,-8.318081,-2.508017,-8.327727,-2.488391,-8.336421,-2.468364,-8.344148,-2.447973,-8.350893,-2.427253,-8.356641,
-2.406241,-8.361376,-2.384973,-8.365085,-2.363484,-8.367752,-2.341812,-8.369362,-2.319992,-8.369900,-1.109982,-8.369900,-1.087341,-8.369327,-1.064998,-8.367627,-1.042980,-8.364828,-1.021314,-8.360958,-1.000028,-8.356044,-0.979151,-8.350115,-0.958708,-8.343197,-0.938729,-8.335319,-0.919240,-8.326507,-0.900270,-8.316791,-0.881846,-8.306197,-0.863995,-8.294753,-0.846746,-8.282486,-0.830125,-8.269425,
-0.814161,-8.255596,-0.798882,-8.241028,-0.784314,-8.225748,-0.770485,-8.209784,-0.757424,-8.193164,-0.745157,-8.175914,-0.733713,-8.158064,-0.723119,-8.139639,-0.713402,-8.120669,-0.704591,-8.101180,-0.696713,-8.081201,-0.689795,-8.060759,-0.683865,-8.039881,-0.678952,-8.018595,-0.675082,-7.996929,-0.672283,-7.974911,-0.670582,-7.952568,-0.670008,-7.929927,-0.670008,-2.429924,-0.670581,-2.407286,
-0.672280,-2.384945,-0.675077,-2.362928,-0.678946,-2.341264,-0.683859,-2.319980,-0.689787,-2.299104,-0.696703,-2.278662,-0.704580,-2.258684,-0.713390,-2.239196,-0.723106,-2.220226,-0.733699,-2.201802,-0.745142,-2.183952,-0.757408,-2.166703,-0.770468,-2.150082,-0.784296,-2.134118,-0.798863,-2.118838,-0.814142,-2.104270,-0.830105,-2.090441,-0.846724,-2.077379,-0.863973,-2.065112,-0.881823,-2.053667,
-0.900247,-2.043072,-0.919216,-2.033354,-0.938705,-2.024542,-0.958683,-2.016663,-0.979125,-2.009744,-1.000003,-2.003813,-1.021288,-1.998898,-1.042954,-1.995027,-1.064972,-1.992227,-1.087315,-1.990526,-1.109956,-1.989951,-3.089975,-1.989951,-3.112615,-1.989377,-3.134958,-1.987676,-3.156977,-1.984877,-3.178642,-1.981007,-3.199928,-1.976093,-3.220806,-1.970163,-3.241248,-1.963246,-3.261227,-1.955367,
-3.280716,-1.946556,-3.299686,-1.936839,-3.318111,-1.926245,-3.335961,-1.914801,-3.353211,-1.902534,-3.369831,-1.889472,-3.385795,-1.875644,-3.401075,-1.861076,-3.415643,-1.845796,-3.429471,-1.829832,-3.442533,-1.813212,-3.454799,-1.795962,-3.466243,-1.778112,-3.476838,-1.759688,-3.486554,-1.740717,-3.495365,-1.721229,-3.503244,-1.701250,-3.510162,-1.680807,-3.516091,-1.659930,-3.521005,-1.638644,
-3.524875,-1.616979,-3.527674,-1.594961,-3.529374,-1.572618,-3.529948,-1.549978,-3.529948,-0.889907,-3.529376,-0.867269,-3.527677,-0.844929,-3.524879,-0.822912,-3.521010,-0.801249,-3.516098,-0.779965,-3.510170,-0.759088,-3.503253,-0.738647,-3.495376,-0.718669,-3.486566,-0.699181,-3.476851,-0.680211,-3.466257,-0.661787,-3.454814,-0.643937,-3.442549,-0.626687,-3.429488,-0.610067,-3.415661,-0.594103,
-3.401094,-0.578823,-3.385815,-0.564254,-3.369852,-0.550425,-3.353232,-0.537363,-3.335983,-0.525096,-3.318133,-0.513651,-3.299710,-0.503055,-3.280740,-0.493338,-3.261252,-0.484526,-3.241273,-0.476646,-3.220831,-0.469727,-3.199953,-0.463797,-3.178668,-0.458882,-3.157003,-0.455011,-3.134984,-0.452210,-3.112641,-0.450509,-3.090001,-0.449934,-1.109982,-0.449934,-1.087341,-0.449360,-1.064998,-0.447660,
-1.042980,-0.444861,-1.021314,-0.440991,-1.000028,-0.436077,-0.979151,-0.430148,-0.958708,-0.423230,-0.938729,-0.415352,-0.919240,-0.406540,-0.900270,-0.396824,-0.881846,-0.386230,-0.863995,-0.374785,-0.846746,-0.362519,-0.830125,-0.349457,-0.814161,-0.335628,-0.798882,-0.321060,-0.784314,-0.305781,-0.770485,-0.289817,-0.757424,-0.273196,-0.745157,-0.255947,-0.733713,-0.238096,-0.723119,-0.219672,
-0.713402,-0.200701,-0.704591,-0.181213,-0.696713,-0.161233,-0.689795,-0.140791,-0.683865,-0.119913,-0.678952,-0.098628,-0.675082,-0.076962,-0.672283,-0.054944,-0.670582,-0.032601,-0.670008,-0.009961,-0.670008,1.879540,-0.670884,1.907323,-0.673487,1.934800,-0.677778,1.961901,-0.683721,1.988557,-0.691277,2.014697,-0.700409,2.040254,-0.711078,2.065156,-0.723248,2.089335,-0.736880,2.112720,
-0.751937,2.135242,-0.768381,2.156832,-0.786174,2.177421,-0.805278,2.196937,-0.825656,2.215313,-0.847270,2.232478,-0.870083,2.248363,-0.893850,2.262779,-0.918302,2.275581,-0.943360,2.286762,-0.968946,2.296316,-0.994979,2.304237,-1.021381,2.310518,-1.048074,2.315154,-1.074978,2.318137,-1.102015,2.319462,-1.129105,2.319122,-1.156170,2.317111,-1.183130,2.313423,-1.209908,2.308051,
-1.236423,2.300989,-1.262597,2.292231,-1.288351,2.281771,-1.526085,2.186157,-1.767776,2.108157,-2.012533,2.047647,-2.259463,2.004506,-2.507674,1.978612,-2.756275,1.969844,-3.004373,1.978080,-3.251077,2.003199,-3.495494,2.045077,-3.736732,2.103595,-3.973901,2.178630,-4.206106,2.270061,-4.432457,2.377766,-4.652062,2.501622,-4.864028,2.641509,-5.067464,2.797305,-5.259447,2.967013,
-5.437458,3.148149,-5.601204,3.339862,-5.750396,3.541299,-5.884743,3.751609,-6.003953,3.969938,-6.107736,4.195437,-6.195800,4.427252,-6.267856,4.664531,-6.323613,4.906422,-6.362779,5.152075,-6.385063,5.400635,-6.389132,5.600093,-4.849981,5.600093,-4.847261,5.492540,-4.839191,5.386398,-4.825900,5.281801,-4.807520,5.178877,-4.784183,5.077760,-4.756020,4.978580,-4.723163,4.881469,
-4.685741,4.786557,-4.643888,4.693977,-4.597734,4.603859,-4.547410,4.516335,-4.493048,4.431537,-4.434779,4.349594,-4.372735,4.270640,-4.307046,4.194804,-4.237845,4.122219,-4.165262,4.053015,-4.089428,3.987325,-4.010476,3.925279,-3.928536,3.867008,-3.843739,3.812644,-3.756217,3.762319,-3.666102,3.716163,-3.573524,3.674308,-3.478615,3.636885,-3.381507,3.604026,-3.282329,3.575861,
-3.181215,3.552523,-3.078295,3.534142,-2.973700,3.520849,-2.867562,3.512777,-2.760031,3.510056,-2.656412,3.512623,-2.553475,3.520280,-2.451413,3.532956,-2.350398,3.550580,-2.250599,3.573081,-2.152189,3.600389,-2.055340,3.632432,-1.960221,3.669140,-1.867005,3.710441,-1.775863,3.756264,-1.686966,3.806539,-1.600486,3.861194,-1.516594,3.920159,-1.435460,3.983363,-1.357258,4.050735,
-1.282157,4.122203,-1.210689,4.197304,-1.143318,4.275506,-1.080114,4.356639,-1.021149,4.440531,-0.966493,4.527011,-0.916218,4.615908,-0.870395,4.707050,-0.829094,4.800265,-0.792386,4.895384,-0.760343,4.992233,-0.733035,5.090643,-0.710533,5.190441,-0.692908,5.291457,-0.680232,5.393519,-0.672575,5.496456,-0.670008,5.600093,0.870010,5.600093,0.872579,5.496447,0.880238,5.393505,
0.892916,5.291438,0.910542,5.190419,0.933045,5.090617,0.960355,4.992205,0.992400,4.895353,1.029109,4.800233,1.070412,4.707017,1.116238,4.615874,1.166514,4.526978,1.221172,4.440498,1.280138,4.356606,1.343344,4.275474,1.410717,4.197272,1.482186,4.122173,1.557288,4.050706,1.635492,3.983337,1.716627,3.920135,1.800520,3.861172,1.887001,3.806518,1.975899,3.756245,
2.067042,3.710424,2.160258,3.669125,2.255378,3.632419,2.352228,3.600378,2.450638,3.573072,2.550437,3.550572,2.651453,3.532950,2.753515,3.520276,2.856452,3.512621,2.960072,3.510056,3.067603,3.512779,3.173741,3.520854,3.278335,3.534148,3.381255,3.552531,3.482369,3.575872,3.581546,3.604038,3.678654,3.636899,3.773562,3.674324,3.866139,3.716180,3.956253,3.762338,
4.043774,3.812664,4.128569,3.867029,4.210508,3.925301,4.289460,3.987348,4.365292,4.053039,4.437874,4.122243,4.507074,4.194829,4.572761,4.270664,4.634804,4.349619,4.693071,4.431561,4.747431,4.516360,4.797753,4.603883,4.843906,4.694000,4.885758,4.786579,4.923177,4.881489,4.956033,4.978599,4.984194,5.077777,5.007529,5.178892,5.025907,5.281813,5.039196,5.386408,
5.047265,5.492546,5.049982,5.600096,5.046886,5.707361,5.038469,5.813206,5.024863,5.917501,5.006197,6.020115,4.982603,6.120918,4.954212,6.219780,4.921153,6.316571,4.883558,6.411161,4.841557,6.503419,4.795281,6.593215,4.744860,6.680420,4.690426,6.764903,4.632108,6.846534,4.570037,6.925182,4.504345,7.000717,4.435161,7.073010,4.362617,7.141931,4.286842,7.207348,
4.207968,7.269131,4.126126,7.327152,4.041445,7.381279,3.954057,7.431382,3.864092,7.477331,3.771681,7.518996,3.676954,7.556247,3.580042,7.588954,3.481076,7.616986,3.380186,7.640213,3.277504,7.658505,3.173159,7.671732,3.067282,7.679763,2.960004,7.682469,2.852727,7.679764,2.746850,7.671733,2.642505,7.658507,2.539822,7.640215,2.438932,7.616989,2.339966,7.588958,
2.243054,7.556252,2.148327,7.519002,2.055916,7.477337,1.965950,7.431388,1.878562,7.381286,1.793880,7.327159,1.712037,7.269139,1.633163,7.207356,1.557388,7.141939,1.484843,7.073019,1.415659,7.000726,1.349966,6.925190,1.287894,6.846542,1.229576,6.764911,1.175141,6.680428,1.124719,6.593223,1.078442,6.503426,1.036441,6.411167,0.998845,6.316577,0.965785,6.219785,
0.937393,6.120922,0.913798,6.020118,0.895132,5.917502,0.881525,5.813206,0.873107,5.707360,0.870010,5.600093,-0.670008,5.600093,-0.673105,5.707361,-0.681521,5.813206,-0.695128,5.917501,-0.713793,6.020115,-0.737387,6.120918,-0.765778,6.219780,-0.798837,6.316571,-0.836432,6.411161,-0.878433,6.503419,-0.924709,6.593215,-0.975130,6.680420,-1.029564,6.764903,-1.087882,6.846534,
-1.149953,6.925182,-1.215645,7.000717,-1.284829,7.073010,-1.357373,7.141931,-1.433148,7.207348,-1.512022,7.269131,-1.593864,7.327152,-1.678545,7.381279,-1.765934,7.431382,-1.855899,7.477331,-1.948310,7.518996,-2.043037,7.556247,-2.139949,7.588954,-2.238915,7.616986,-2.339804,7.640213,-2.442487,7.658505,-2.546832,7.671732,-2.652709,7.679763,-2.759987,7.682469,-2.867264,7.679764,
-2.973141,7.671733,-3.077486,7.658507,-3.180169,7.640215,-3.281059,7.616989,-3.380025,7.588958,-3.476937,7.556252,-3.571664,7.519002,-3.664076,7.477337,-3.754041,7.431388,-3.841430,7.381286,-3.926111,7.327159,-4.007954,7.269139,-4.086829,7.207356,-4.162604,7.141939,-4.235148,7.073019,-4.304333,7.000726,-4.370026,6.925190,-4.432097,6.846542,-4.490415,6.764911,-4.544850,6.680428,
-4.595272,6.593223,-4.641549,6.503426,-4.683550,6.411167,-4.721146,6.316577,-4.754206,6.219785,-4.782598,6.120922,-4.806192,6.020118,-4.824859,5.917502,-4.838466,5.813206,-4.846883,5.707360,-4.849981,5.600093,-6.389132,5.600093,-6.390176,5.651252,-6.377825,5.903074,-6.347721,6.155247,-6.299572,6.406922,-6.233855,6.654590,-6.151661,6.894886,-6.053621,7.127167,-5.940366,7.350793,
-5.812528,7.565121,-5.670739,7.769510,-5.515630,7.963318,-5.347832,8.145903,-5.167976,8.316624,-4.976695,8.474838,-4.774620,8.619905,-4.562381,8.751182,-4.340611,8.868028,-4.109940,8.969801,-3.871001,9.055859,-3.624425,9.125561,-3.608197,9.129982,-3.592289,9.135198,-3.576724,9.141189,-3.561530,9.147937,-3.546730,9.155423,-3.532352,9.163628,-3.518418,9.172532,-3.504956,9.182117,
-3.491991,9.192364,-3.479547,9.203253,-3.467651,9.214767,-3.456327,9.226884,-3.445602,9.239588,-3.435499,9.252857,-3.426045,9.266675,-3.417266,9.281021,-3.409228,9.295794,-3.401984,9.310887,-3.395539,9.326268,-3.389895,9.341906,-3.385058,9.357769,-3.381031,9.373826,-3.377817,9.390046,-3.375420,9.406396,-3.373845,9.422847,-3.373095,9.439365,-3.373173,9.455920,-3.374084,9.472480,
-3.375832,9.489013,-3.378420,9.505489,-3.381852,9.521876,-3.386132,9.538142,-3.455367,9.817332,-3.501914,10.097916,-3.526187,10.378709,-3.527663,10.550083,-1.990043,10.550083,-1.987474,10.446435,-1.979815,10.343491,-1.967137,10.241423,-1.949511,10.140403,-1.927007,10.040600,-1.899697,9.942187,-1.867652,9.845335,-1.830943,9.750215,-1.789640,9.656999,-1.743814,9.565856,-1.693537,9.476960,
-1.638880,9.390481,-1.579913,9.306590,-1.516708,9.225458,-1.449335,9.147258,-1.377865,9.072159,-1.302763,9.000692,-1.224558,8.933322,-1.143424,8.870120,-1.059530,8.811156,-0.973049,8.756502,-0.884151,8.706228,-0.793008,8.660406,-0.699791,8.619107,-0.604672,8.582401,-0.507821,8.550359,-0.409411,8.523053,-0.309612,8.500553,-0.208595,8.482930,-0.106533,8.470256,-0.003596,8.462601,
0.100044,8.460036,0.100000,8.460043,0.203640,8.462609,0.306576,8.470265,0.408638,8.482941,0.509654,8.500565,0.609452,8.523066,0.707862,8.550373,0.804712,8.582416,0.899831,8.619123,0.993047,8.660424,1.084189,8.706247,1.173085,8.756522,1.259566,8.811178,1.343458,8.870143,1.424591,8.933346,1.502794,9.000718,1.577894,9.072186,1.649362,9.147287,1.716734,9.225490,
1.779938,9.306623,1.838903,9.390515,1.893558,9.476995,1.943834,9.565891,1.989657,9.657033,2.030958,9.750248,2.067666,9.845366,2.099709,9.942216,2.127017,10.040625,2.149519,10.140423,2.167143,10.241438,2.179819,10.343500,2.187476,10.446436,2.190043,10.550076,2.185411,10.689356,2.171663,10.826925,2.149017,10.962403,2.117695,11.095409,2.077915,11.225563,2.029898,11.352483,
1.973863,11.475789,1.910031,11.595101,1.838620,11.710038,1.759851,11.820218,1.673943,11.925262,1.581117,12.024789,1.481592,12.118417,1.375588,12.205767,1.263325,12.286458,1.145022,12.360108,1.022087,12.425736,0.896076,12.482614,0.767426,12.530741,0.636579,12.570118,0.503973,12.600745,0.370048,12.622621,0.235244,12.635746,0.100000,12.640121,-0.035244,12.635746,-0.170048,12.622621,
-0.303973,12.600745,-0.436578,12.570118,-0.567426,12.530741,-0.696075,12.482614,-0.822087,12.425736,-0.945021,12.360108,-1.004914,12.324186,-1.063324,12.286458,-1.120224,12.246969,-1.175587,12.205767,-1.229385,12.162901,-1.281591,12.118417,-1.332177,12.072364,-1.381116,12.024789,-1.428380,11.975739,-1.473942,11.925262,-1.517775,11.873406,-1.559850,11.820219,-1.600141,11.765747,-1.638619,11.710038,
-1.675258,11.653141,-1.710030,11.595102,-1.742908,11.535969,-1.773863,11.475791,-1.802869,11.414613,-1.829898,11.352485,-1.854923,11.289453,-1.877915,11.225565,-1.898849,11.160869,-1.917695,11.095412,-1.934427,11.029242,-1.949017,10.962407,-1.961439,10.894953,-1.971663,10.826929,-1.979663,10.758383,-1.985411,10.689361,-1.988880,10.619912,-1.990043,10.550083,-3.527663,10.550083,-3.528598,10.658526,
-3.509559,10.936183,-3.469484,11.210495,-3.408786,11.480278,-3.327876,11.744347,-3.227168,12.001518,-3.107075,12.250606,-2.968009,12.490426,-2.810382,12.719795,-2.634609,12.937527,-2.441100,13.142438,-2.230270,13.333343,-2.002531,13.509059,-1.761666,13.666300,-1.512020,13.802576,-1.254849,13.917886,-0.991405,14.012231,-0.722944,14.085610,-0.450720,14.138024,-0.175987,14.169472,0.100000,14.179955,
0.375988,14.169472,0.375988,14.169472,$1*%
G04 Aperture macros list end*
%ADD10RoundRect,0.140000X0.170000X-0.140000X0.170000X0.140000X-0.170000X0.140000X-0.170000X-0.140000X0*%
%ADD11RoundRect,0.225000X0.375000X-0.225000X0.375000X0.225000X-0.375000X0.225000X-0.375000X-0.225000X0*%
%ADD12RoundRect,0.140000X0.140000X0.170000X-0.140000X0.170000X-0.140000X-0.170000X0.140000X-0.170000X0*%
%ADD13RoundRect,0.140000X-0.021213X0.219203X-0.219203X0.021213X0.021213X-0.219203X0.219203X-0.021213X0*%
%ADD14RoundRect,0.140000X-0.170000X0.140000X-0.170000X-0.140000X0.170000X-0.140000X0.170000X0.140000X0*%
%ADD15FreePoly0,180.000000*%
%ADD16R,1.000000X0.900000*%
%ADD17RoundRect,0.140000X0.021213X-0.219203X0.219203X-0.021213X-0.021213X0.219203X-0.219203X0.021213X0*%
%ADD18RoundRect,0.225000X0.250000X-0.225000X0.250000X0.225000X-0.250000X0.225000X-0.250000X-0.225000X0*%
%ADD19RoundRect,0.150000X0.150000X-0.587500X0.150000X0.587500X-0.150000X0.587500X-0.150000X-0.587500X0*%
%ADD20RoundRect,0.140000X-0.219203X-0.021213X-0.021213X-0.219203X0.219203X0.021213X0.021213X0.219203X0*%
%ADD21RoundRect,0.150000X0.150000X-0.512500X0.150000X0.512500X-0.150000X0.512500X-0.150000X-0.512500X0*%
%ADD22RoundRect,0.150000X0.150000X0.625000X-0.150000X0.625000X-0.150000X-0.625000X0.150000X-0.625000X0*%
%ADD23RoundRect,0.250000X0.350000X0.650000X-0.350000X0.650000X-0.350000X-0.650000X0.350000X-0.650000X0*%
%ADD24RoundRect,0.140000X-0.140000X-0.170000X0.140000X-0.170000X0.140000X0.170000X-0.140000X0.170000X0*%
%ADD25RoundRect,0.225000X-0.250000X0.225000X-0.250000X-0.225000X0.250000X-0.225000X0.250000X0.225000X0*%
%ADD26RoundRect,0.150000X-0.150000X0.650000X-0.150000X-0.650000X0.150000X-0.650000X0.150000X0.650000X0*%
%ADD27R,1.000000X0.750000*%
%ADD28RoundRect,0.250000X-0.413257X0.000000X0.000000X-0.413257X0.413257X0.000000X0.000000X0.413257X0*%
%ADD29RoundRect,0.050000X-0.309359X0.238649X0.238649X-0.309359X0.309359X-0.238649X-0.238649X0.309359X0*%
%ADD30RoundRect,0.050000X-0.309359X-0.238649X-0.238649X-0.309359X0.309359X0.238649X0.238649X0.309359X0*%
%ADD31FreePoly1,270.000000*%
G04 APERTURE END LIST*
D10*
%TO.C,C16*%
X173972500Y-180155000D03*
X173972500Y-179195000D03*
%TD*%
D11*
%TO.C,D74*%
X275362500Y-171587500D03*
X275362500Y-168287500D03*
%TD*%
%TO.C,D31*%
X346800000Y-114437500D03*
X346800000Y-111137500D03*
%TD*%
D12*
%TO.C,C5*%
X174055000Y-187125000D03*
X173095000Y-187125000D03*
%TD*%
D11*
%TO.C,D68*%
X161062500Y-171587500D03*
X161062500Y-168287500D03*
%TD*%
D13*
%TO.C,C10*%
X160664411Y-188060589D03*
X159985589Y-188739411D03*
%TD*%
D11*
%TO.C,D69*%
X180112500Y-171587500D03*
X180112500Y-168287500D03*
%TD*%
%TO.C,D15*%
X389662500Y-90625000D03*
X389662500Y-87325000D03*
%TD*%
%TO.C,D37*%
X127725000Y-133487500D03*
X127725000Y-130187500D03*
%TD*%
%TO.C,D66*%
X122962500Y-171587500D03*
X122962500Y-168287500D03*
%TD*%
%TO.C,D75*%
X294412500Y-171587500D03*
X294412500Y-168287500D03*
%TD*%
D14*
%TO.C,R5*%
X80750000Y-155995000D03*
X80750000Y-156955000D03*
%TD*%
D11*
%TO.C,D20*%
X137250000Y-114437500D03*
X137250000Y-111137500D03*
%TD*%
%TO.C,D88*%
X389662500Y-190637500D03*
X389662500Y-187337500D03*
%TD*%
%TO.C,D84*%
X296793750Y-190637500D03*
X296793750Y-187337500D03*
%TD*%
%TO.C,D36*%
X108675000Y-133487500D03*
X108675000Y-130187500D03*
%TD*%
%TO.C,D34*%
X408712500Y-114437500D03*
X408712500Y-111137500D03*
%TD*%
%TO.C,D52*%
X87243750Y-152537500D03*
X87243750Y-149237500D03*
%TD*%
D12*
%TO.C,R8*%
X381050000Y-89640000D03*
X380090000Y-89640000D03*
%TD*%
D11*
%TO.C,D38*%
X146775000Y-133487500D03*
X146775000Y-130187500D03*
%TD*%
%TO.C,D58*%
X208687500Y-152537500D03*
X208687500Y-149237500D03*
%TD*%
%TO.C,D11*%
X308700000Y-90625000D03*
X308700000Y-87325000D03*
%TD*%
%TO.C,D83*%
X272981250Y-190637500D03*
X272981250Y-187337500D03*
%TD*%
%TO.C,D2*%
X118200000Y-90625000D03*
X118200000Y-87325000D03*
%TD*%
D10*
%TO.C,R4*%
X147900000Y-188905000D03*
X147900000Y-187945000D03*
%TD*%
D11*
%TO.C,D46*%
X299175000Y-133487500D03*
X299175000Y-130187500D03*
%TD*%
%TO.C,D9*%
X261075000Y-90625000D03*
X261075000Y-87325000D03*
%TD*%
D10*
%TO.C,C2*%
X167350000Y-192230000D03*
X167350000Y-191270000D03*
%TD*%
D15*
%TO.C,REF\u002A\u002A*%
X246840976Y-188505435D03*
%TD*%
D11*
%TO.C,D63*%
X303937500Y-152537500D03*
X303937500Y-149237500D03*
%TD*%
D16*
%TO.C,Y1*%
X177500000Y-179950000D03*
X175350000Y-179950000D03*
X175350000Y-178400000D03*
X177500000Y-178400000D03*
%TD*%
D11*
%TO.C,D4*%
X156300000Y-90625000D03*
X156300000Y-87325000D03*
%TD*%
%TO.C,D43*%
X242025000Y-133487500D03*
X242025000Y-130187500D03*
%TD*%
%TO.C,D85*%
X320606250Y-190637500D03*
X320606250Y-187337500D03*
%TD*%
D14*
%TO.C,R6*%
X172942500Y-179195000D03*
X172942500Y-180155000D03*
%TD*%
D10*
%TO.C,R3*%
X148950000Y-188905000D03*
X148950000Y-187945000D03*
%TD*%
D13*
%TO.C,C12*%
X164839411Y-190235589D03*
X164160589Y-190914411D03*
%TD*%
D11*
%TO.C,D89*%
X408712500Y-190637500D03*
X408712500Y-187337500D03*
%TD*%
D17*
%TO.C,C1*%
X165510589Y-192264411D03*
X166189411Y-191585589D03*
%TD*%
D11*
%TO.C,D3*%
X137250000Y-90625000D03*
X137250000Y-87325000D03*
%TD*%
%TO.C,D6*%
X203925000Y-90625000D03*
X203925000Y-87325000D03*
%TD*%
%TO.C,D18*%
X99150000Y-114437500D03*
X99150000Y-111137500D03*
%TD*%
%TO.C,D47*%
X318225000Y-133487500D03*
X318225000Y-130187500D03*
%TD*%
%TO.C,D82*%
X201525000Y-191975000D03*
X201525000Y-188675000D03*
%TD*%
%TO.C,D27*%
X270600000Y-114437500D03*
X270600000Y-111137500D03*
%TD*%
%TO.C,D19*%
X118200000Y-114437500D03*
X118200000Y-111137500D03*
%TD*%
D14*
%TO.C,C15*%
X178900000Y-179195000D03*
X178900000Y-180155000D03*
%TD*%
D13*
%TO.C,C6*%
X171989411Y-180835589D03*
X171310589Y-181514411D03*
%TD*%
D11*
%TO.C,D42*%
X222975000Y-133487500D03*
X222975000Y-130187500D03*
%TD*%
D18*
%TO.C,R1*%
X161200000Y-192975000D03*
X161200000Y-191425000D03*
%TD*%
D11*
%TO.C,D25*%
X232500000Y-114437500D03*
X232500000Y-111137500D03*
%TD*%
%TO.C,D56*%
X170587500Y-152537500D03*
X170587500Y-149237500D03*
%TD*%
%TO.C,D59*%
X227737500Y-152537500D03*
X227737500Y-149237500D03*
%TD*%
%TO.C,D50*%
X389662500Y-133487500D03*
X389662500Y-130187500D03*
%TD*%
D19*
%TO.C,U1*%
X89300000Y-92275000D03*
X87400000Y-92275000D03*
X88350000Y-90399999D03*
%TD*%
D11*
%TO.C,D53*%
X113437500Y-152537500D03*
X113437500Y-149237500D03*
%TD*%
%TO.C,D10*%
X289650000Y-90625000D03*
X289650000Y-87325000D03*
%TD*%
%TO.C,D29*%
X308700000Y-114437500D03*
X308700000Y-111137500D03*
%TD*%
%TO.C,D78*%
X389662500Y-171587500D03*
X389662500Y-168287500D03*
%TD*%
%TO.C,D45*%
X280125000Y-133487500D03*
X280125000Y-130187500D03*
%TD*%
%TO.C,D26*%
X251550000Y-114437500D03*
X251550000Y-111137500D03*
%TD*%
%TO.C,D86*%
X344418750Y-190637500D03*
X344418750Y-187337500D03*
%TD*%
%TO.C,D65*%
X92006250Y-171587500D03*
X92006250Y-168287500D03*
%TD*%
%TO.C,D40*%
X184875000Y-133487500D03*
X184875000Y-130187500D03*
%TD*%
%TO.C,D73*%
X256312500Y-171587500D03*
X256312500Y-168287500D03*
%TD*%
%TO.C,D51*%
X408712500Y-133487500D03*
X408712500Y-130187500D03*
%TD*%
D10*
%TO.C,C8*%
X150000000Y-188905000D03*
X150000000Y-187945000D03*
%TD*%
D11*
%TO.C,D64*%
X334893750Y-152537500D03*
X334893750Y-149237500D03*
%TD*%
D20*
%TO.C,C17*%
X161260589Y-182860589D03*
X161939411Y-183539411D03*
%TD*%
D11*
%TO.C,D23*%
X194400000Y-114437500D03*
X194400000Y-111137500D03*
%TD*%
%TO.C,D87*%
X370612500Y-190637500D03*
X370612500Y-187337500D03*
%TD*%
%TO.C,D12*%
X327750000Y-90625000D03*
X327750000Y-87325000D03*
%TD*%
%TO.C,D44*%
X261075000Y-133487500D03*
X261075000Y-130187500D03*
%TD*%
%TO.C,D57*%
X189637500Y-152537500D03*
X189637500Y-149237500D03*
%TD*%
%TO.C,D76*%
X320606250Y-171587500D03*
X320606250Y-168287500D03*
%TD*%
%TO.C,D80*%
X106293750Y-190637500D03*
X106293750Y-187337500D03*
%TD*%
%TO.C,D32*%
X370612500Y-114437500D03*
X370612500Y-111137500D03*
%TD*%
D13*
%TO.C,C9*%
X165514411Y-190910589D03*
X164835589Y-191589411D03*
%TD*%
D14*
%TO.C,C7*%
X164275000Y-179095000D03*
X164275000Y-180055000D03*
%TD*%
D11*
%TO.C,D79*%
X82481250Y-190637500D03*
X82481250Y-187337500D03*
%TD*%
%TO.C,D60*%
X246787500Y-152537500D03*
X246787500Y-149237500D03*
%TD*%
%TO.C,D33*%
X389662500Y-114437500D03*
X389662500Y-111137500D03*
%TD*%
D21*
%TO.C,U4*%
X101674999Y-92237500D03*
X100725000Y-92237500D03*
X99775001Y-92237500D03*
X99775001Y-89962500D03*
X100725000Y-89962500D03*
X101674999Y-89962500D03*
%TD*%
D11*
%TO.C,D24*%
X213450000Y-114437500D03*
X213450000Y-111137500D03*
%TD*%
%TO.C,D81*%
X130106250Y-190637500D03*
X130106250Y-187337500D03*
%TD*%
%TO.C,D41*%
X203925000Y-133487500D03*
X203925000Y-130187500D03*
%TD*%
%TO.C,D5*%
X175350000Y-90625000D03*
X175350000Y-87325000D03*
%TD*%
%TO.C,D14*%
X370612500Y-90625000D03*
X370612500Y-87325000D03*
%TD*%
D22*
%TO.C,J1*%
X95700000Y-81700000D03*
X94700000Y-81700000D03*
X93700000Y-81700000D03*
X92700000Y-81700000D03*
D23*
X97000000Y-85575000D03*
X91400000Y-85575000D03*
%TD*%
D11*
%TO.C,D71*%
X218212500Y-171587500D03*
X218212500Y-168287500D03*
%TD*%
D24*
%TO.C,C14*%
X87420000Y-93862500D03*
X88380000Y-93862500D03*
%TD*%
D11*
%TO.C,D7*%
X222975000Y-90625000D03*
X222975000Y-87325000D03*
%TD*%
%TO.C,D70*%
X199162500Y-171587500D03*
X199162500Y-168287500D03*
%TD*%
D17*
%TO.C,C11*%
X171985589Y-182189411D03*
X172664411Y-181510589D03*
%TD*%
D11*
%TO.C,D28*%
X289650000Y-114437500D03*
X289650000Y-111137500D03*
%TD*%
%TO.C,D8*%
X242025000Y-90625000D03*
X242025000Y-87325000D03*
%TD*%
%TO.C,D16*%
X408712500Y-90625000D03*
X408712500Y-87325000D03*
%TD*%
%TO.C,D13*%
X346800000Y-90625000D03*
X346800000Y-87325000D03*
%TD*%
%TO.C,D55*%
X151537500Y-152537500D03*
X151537500Y-149237500D03*
%TD*%
%TO.C,D30*%
X327750000Y-114437500D03*
X327750000Y-111137500D03*
%TD*%
%TO.C,D48*%
X342037500Y-133487500D03*
X342037500Y-130187500D03*
%TD*%
D25*
%TO.C,R2*%
X162700000Y-191425000D03*
X162700000Y-192975000D03*
%TD*%
D11*
%TO.C,D77*%
X346800000Y-171587500D03*
X346800000Y-168287500D03*
%TD*%
%TO.C,D17*%
X80100000Y-114437500D03*
X80100000Y-111137500D03*
%TD*%
%TO.C,D49*%
X370612500Y-133487500D03*
X370612500Y-130187500D03*
%TD*%
%TO.C,D35*%
X84862500Y-133487500D03*
X84862500Y-130187500D03*
%TD*%
%TO.C,D22*%
X175350000Y-114437500D03*
X175350000Y-111137500D03*
%TD*%
%TO.C,D21*%
X156300000Y-114437500D03*
X156300000Y-111137500D03*
%TD*%
D26*
%TO.C,U2*%
X151795000Y-181150000D03*
X153065000Y-181150000D03*
X154335000Y-181150000D03*
X155605000Y-181150000D03*
X155605000Y-188350000D03*
X154335000Y-188350000D03*
X153065000Y-188350000D03*
X151795000Y-188350000D03*
%TD*%
D11*
%TO.C,D54*%
X132487500Y-152537500D03*
X132487500Y-149237500D03*
%TD*%
D27*
%TO.C,BOOTSEL1*%
X146223750Y-182492501D03*
X140223750Y-182492501D03*
X146223750Y-186242501D03*
X140223750Y-186242501D03*
%TD*%
D28*
%TO.C,U3*%
X167321878Y-183998439D03*
X166420317Y-184900000D03*
X168223439Y-184900000D03*
X167321878Y-185801561D03*
D29*
X163052721Y-184307798D03*
X163335564Y-184024955D03*
X163618406Y-183742113D03*
X163901249Y-183459270D03*
X164184092Y-183176427D03*
X164466934Y-182893585D03*
X164749777Y-182610742D03*
X165032620Y-182327899D03*
X165315463Y-182045056D03*
X165598305Y-181762214D03*
X165881148Y-181479371D03*
X166163991Y-181196528D03*
X166446833Y-180913686D03*
X166729676Y-180630843D03*
D30*
X167914080Y-180630843D03*
X168196923Y-180913686D03*
X168479765Y-181196528D03*
X168762608Y-181479371D03*
X169045451Y-181762214D03*
X169328293Y-182045056D03*
X169611136Y-182327899D03*
X169893979Y-182610742D03*
X170176822Y-182893585D03*
X170459664Y-183176427D03*
X170742507Y-183459270D03*
X171025350Y-183742113D03*
X171308192Y-184024955D03*
X171591035Y-184307798D03*
D29*
X171591035Y-185492202D03*
X171308192Y-185775045D03*
X171025350Y-186057887D03*
X170742507Y-186340730D03*
X170459664Y-186623573D03*
X170176822Y-186906415D03*
X169893979Y-187189258D03*
X169611136Y-187472101D03*
X169328293Y-187754944D03*
X169045451Y-188037786D03*
X168762608Y-188320629D03*
X168479765Y-188603472D03*
X168196923Y-188886314D03*
X167914080Y-189169157D03*
D30*
X166729676Y-189169157D03*
X166446833Y-188886314D03*
X166163991Y-188603472D03*
X165881148Y-188320629D03*
X165598305Y-188037786D03*
X165315463Y-187754944D03*
X165032620Y-187472101D03*
X164749777Y-187189258D03*
X164466934Y-186906415D03*
X164184092Y-186623573D03*
X163901249Y-186340730D03*
X163618406Y-186057887D03*
X163335564Y-185775045D03*
X163052721Y-185492202D03*
%TD*%
D11*
%TO.C,D1*%
X80100000Y-90625000D03*
X80100000Y-87325000D03*
%TD*%
%TO.C,D61*%
X265837500Y-152537500D03*
X265837500Y-149237500D03*
%TD*%
%TO.C,D72*%
X237262500Y-171587500D03*
X237262500Y-168287500D03*
%TD*%
D17*
%TO.C,C3*%
X161329093Y-190082915D03*
X162007915Y-189404093D03*
%TD*%
D11*
%TO.C,D67*%
X142012500Y-171587500D03*
X142012500Y-168287500D03*
%TD*%
D31*
%TO.C,REF\u002A\u002A*%
X384717500Y-146887500D03*
%TD*%
D24*
%TO.C,C13*%
X88350000Y-88862500D03*
X89310000Y-88862500D03*
%TD*%
D17*
%TO.C,C4*%
X160657342Y-189411164D03*
X161336164Y-188732342D03*
%TD*%
D11*
%TO.C,D39*%
X165825000Y-133487500D03*
X165825000Y-130187500D03*
%TD*%
%TO.C,D62*%
X284887500Y-152537500D03*
X284887500Y-149237500D03*
%TD*%
M02*
