%TF.GenerationSoftware,KiCad,Pcbnew,8.0.1*%
%TF.CreationDate,2025-12-30T14:10:29+09:00*%
%TF.ProjectId,keycultTKL_narrow,6b657963-756c-4745-944b-4c5f6e617272,rev?*%
%TF.SameCoordinates,Original*%
%TF.FileFunction,Legend,Bot*%
%TF.FilePolarity,Positive*%
%FSLAX46Y46*%
G04 Gerber Fmt 4.6, Leading zero omitted, Abs format (unit mm)*
G04 Created by KiCad (PCBNEW 8.0.1) date 2025-12-30 14:10:29*
%MOMM*%
%LPD*%
G01*
G04 APERTURE LIST*
%ADD10C,2.000000*%
%ADD11C,0.100000*%
%ADD12C,0.075000*%
%ADD13C,0.400000*%
%ADD14C,0.150000*%
%ADD15C,0.120000*%
%ADD16C,0.007937*%
%ADD17C,0.440000*%
G04 APERTURE END LIST*
D10*
X298429950Y-75325000D02*
X370992550Y-75325000D01*
X93833125Y-193637502D02*
X93833125Y-192637500D01*
X204305001Y-75325000D02*
G75*
G02*
X205305000Y-76324999I-1J-1000000D01*
G01*
X125980000Y-77325000D02*
G75*
G02*
X119580000Y-77325000I-3200000J0D01*
G01*
X211705000Y-77325000D02*
X211705000Y-76324999D01*
X297430000Y-77325000D02*
G75*
G02*
X291030000Y-77325000I-3200000J0D01*
G01*
X126979998Y-75325000D02*
X204305001Y-75325000D01*
X398442450Y-194637500D02*
G75*
G02*
X397442500Y-193637550I50J1000000D01*
G01*
X86433127Y-194637500D02*
X68005001Y-194637500D01*
X397442500Y-193637550D02*
X397442500Y-192637500D01*
X413417500Y-77824950D02*
X413417500Y-192137550D01*
X176390941Y-194637500D02*
G75*
G02*
X175390900Y-193637497I-41J1000000D01*
G01*
X291030000Y-76324950D02*
X291030000Y-77325000D01*
X413417500Y-192137550D02*
G75*
G02*
X410917550Y-194637500I-2499900J-50D01*
G01*
X378392500Y-76324950D02*
G75*
G02*
X379392450Y-75325000I1000000J-50D01*
G01*
X391042500Y-193637550D02*
G75*
G02*
X390042550Y-194637500I-1000000J50D01*
G01*
X168990937Y-192637503D02*
X168990938Y-193637496D01*
X119580000Y-76324999D02*
X119580000Y-77325000D01*
X297430000Y-76324950D02*
G75*
G02*
X298429950Y-75325000I1000000J-50D01*
G01*
X410917550Y-194637500D02*
X398442450Y-194637500D01*
X65505000Y-192137500D02*
X65505000Y-77825001D01*
X125980000Y-77325000D02*
X125980000Y-76324999D01*
X87433125Y-193637502D02*
G75*
G02*
X86433127Y-194637525I-1000025J2D01*
G01*
X379392450Y-75325000D02*
X410917550Y-75325000D01*
X87433125Y-192637500D02*
G75*
G02*
X93833125Y-192637500I3200000J0D01*
G01*
X330576850Y-194637500D02*
G75*
G02*
X329576900Y-193637500I50J1000000D01*
G01*
X125980000Y-76324999D02*
G75*
G02*
X126979998Y-75325000I1000000J-1D01*
G01*
X68005000Y-75325000D02*
X118580001Y-75325000D01*
X391042500Y-192637500D02*
X391042500Y-193637550D01*
X322164704Y-194637500D02*
X176390941Y-194637500D01*
X87433125Y-192637500D02*
X87433125Y-193637502D01*
X370992550Y-75325000D02*
G75*
G02*
X371992500Y-76324950I-50J-1000000D01*
G01*
X65505000Y-77825001D02*
G75*
G02*
X68005000Y-75325000I2500000J1D01*
G01*
X68005001Y-194637500D02*
G75*
G02*
X65505000Y-192137500I-1J2500000D01*
G01*
X175390937Y-193637497D02*
X175390937Y-192637500D01*
X211705000Y-76324999D02*
G75*
G02*
X212704998Y-75325000I1000000J-1D01*
G01*
X290030050Y-75325000D02*
G75*
G02*
X291030000Y-76324950I-50J-1000000D01*
G01*
X297430000Y-77325000D02*
X297430000Y-76324950D01*
X329576875Y-193637500D02*
X329576875Y-192629500D01*
X211705000Y-77325000D02*
G75*
G02*
X205305000Y-77325000I-3200000J0D01*
G01*
X167990935Y-194637500D02*
X94833124Y-194637500D01*
X323176875Y-192637510D02*
X323176875Y-193637650D01*
X118580001Y-75325000D02*
G75*
G02*
X119580000Y-76324999I-1J-1000000D01*
G01*
X378392500Y-77325000D02*
G75*
G02*
X371992500Y-77325000I-3200000J0D01*
G01*
X323176875Y-192637510D02*
G75*
G02*
X329576915Y-192629500I3200025J10D01*
G01*
X168990937Y-192637503D02*
G75*
G02*
X175390863Y-192637500I3199963J3D01*
G01*
X391042500Y-192637500D02*
G75*
G02*
X397442500Y-192637500I3200000J0D01*
G01*
X212704998Y-75325000D02*
X290030050Y-75325000D01*
X371992500Y-76324950D02*
X371992500Y-77325000D01*
X410917550Y-75325000D02*
G75*
G02*
X413417500Y-77824950I50J-2499900D01*
G01*
X168990938Y-193637496D02*
G75*
G02*
X167990935Y-194637538I-1000038J-4D01*
G01*
X94833124Y-194637500D02*
G75*
G02*
X93833100Y-193637502I-24J1000000D01*
G01*
X378392500Y-77325000D02*
X378392500Y-76324950D01*
X205305000Y-76324999D02*
X205305000Y-77325000D01*
X323176875Y-193637650D02*
G75*
G02*
X322164704Y-194637501I-999975J50D01*
G01*
X390042550Y-194637500D02*
X330576850Y-194637500D01*
D11*
X386373451Y-91676466D02*
X385611547Y-91676466D01*
X383848451Y-91676466D02*
X383086547Y-91676466D01*
X383467499Y-92057419D02*
X383467499Y-91295514D01*
X76654701Y-153588966D02*
X75892797Y-153588966D01*
X83954701Y-153588966D02*
X83192797Y-153588966D01*
X81429701Y-153588966D02*
X80667797Y-153588966D01*
X81048749Y-153969919D02*
X81048749Y-153208014D01*
X79179701Y-153588966D02*
X78417797Y-153588966D01*
X78798749Y-153969919D02*
X78798749Y-153208014D01*
D12*
G36*
X174028947Y-177761745D02*
G01*
X174025668Y-177732325D01*
X174037717Y-177704278D01*
X174058696Y-177683489D01*
X174059575Y-177682757D01*
X174084475Y-177662948D01*
X174104158Y-177640165D01*
X174119509Y-177611038D01*
X174126397Y-177579235D01*
X174126693Y-177570942D01*
X174122682Y-177540625D01*
X174111171Y-177512395D01*
X174092945Y-177486854D01*
X174068789Y-177464605D01*
X174039488Y-177446251D01*
X174005827Y-177432395D01*
X173968591Y-177423639D01*
X173938789Y-177420782D01*
X173928563Y-177420586D01*
X173898552Y-177422317D01*
X173860733Y-177429704D01*
X173826171Y-177442342D01*
X173795684Y-177459628D01*
X173770091Y-177480959D01*
X173750207Y-177505734D01*
X173736851Y-177533349D01*
X173730839Y-177563200D01*
X173730580Y-177570942D01*
X173734933Y-177602117D01*
X173747398Y-177631138D01*
X173767081Y-177657325D01*
X173789020Y-177676998D01*
X173810448Y-177691110D01*
X173834009Y-177711949D01*
X173845118Y-177741434D01*
X173841076Y-177765115D01*
X173822538Y-177789177D01*
X173795311Y-177800569D01*
X173767949Y-177795304D01*
X173767070Y-177794424D01*
X173736172Y-177775463D01*
X173708323Y-177753385D01*
X173683855Y-177728466D01*
X173663096Y-177700983D01*
X173646376Y-177671213D01*
X173634025Y-177639432D01*
X173626372Y-177605916D01*
X173623748Y-177570942D01*
X173627263Y-177530452D01*
X173637462Y-177491950D01*
X173653825Y-177455873D01*
X173675835Y-177422655D01*
X173702972Y-177392732D01*
X173734718Y-177366540D01*
X173770555Y-177344513D01*
X173809962Y-177327088D01*
X173837962Y-177318242D01*
X173867164Y-177311764D01*
X173897416Y-177307783D01*
X173928563Y-177306427D01*
X173959880Y-177307793D01*
X173990257Y-177311800D01*
X174019546Y-177318318D01*
X174047597Y-177327211D01*
X174087028Y-177344718D01*
X174122834Y-177366824D01*
X174154514Y-177393081D01*
X174181562Y-177423041D01*
X174203477Y-177456256D01*
X174219753Y-177492277D01*
X174229888Y-177530655D01*
X174233378Y-177570942D01*
X174230947Y-177604447D01*
X174223848Y-177636748D01*
X174212374Y-177667576D01*
X174196815Y-177696660D01*
X174177465Y-177723732D01*
X174154615Y-177748521D01*
X174128556Y-177770759D01*
X174099582Y-177790175D01*
X174069775Y-177795837D01*
X174041900Y-177781066D01*
X174028947Y-177761745D01*
G37*
G36*
X174172122Y-178054396D02*
G01*
X174201200Y-178061645D01*
X174224447Y-178083412D01*
X174233298Y-178111781D01*
X174233378Y-178114920D01*
X174225930Y-178143998D01*
X174203765Y-178167244D01*
X174175251Y-178176095D01*
X174172122Y-178176176D01*
X173684858Y-178176176D01*
X173655057Y-178169087D01*
X173635130Y-178146800D01*
X173630343Y-178121661D01*
X173636944Y-178090770D01*
X173657233Y-178069000D01*
X173683246Y-178052784D01*
X173705093Y-178031847D01*
X173720855Y-178006844D01*
X173731166Y-177982149D01*
X173747783Y-177956891D01*
X173774348Y-177941401D01*
X173784069Y-177940091D01*
X173811986Y-177951632D01*
X173827740Y-177977900D01*
X173830283Y-178008033D01*
X173830231Y-178035052D01*
X173853770Y-178054269D01*
X173863057Y-178054396D01*
X174172122Y-178054396D01*
G37*
G36*
X173978904Y-178357676D02*
G01*
X174011475Y-178361638D01*
X174041495Y-178367661D01*
X174081808Y-178380368D01*
X174116547Y-178397220D01*
X174145811Y-178417923D01*
X174169697Y-178442184D01*
X174188306Y-178469709D01*
X174201735Y-178500202D01*
X174210083Y-178533370D01*
X174213448Y-178568918D01*
X174213512Y-178580146D01*
X174210909Y-178612481D01*
X174204298Y-178642625D01*
X174193911Y-178670364D01*
X174174592Y-178703230D01*
X174149528Y-178730919D01*
X174119273Y-178752919D01*
X174084379Y-178768714D01*
X174055497Y-178776180D01*
X174024551Y-178779651D01*
X173997302Y-178779324D01*
X173960692Y-178774033D01*
X173925140Y-178762988D01*
X173892145Y-178745961D01*
X173863206Y-178722726D01*
X173839821Y-178693057D01*
X173826831Y-178666445D01*
X173818441Y-178635991D01*
X173815284Y-178601598D01*
X173815808Y-178576392D01*
X173905995Y-178576392D01*
X173906248Y-178582899D01*
X173912212Y-178612007D01*
X173927966Y-178639612D01*
X173950401Y-178659544D01*
X173981208Y-178673546D01*
X174012681Y-178678095D01*
X174021393Y-178677710D01*
X174053533Y-178670233D01*
X174080188Y-178656125D01*
X174102593Y-178634773D01*
X174117501Y-178606050D01*
X174121857Y-178576392D01*
X174121342Y-178566952D01*
X174111819Y-178534979D01*
X174094897Y-178510693D01*
X174070825Y-178491392D01*
X174040491Y-178479069D01*
X174011069Y-178475569D01*
X173979500Y-178480553D01*
X173951844Y-178494178D01*
X173929508Y-178514448D01*
X173912054Y-178543837D01*
X173905995Y-178576392D01*
X173815808Y-178576392D01*
X173815814Y-178576116D01*
X173819309Y-178541684D01*
X173827083Y-178508297D01*
X173835507Y-178479819D01*
X173816527Y-178481787D01*
X173788147Y-178492163D01*
X173762356Y-178506898D01*
X173738930Y-178526882D01*
X173721911Y-178551846D01*
X173715339Y-178581521D01*
X173716755Y-178603582D01*
X173726738Y-178633938D01*
X173748002Y-178656059D01*
X173772492Y-178674724D01*
X173781512Y-178684926D01*
X173791288Y-178713278D01*
X173784216Y-178741842D01*
X173778825Y-178749401D01*
X173752507Y-178762342D01*
X173722960Y-178758695D01*
X173696032Y-178745453D01*
X173672349Y-178726236D01*
X173652450Y-178701101D01*
X173636877Y-178670105D01*
X173627895Y-178641127D01*
X173622303Y-178608463D01*
X173620378Y-178572142D01*
X173621916Y-178549452D01*
X173629727Y-178517183D01*
X173643635Y-178487224D01*
X173663071Y-178459788D01*
X173687464Y-178435089D01*
X173716244Y-178413339D01*
X173748841Y-178394751D01*
X173784685Y-178379538D01*
X173823206Y-178367913D01*
X173863832Y-178360090D01*
X173905995Y-178356281D01*
X173943754Y-178355861D01*
X173978904Y-178357676D01*
G37*
G36*
X174898947Y-187088510D02*
G01*
X174895668Y-187059090D01*
X174907717Y-187031043D01*
X174928696Y-187010254D01*
X174929575Y-187009522D01*
X174954475Y-186989713D01*
X174974158Y-186966930D01*
X174989509Y-186937803D01*
X174996397Y-186906000D01*
X174996693Y-186897707D01*
X174992682Y-186867390D01*
X174981171Y-186839160D01*
X174962945Y-186813619D01*
X174938789Y-186791370D01*
X174909488Y-186773016D01*
X174875827Y-186759160D01*
X174838591Y-186750404D01*
X174808789Y-186747547D01*
X174798563Y-186747351D01*
X174768552Y-186749082D01*
X174730733Y-186756469D01*
X174696171Y-186769107D01*
X174665684Y-186786393D01*
X174640091Y-186807724D01*
X174620207Y-186832499D01*
X174606851Y-186860114D01*
X174600839Y-186889965D01*
X174600580Y-186897707D01*
X174604933Y-186928882D01*
X174617398Y-186957903D01*
X174637081Y-186984090D01*
X174659020Y-187003763D01*
X174680448Y-187017875D01*
X174704009Y-187038714D01*
X174715118Y-187068199D01*
X174711076Y-187091880D01*
X174692538Y-187115942D01*
X174665311Y-187127334D01*
X174637949Y-187122069D01*
X174637070Y-187121189D01*
X174606172Y-187102228D01*
X174578323Y-187080150D01*
X174553855Y-187055231D01*
X174533096Y-187027748D01*
X174516376Y-186997978D01*
X174504025Y-186966197D01*
X174496372Y-186932681D01*
X174493748Y-186897707D01*
X174497263Y-186857217D01*
X174507462Y-186818715D01*
X174523825Y-186782638D01*
X174545835Y-186749420D01*
X174572972Y-186719497D01*
X174604718Y-186693305D01*
X174640555Y-186671278D01*
X174679962Y-186653853D01*
X174707962Y-186645007D01*
X174737164Y-186638529D01*
X174767416Y-186634548D01*
X174798563Y-186633192D01*
X174829880Y-186634558D01*
X174860257Y-186638565D01*
X174889546Y-186645083D01*
X174917597Y-186653976D01*
X174957028Y-186671483D01*
X174992834Y-186693589D01*
X175024514Y-186719846D01*
X175051562Y-186749806D01*
X175073477Y-186783021D01*
X175089753Y-186819042D01*
X175099888Y-186857420D01*
X175103378Y-186897707D01*
X175100947Y-186931212D01*
X175093848Y-186963513D01*
X175082374Y-186994341D01*
X175066815Y-187023425D01*
X175047465Y-187050497D01*
X175024615Y-187075286D01*
X174998556Y-187097524D01*
X174969582Y-187116940D01*
X174939775Y-187122602D01*
X174911900Y-187107831D01*
X174898947Y-187088510D01*
G37*
G36*
X174623588Y-187353464D02*
G01*
X174623867Y-187385070D01*
X174624392Y-187415571D01*
X174624694Y-187446005D01*
X174624303Y-187477414D01*
X174623588Y-187496200D01*
X174617398Y-187526474D01*
X174595381Y-187546752D01*
X174575667Y-187549982D01*
X174544960Y-187541763D01*
X174526106Y-187518706D01*
X174521885Y-187496200D01*
X174521453Y-187463334D01*
X174521503Y-187430793D01*
X174521786Y-187398537D01*
X174522054Y-187366524D01*
X174522059Y-187334716D01*
X174521553Y-187303071D01*
X174521152Y-187290450D01*
X174529186Y-187261165D01*
X174553045Y-187243653D01*
X174557203Y-187242529D01*
X174590811Y-187235410D01*
X174621041Y-187229424D01*
X174654930Y-187223130D01*
X174688618Y-187217099D01*
X174718374Y-187211734D01*
X174751229Y-187205600D01*
X174782095Y-187201872D01*
X174812459Y-187208690D01*
X174826700Y-187221573D01*
X174839078Y-187249461D01*
X174839566Y-187281049D01*
X174830803Y-187300561D01*
X174815759Y-187326319D01*
X174806586Y-187356939D01*
X174803306Y-187389407D01*
X174803253Y-187401385D01*
X174807756Y-187430562D01*
X174821937Y-187458893D01*
X174844427Y-187479918D01*
X174873854Y-187492424D01*
X174898361Y-187495467D01*
X174928044Y-187491207D01*
X174954925Y-187478324D01*
X174977254Y-187457902D01*
X174993281Y-187431026D01*
X175001256Y-187398779D01*
X175001822Y-187387023D01*
X174998191Y-187354156D01*
X174987389Y-187325587D01*
X174967411Y-187302493D01*
X174940859Y-187290450D01*
X174912701Y-187277626D01*
X174893230Y-187252566D01*
X174890008Y-187228314D01*
X174903540Y-187200173D01*
X174928374Y-187184237D01*
X174960069Y-187180068D01*
X174963427Y-187180394D01*
X174993718Y-187187247D01*
X175020967Y-187200047D01*
X175044867Y-187218532D01*
X175065112Y-187242438D01*
X175081392Y-187271503D01*
X175093402Y-187305464D01*
X175100833Y-187344058D01*
X175103217Y-187375887D01*
X175103378Y-187387023D01*
X175101828Y-187418316D01*
X175094159Y-187459865D01*
X175080982Y-187495309D01*
X175063313Y-187525056D01*
X175042169Y-187549512D01*
X175018565Y-187569087D01*
X174985026Y-187588299D01*
X174951331Y-187600524D01*
X174919891Y-187606729D01*
X174899240Y-187608014D01*
X174865090Y-187604613D01*
X174831131Y-187594679D01*
X174798707Y-187578617D01*
X174769163Y-187556833D01*
X174743843Y-187529733D01*
X174724093Y-187497720D01*
X174711257Y-187461202D01*
X174706976Y-187431099D01*
X174706679Y-187420582D01*
X174709066Y-187390367D01*
X174714346Y-187361081D01*
X174719282Y-187334120D01*
X174701697Y-187315656D01*
X174672497Y-187324119D01*
X174642568Y-187332358D01*
X174636044Y-187334120D01*
X174623588Y-187353464D01*
G37*
G36*
X160041973Y-187609319D02*
G01*
X160060457Y-187586197D01*
X160088809Y-187574885D01*
X160118344Y-187575020D01*
X160119484Y-187575124D01*
X160151097Y-187578724D01*
X160181125Y-187576532D01*
X160212576Y-187566790D01*
X160239934Y-187549173D01*
X160246008Y-187543518D01*
X160264609Y-187519245D01*
X160276431Y-187491143D01*
X160281604Y-187460195D01*
X160280255Y-187427382D01*
X160272515Y-187393685D01*
X160258511Y-187360085D01*
X160238372Y-187327564D01*
X160219319Y-187304471D01*
X160212227Y-187297102D01*
X160189782Y-187277105D01*
X160157816Y-187255586D01*
X160124441Y-187240083D01*
X160090660Y-187230749D01*
X160057479Y-187227735D01*
X160025901Y-187231193D01*
X159996930Y-187241275D01*
X159971571Y-187258133D01*
X159965914Y-187263424D01*
X159946948Y-187288546D01*
X159935240Y-187317881D01*
X159930641Y-187350316D01*
X159932244Y-187379740D01*
X159937417Y-187404870D01*
X159939342Y-187436266D01*
X159926348Y-187464971D01*
X159906745Y-187478857D01*
X159876622Y-187482763D01*
X159849315Y-187471567D01*
X159833690Y-187448496D01*
X159833690Y-187447252D01*
X159825249Y-187411996D01*
X159821169Y-187376693D01*
X159821488Y-187341771D01*
X159826242Y-187307658D01*
X159835470Y-187274785D01*
X159849209Y-187243579D01*
X159867497Y-187214468D01*
X159890372Y-187187883D01*
X159921488Y-187161737D01*
X159955925Y-187141724D01*
X159993006Y-187127784D01*
X160032058Y-187119859D01*
X160072406Y-187117889D01*
X160113374Y-187121816D01*
X160154289Y-187131581D01*
X160194476Y-187147125D01*
X160220530Y-187160669D01*
X160245759Y-187176737D01*
X160269966Y-187195313D01*
X160292949Y-187216379D01*
X160314128Y-187239489D01*
X160332774Y-187263803D01*
X160348876Y-187289121D01*
X160362422Y-187315246D01*
X160377925Y-187355506D01*
X160387613Y-187396456D01*
X160391447Y-187437424D01*
X160389388Y-187477735D01*
X160381397Y-187516717D01*
X160367436Y-187553697D01*
X160347465Y-187588001D01*
X160321446Y-187618956D01*
X160296035Y-187640929D01*
X160268175Y-187658749D01*
X160238263Y-187672434D01*
X160206696Y-187681998D01*
X160173870Y-187687458D01*
X160140184Y-187688829D01*
X160106034Y-187686128D01*
X160071817Y-187679369D01*
X160046736Y-187662296D01*
X160037470Y-187632141D01*
X160041973Y-187609319D01*
G37*
G36*
X159936277Y-187917496D02*
G01*
X159951713Y-187943182D01*
X159952759Y-187975012D01*
X159938958Y-188001330D01*
X159936795Y-188003607D01*
X159910968Y-188018901D01*
X159878856Y-188019666D01*
X159852435Y-188005762D01*
X159850166Y-188003607D01*
X159505618Y-187659059D01*
X159489559Y-187632973D01*
X159491227Y-187603124D01*
X159505618Y-187581963D01*
X159532129Y-187564787D01*
X159561869Y-187563741D01*
X159591729Y-187570668D01*
X159621982Y-187571311D01*
X159650808Y-187564776D01*
X159675561Y-187554606D01*
X159705171Y-187548496D01*
X159734908Y-187556327D01*
X159742709Y-187562274D01*
X159754288Y-187590175D01*
X159746854Y-187619889D01*
X159727344Y-187642994D01*
X159708202Y-187662064D01*
X159711258Y-187692296D01*
X159717735Y-187698954D01*
X159936277Y-187917496D01*
G37*
G36*
X159350377Y-187839918D02*
G01*
X159389478Y-187845712D01*
X159428826Y-187857044D01*
X159467776Y-187873825D01*
X159505682Y-187895966D01*
X159530055Y-187913661D01*
X159553485Y-187933674D01*
X159564787Y-187944541D01*
X159586068Y-187967548D01*
X159605014Y-187991562D01*
X159621602Y-188016395D01*
X159642013Y-188054768D01*
X159656990Y-188093925D01*
X159666455Y-188133231D01*
X159670331Y-188172053D01*
X159668540Y-188209755D01*
X159661006Y-188245702D01*
X159647651Y-188279259D01*
X159628398Y-188309793D01*
X159612247Y-188328155D01*
X159584238Y-188351228D01*
X159552748Y-188368384D01*
X159518416Y-188379698D01*
X159481880Y-188385243D01*
X159443779Y-188385092D01*
X159404751Y-188379318D01*
X159365437Y-188367994D01*
X159326474Y-188351194D01*
X159288502Y-188328991D01*
X159264053Y-188311223D01*
X159240517Y-188291108D01*
X159229151Y-188280178D01*
X159207990Y-188257289D01*
X159189135Y-188233362D01*
X159172610Y-188208588D01*
X159152247Y-188170261D01*
X159137267Y-188131113D01*
X159127754Y-188091792D01*
X159123792Y-188052949D01*
X159124796Y-188030333D01*
X159226761Y-188030333D01*
X159228387Y-188065164D01*
X159237648Y-188093936D01*
X159253067Y-188123181D01*
X159273794Y-188152592D01*
X159298981Y-188181861D01*
X159312982Y-188196346D01*
X159334925Y-188217185D01*
X159364391Y-188241470D01*
X159393837Y-188260997D01*
X159422976Y-188274941D01*
X159451527Y-188282475D01*
X159485952Y-188281622D01*
X159518458Y-188267851D01*
X159536809Y-188252717D01*
X159556013Y-188227841D01*
X159567257Y-188194721D01*
X159565840Y-188159857D01*
X159556685Y-188131075D01*
X159541301Y-188101799D01*
X159520522Y-188072307D01*
X159495181Y-188042875D01*
X159481059Y-188028269D01*
X159459286Y-188007600D01*
X159429947Y-187983455D01*
X159400530Y-187963994D01*
X159371336Y-187950073D01*
X159342664Y-187942550D01*
X159308016Y-187943445D01*
X159275239Y-187957345D01*
X159256715Y-187972623D01*
X159237741Y-187997320D01*
X159226761Y-188030333D01*
X159124796Y-188030333D01*
X159125466Y-188015233D01*
X159132859Y-187979294D01*
X159146055Y-187945781D01*
X159165138Y-187915344D01*
X159181173Y-187897082D01*
X159209355Y-187873870D01*
X159241012Y-187856636D01*
X159275499Y-187845291D01*
X159312169Y-187839748D01*
X159350377Y-187839918D01*
G37*
G36*
X79856367Y-156310381D02*
G01*
X79889660Y-156323405D01*
X79921429Y-156342734D01*
X79950895Y-156367969D01*
X80089855Y-156506928D01*
X80105176Y-156532581D01*
X80105762Y-156564314D01*
X80091445Y-156590821D01*
X80089233Y-156593143D01*
X79742923Y-156939453D01*
X79717236Y-156954888D01*
X79685407Y-156955935D01*
X79659089Y-156942134D01*
X79656812Y-156939971D01*
X79641517Y-156914143D01*
X79640753Y-156882032D01*
X79654657Y-156855611D01*
X79656812Y-156853342D01*
X79773907Y-156736247D01*
X79777430Y-156711378D01*
X79725722Y-156658426D01*
X79702603Y-156639446D01*
X79674800Y-156626795D01*
X79643830Y-156624588D01*
X79612305Y-156634492D01*
X79587303Y-156651366D01*
X79578991Y-156659048D01*
X79520754Y-156717284D01*
X79495068Y-156732720D01*
X79463238Y-156733766D01*
X79436920Y-156719965D01*
X79434643Y-156717802D01*
X79419349Y-156691975D01*
X79418584Y-156659863D01*
X79432488Y-156633442D01*
X79434643Y-156631173D01*
X79492880Y-156572937D01*
X79517632Y-156551124D01*
X79544627Y-156533168D01*
X79573089Y-156520171D01*
X79602243Y-156513235D01*
X79636098Y-156514275D01*
X79640854Y-156515322D01*
X79655569Y-156501644D01*
X79655342Y-156500390D01*
X79735432Y-156500390D01*
X79740287Y-156531276D01*
X79755416Y-156560997D01*
X79768518Y-156576460D01*
X79836288Y-156644230D01*
X79864370Y-156647027D01*
X79957838Y-156552316D01*
X79956180Y-156524337D01*
X79888410Y-156456567D01*
X79864784Y-156438060D01*
X79834639Y-156425652D01*
X79804114Y-156423587D01*
X79775728Y-156432341D01*
X79758156Y-156445480D01*
X79741254Y-156470927D01*
X79735432Y-156500390D01*
X79655342Y-156500390D01*
X79650321Y-156472677D01*
X79650744Y-156439354D01*
X79659058Y-156406826D01*
X79673136Y-156379804D01*
X79694220Y-156353773D01*
X79723482Y-156329298D01*
X79755105Y-156313120D01*
X79788312Y-156304840D01*
X79822325Y-156304060D01*
X79856367Y-156310381D01*
G37*
G36*
X79539614Y-156153572D02*
G01*
X79517067Y-156131421D01*
X79495129Y-156110226D01*
X79473395Y-156088918D01*
X79451462Y-156066432D01*
X79438685Y-156052643D01*
X79421655Y-156026859D01*
X79422884Y-155996952D01*
X79434540Y-155980729D01*
X79462064Y-155964827D01*
X79491700Y-155967799D01*
X79510599Y-155980729D01*
X79534144Y-156003663D01*
X79557119Y-156026708D01*
X79579728Y-156049717D01*
X79602175Y-156072543D01*
X79624663Y-156095038D01*
X79647397Y-156117057D01*
X79656605Y-156125698D01*
X79671631Y-156152086D01*
X79667143Y-156181339D01*
X79664998Y-156185074D01*
X79646268Y-156213873D01*
X79629124Y-156239481D01*
X79609612Y-156267895D01*
X79590055Y-156295981D01*
X79572809Y-156320815D01*
X79553914Y-156348385D01*
X79534724Y-156372846D01*
X79508433Y-156389496D01*
X79489253Y-156390456D01*
X79460781Y-156379488D01*
X79438100Y-156357497D01*
X79430498Y-156337504D01*
X79422923Y-156308653D01*
X79407758Y-156280515D01*
X79387118Y-156255237D01*
X79378687Y-156246730D01*
X79354871Y-156229283D01*
X79324810Y-156219278D01*
X79294040Y-156220313D01*
X79264390Y-156232278D01*
X79244909Y-156247455D01*
X79226933Y-156271457D01*
X79217034Y-156299574D01*
X79215685Y-156329804D01*
X79223357Y-156360141D01*
X79240520Y-156388582D01*
X79248432Y-156397295D01*
X79274240Y-156417968D01*
X79302080Y-156430531D01*
X79332536Y-156432734D01*
X79359827Y-156422475D01*
X79388805Y-156411632D01*
X79420293Y-156415584D01*
X79439721Y-156430454D01*
X79450051Y-156459922D01*
X79443759Y-156488751D01*
X79424295Y-156514111D01*
X79421690Y-156516255D01*
X79395426Y-156532827D01*
X79367107Y-156543044D01*
X79337136Y-156546874D01*
X79305917Y-156544285D01*
X79273853Y-156535245D01*
X79241347Y-156519723D01*
X79208802Y-156497687D01*
X79184610Y-156476867D01*
X79176621Y-156469106D01*
X79155590Y-156445882D01*
X79131633Y-156411080D01*
X79115888Y-156376700D01*
X79107348Y-156343172D01*
X79105006Y-156310927D01*
X79107854Y-156280395D01*
X79117986Y-156243095D01*
X79133167Y-156210625D01*
X79151010Y-156184005D01*
X79164704Y-156168494D01*
X79191257Y-156146752D01*
X79222295Y-156129763D01*
X79256579Y-156118193D01*
X79292873Y-156112706D01*
X79329940Y-156113965D01*
X79366542Y-156122636D01*
X79401441Y-156139382D01*
X79425753Y-156157640D01*
X79433400Y-156164867D01*
X79453077Y-156187921D01*
X79470053Y-156212363D01*
X79485626Y-156234917D01*
X79511117Y-156235539D01*
X79525780Y-156208907D01*
X79541118Y-156181918D01*
X79544484Y-156176059D01*
X79539614Y-156153572D01*
G37*
G36*
X382059606Y-89180940D02*
G01*
X382082852Y-89202707D01*
X382091703Y-89231076D01*
X382091784Y-89234215D01*
X382084336Y-89263293D01*
X382062171Y-89286540D01*
X382033656Y-89295391D01*
X382030528Y-89295471D01*
X381864931Y-89295471D01*
X381844854Y-89310565D01*
X381843975Y-89384571D01*
X381846901Y-89414339D01*
X381857616Y-89442945D01*
X381877954Y-89466405D01*
X381907249Y-89481692D01*
X381936860Y-89487440D01*
X381948169Y-89487886D01*
X382030528Y-89487886D01*
X382059606Y-89495134D01*
X382082852Y-89516901D01*
X382091703Y-89545270D01*
X382091784Y-89548409D01*
X382084336Y-89577487D01*
X382062171Y-89600734D01*
X382033656Y-89609585D01*
X382030528Y-89609665D01*
X381948169Y-89609665D01*
X381915242Y-89607586D01*
X381883457Y-89601195D01*
X381854142Y-89590260D01*
X381828622Y-89574549D01*
X381805418Y-89549874D01*
X381802796Y-89545771D01*
X381782719Y-89545038D01*
X381765947Y-89569232D01*
X381742086Y-89592495D01*
X381713206Y-89609617D01*
X381684143Y-89618770D01*
X381650828Y-89622268D01*
X381612830Y-89618883D01*
X381579030Y-89607961D01*
X381549694Y-89590336D01*
X381525092Y-89566837D01*
X381505490Y-89538296D01*
X381491157Y-89505544D01*
X381482361Y-89469413D01*
X381479369Y-89430733D01*
X381479369Y-89412268D01*
X381586201Y-89412268D01*
X381589821Y-89442061D01*
X381602363Y-89472151D01*
X381622487Y-89495195D01*
X381648749Y-89509078D01*
X381670465Y-89512212D01*
X381700411Y-89506170D01*
X381725360Y-89489453D01*
X381743767Y-89464180D01*
X381754085Y-89432467D01*
X381755755Y-89412268D01*
X381755755Y-89316427D01*
X381737876Y-89294592D01*
X381604812Y-89295471D01*
X381586201Y-89316427D01*
X381586201Y-89412268D01*
X381479369Y-89412268D01*
X381479369Y-89234215D01*
X381486674Y-89205242D01*
X381508699Y-89182389D01*
X381537566Y-89173770D01*
X381540772Y-89173692D01*
X382030528Y-89173692D01*
X382059606Y-89180940D01*
G37*
G36*
X381950696Y-89699672D02*
G01*
X381985735Y-89712790D01*
X382017277Y-89733563D01*
X382044633Y-89761102D01*
X382061986Y-89785659D01*
X382076305Y-89813143D01*
X382087298Y-89843179D01*
X382094674Y-89875391D01*
X382098142Y-89909403D01*
X382098378Y-89921075D01*
X382096279Y-89955344D01*
X382090173Y-89987994D01*
X382080354Y-90018643D01*
X382067111Y-90046907D01*
X382050737Y-90072405D01*
X382031522Y-90094754D01*
X382001986Y-90118992D01*
X381968610Y-90136045D01*
X381932082Y-90145006D01*
X381912852Y-90146169D01*
X381879523Y-90142593D01*
X381848205Y-90132540D01*
X381819477Y-90117023D01*
X381793919Y-90097054D01*
X381780960Y-90084034D01*
X381751541Y-90077884D01*
X381745643Y-90082275D01*
X381719842Y-90099605D01*
X381691084Y-90113416D01*
X381662804Y-90122330D01*
X381638518Y-90125213D01*
X381606266Y-90121058D01*
X381576309Y-90109143D01*
X381549265Y-90090298D01*
X381525751Y-90065349D01*
X381506386Y-90035124D01*
X381491789Y-90000452D01*
X381484342Y-89972027D01*
X381480184Y-89941914D01*
X381479369Y-89921075D01*
X381570228Y-89921075D01*
X381575089Y-89951470D01*
X381591012Y-89980697D01*
X381615478Y-90001175D01*
X381645865Y-90009911D01*
X381649949Y-90010028D01*
X381681907Y-90002971D01*
X381707779Y-89983796D01*
X381725106Y-89955499D01*
X381731324Y-89925611D01*
X381731428Y-89921075D01*
X381817011Y-89921075D01*
X381821403Y-89954127D01*
X381833664Y-89983326D01*
X381852421Y-90007109D01*
X381880681Y-90025920D01*
X381913731Y-90032743D01*
X381943035Y-90027687D01*
X381968754Y-90013562D01*
X381989589Y-89991933D01*
X382004241Y-89964365D01*
X382011413Y-89932423D01*
X382011916Y-89921075D01*
X382007527Y-89887547D01*
X381995224Y-89858048D01*
X381976306Y-89834101D01*
X381952071Y-89817231D01*
X381923817Y-89808962D01*
X381913731Y-89808381D01*
X381880681Y-89815214D01*
X381852421Y-89834101D01*
X381833664Y-89858048D01*
X381821403Y-89887547D01*
X381817011Y-89921075D01*
X381731428Y-89921075D01*
X381726548Y-89890143D01*
X381713008Y-89863846D01*
X381689042Y-89841959D01*
X381658374Y-89831560D01*
X381649949Y-89831096D01*
X381619007Y-89838169D01*
X381593657Y-89857456D01*
X381576522Y-89886057D01*
X381570332Y-89916446D01*
X381570228Y-89921075D01*
X381479369Y-89921075D01*
X381481188Y-89889807D01*
X381486471Y-89860035D01*
X381498453Y-89823263D01*
X381515511Y-89790582D01*
X381537028Y-89762809D01*
X381562384Y-89740762D01*
X381590962Y-89725257D01*
X381622144Y-89717114D01*
X381638518Y-89716057D01*
X381671001Y-89720486D01*
X381702522Y-89731371D01*
X381728822Y-89745115D01*
X381745643Y-89758116D01*
X381775026Y-89763404D01*
X381780960Y-89757237D01*
X381804447Y-89735119D01*
X381831434Y-89716932D01*
X381861343Y-89703659D01*
X381893594Y-89696286D01*
X381912852Y-89695101D01*
X381950696Y-89699672D01*
G37*
D13*
X233191667Y-187679438D02*
X233858334Y-186727057D01*
X234334524Y-187679438D02*
X234334524Y-185679438D01*
X234334524Y-185679438D02*
X233572619Y-185679438D01*
X233572619Y-185679438D02*
X233382143Y-185774676D01*
X233382143Y-185774676D02*
X233286905Y-185869914D01*
X233286905Y-185869914D02*
X233191667Y-186060390D01*
X233191667Y-186060390D02*
X233191667Y-186346104D01*
X233191667Y-186346104D02*
X233286905Y-186536580D01*
X233286905Y-186536580D02*
X233382143Y-186631819D01*
X233382143Y-186631819D02*
X233572619Y-186727057D01*
X233572619Y-186727057D02*
X234334524Y-186727057D01*
X231572619Y-187584200D02*
X231763095Y-187679438D01*
X231763095Y-187679438D02*
X232144048Y-187679438D01*
X232144048Y-187679438D02*
X232334524Y-187584200D01*
X232334524Y-187584200D02*
X232429762Y-187393723D01*
X232429762Y-187393723D02*
X232429762Y-186631819D01*
X232429762Y-186631819D02*
X232334524Y-186441342D01*
X232334524Y-186441342D02*
X232144048Y-186346104D01*
X232144048Y-186346104D02*
X231763095Y-186346104D01*
X231763095Y-186346104D02*
X231572619Y-186441342D01*
X231572619Y-186441342D02*
X231477381Y-186631819D01*
X231477381Y-186631819D02*
X231477381Y-186822295D01*
X231477381Y-186822295D02*
X232429762Y-187012771D01*
X230620238Y-186346104D02*
X230620238Y-188346104D01*
X230620238Y-186441342D02*
X230429762Y-186346104D01*
X230429762Y-186346104D02*
X230048809Y-186346104D01*
X230048809Y-186346104D02*
X229858333Y-186441342D01*
X229858333Y-186441342D02*
X229763095Y-186536580D01*
X229763095Y-186536580D02*
X229667857Y-186727057D01*
X229667857Y-186727057D02*
X229667857Y-187298485D01*
X229667857Y-187298485D02*
X229763095Y-187488961D01*
X229763095Y-187488961D02*
X229858333Y-187584200D01*
X229858333Y-187584200D02*
X230048809Y-187679438D01*
X230048809Y-187679438D02*
X230429762Y-187679438D01*
X230429762Y-187679438D02*
X230620238Y-187584200D01*
X228525000Y-187679438D02*
X228715476Y-187584200D01*
X228715476Y-187584200D02*
X228810714Y-187393723D01*
X228810714Y-187393723D02*
X228810714Y-185679438D01*
X227763095Y-187679438D02*
X227763095Y-186346104D01*
X227763095Y-185679438D02*
X227858333Y-185774676D01*
X227858333Y-185774676D02*
X227763095Y-185869914D01*
X227763095Y-185869914D02*
X227667857Y-185774676D01*
X227667857Y-185774676D02*
X227763095Y-185679438D01*
X227763095Y-185679438D02*
X227763095Y-185869914D01*
X225953571Y-187584200D02*
X226144047Y-187679438D01*
X226144047Y-187679438D02*
X226525000Y-187679438D01*
X226525000Y-187679438D02*
X226715476Y-187584200D01*
X226715476Y-187584200D02*
X226810714Y-187488961D01*
X226810714Y-187488961D02*
X226905952Y-187298485D01*
X226905952Y-187298485D02*
X226905952Y-186727057D01*
X226905952Y-186727057D02*
X226810714Y-186536580D01*
X226810714Y-186536580D02*
X226715476Y-186441342D01*
X226715476Y-186441342D02*
X226525000Y-186346104D01*
X226525000Y-186346104D02*
X226144047Y-186346104D01*
X226144047Y-186346104D02*
X225953571Y-186441342D01*
X224239285Y-187679438D02*
X224239285Y-186631819D01*
X224239285Y-186631819D02*
X224334523Y-186441342D01*
X224334523Y-186441342D02*
X224524999Y-186346104D01*
X224524999Y-186346104D02*
X224905952Y-186346104D01*
X224905952Y-186346104D02*
X225096428Y-186441342D01*
X224239285Y-187584200D02*
X224429761Y-187679438D01*
X224429761Y-187679438D02*
X224905952Y-187679438D01*
X224905952Y-187679438D02*
X225096428Y-187584200D01*
X225096428Y-187584200D02*
X225191666Y-187393723D01*
X225191666Y-187393723D02*
X225191666Y-187203247D01*
X225191666Y-187203247D02*
X225096428Y-187012771D01*
X225096428Y-187012771D02*
X224905952Y-186917533D01*
X224905952Y-186917533D02*
X224429761Y-186917533D01*
X224429761Y-186917533D02*
X224239285Y-186822295D01*
X221763094Y-187679438D02*
X221763094Y-185679438D01*
X221763094Y-185679438D02*
X221001189Y-185679438D01*
X221001189Y-185679438D02*
X220810713Y-185774676D01*
X220810713Y-185774676D02*
X220715475Y-185869914D01*
X220715475Y-185869914D02*
X220620237Y-186060390D01*
X220620237Y-186060390D02*
X220620237Y-186346104D01*
X220620237Y-186346104D02*
X220715475Y-186536580D01*
X220715475Y-186536580D02*
X220810713Y-186631819D01*
X220810713Y-186631819D02*
X221001189Y-186727057D01*
X221001189Y-186727057D02*
X221763094Y-186727057D01*
X218620237Y-187488961D02*
X218715475Y-187584200D01*
X218715475Y-187584200D02*
X219001189Y-187679438D01*
X219001189Y-187679438D02*
X219191665Y-187679438D01*
X219191665Y-187679438D02*
X219477380Y-187584200D01*
X219477380Y-187584200D02*
X219667856Y-187393723D01*
X219667856Y-187393723D02*
X219763094Y-187203247D01*
X219763094Y-187203247D02*
X219858332Y-186822295D01*
X219858332Y-186822295D02*
X219858332Y-186536580D01*
X219858332Y-186536580D02*
X219763094Y-186155628D01*
X219763094Y-186155628D02*
X219667856Y-185965152D01*
X219667856Y-185965152D02*
X219477380Y-185774676D01*
X219477380Y-185774676D02*
X219191665Y-185679438D01*
X219191665Y-185679438D02*
X219001189Y-185679438D01*
X219001189Y-185679438D02*
X218715475Y-185774676D01*
X218715475Y-185774676D02*
X218620237Y-185869914D01*
X217096427Y-186631819D02*
X216810713Y-186727057D01*
X216810713Y-186727057D02*
X216715475Y-186822295D01*
X216715475Y-186822295D02*
X216620237Y-187012771D01*
X216620237Y-187012771D02*
X216620237Y-187298485D01*
X216620237Y-187298485D02*
X216715475Y-187488961D01*
X216715475Y-187488961D02*
X216810713Y-187584200D01*
X216810713Y-187584200D02*
X217001189Y-187679438D01*
X217001189Y-187679438D02*
X217763094Y-187679438D01*
X217763094Y-187679438D02*
X217763094Y-185679438D01*
X217763094Y-185679438D02*
X217096427Y-185679438D01*
X217096427Y-185679438D02*
X216905951Y-185774676D01*
X216905951Y-185774676D02*
X216810713Y-185869914D01*
X216810713Y-185869914D02*
X216715475Y-186060390D01*
X216715475Y-186060390D02*
X216715475Y-186250866D01*
X216715475Y-186250866D02*
X216810713Y-186441342D01*
X216810713Y-186441342D02*
X216905951Y-186536580D01*
X216905951Y-186536580D02*
X217096427Y-186631819D01*
X217096427Y-186631819D02*
X217763094Y-186631819D01*
X234667857Y-184529438D02*
X234667857Y-182529438D01*
X233525000Y-184529438D02*
X234382143Y-183386580D01*
X233525000Y-182529438D02*
X234667857Y-183672295D01*
X231905952Y-184434200D02*
X232096428Y-184529438D01*
X232096428Y-184529438D02*
X232477381Y-184529438D01*
X232477381Y-184529438D02*
X232667857Y-184434200D01*
X232667857Y-184434200D02*
X232763095Y-184243723D01*
X232763095Y-184243723D02*
X232763095Y-183481819D01*
X232763095Y-183481819D02*
X232667857Y-183291342D01*
X232667857Y-183291342D02*
X232477381Y-183196104D01*
X232477381Y-183196104D02*
X232096428Y-183196104D01*
X232096428Y-183196104D02*
X231905952Y-183291342D01*
X231905952Y-183291342D02*
X231810714Y-183481819D01*
X231810714Y-183481819D02*
X231810714Y-183672295D01*
X231810714Y-183672295D02*
X232763095Y-183862771D01*
X231144047Y-183196104D02*
X230667857Y-184529438D01*
X230191666Y-183196104D02*
X230667857Y-184529438D01*
X230667857Y-184529438D02*
X230858333Y-185005628D01*
X230858333Y-185005628D02*
X230953571Y-185100866D01*
X230953571Y-185100866D02*
X231144047Y-185196104D01*
X228572618Y-184434200D02*
X228763094Y-184529438D01*
X228763094Y-184529438D02*
X229144047Y-184529438D01*
X229144047Y-184529438D02*
X229334523Y-184434200D01*
X229334523Y-184434200D02*
X229429761Y-184338961D01*
X229429761Y-184338961D02*
X229524999Y-184148485D01*
X229524999Y-184148485D02*
X229524999Y-183577057D01*
X229524999Y-183577057D02*
X229429761Y-183386580D01*
X229429761Y-183386580D02*
X229334523Y-183291342D01*
X229334523Y-183291342D02*
X229144047Y-183196104D01*
X229144047Y-183196104D02*
X228763094Y-183196104D01*
X228763094Y-183196104D02*
X228572618Y-183291342D01*
X226858332Y-183196104D02*
X226858332Y-184529438D01*
X227715475Y-183196104D02*
X227715475Y-184243723D01*
X227715475Y-184243723D02*
X227620237Y-184434200D01*
X227620237Y-184434200D02*
X227429761Y-184529438D01*
X227429761Y-184529438D02*
X227144046Y-184529438D01*
X227144046Y-184529438D02*
X226953570Y-184434200D01*
X226953570Y-184434200D02*
X226858332Y-184338961D01*
X225620237Y-184529438D02*
X225810713Y-184434200D01*
X225810713Y-184434200D02*
X225905951Y-184243723D01*
X225905951Y-184243723D02*
X225905951Y-182529438D01*
X225144046Y-183196104D02*
X224382142Y-183196104D01*
X224858332Y-182529438D02*
X224858332Y-184243723D01*
X224858332Y-184243723D02*
X224763094Y-184434200D01*
X224763094Y-184434200D02*
X224572618Y-184529438D01*
X224572618Y-184529438D02*
X224382142Y-184529438D01*
X222191665Y-184529438D02*
X222191665Y-182529438D01*
X222191665Y-182529438D02*
X221048808Y-184529438D01*
X221048808Y-184529438D02*
X221048808Y-182529438D01*
X219810713Y-184529438D02*
X220001189Y-184434200D01*
X220001189Y-184434200D02*
X220096427Y-184338961D01*
X220096427Y-184338961D02*
X220191665Y-184148485D01*
X220191665Y-184148485D02*
X220191665Y-183577057D01*
X220191665Y-183577057D02*
X220096427Y-183386580D01*
X220096427Y-183386580D02*
X220001189Y-183291342D01*
X220001189Y-183291342D02*
X219810713Y-183196104D01*
X219810713Y-183196104D02*
X219524998Y-183196104D01*
X219524998Y-183196104D02*
X219334522Y-183291342D01*
X219334522Y-183291342D02*
X219239284Y-183386580D01*
X219239284Y-183386580D02*
X219144046Y-183577057D01*
X219144046Y-183577057D02*
X219144046Y-184148485D01*
X219144046Y-184148485D02*
X219239284Y-184338961D01*
X219239284Y-184338961D02*
X219334522Y-184434200D01*
X219334522Y-184434200D02*
X219524998Y-184529438D01*
X219524998Y-184529438D02*
X219810713Y-184529438D01*
X218286903Y-184338961D02*
X218191665Y-184434200D01*
X218191665Y-184434200D02*
X218286903Y-184529438D01*
X218286903Y-184529438D02*
X218382141Y-184434200D01*
X218382141Y-184434200D02*
X218286903Y-184338961D01*
X218286903Y-184338961D02*
X218286903Y-184529438D01*
X217429760Y-182719914D02*
X217334522Y-182624676D01*
X217334522Y-182624676D02*
X217144046Y-182529438D01*
X217144046Y-182529438D02*
X216667855Y-182529438D01*
X216667855Y-182529438D02*
X216477379Y-182624676D01*
X216477379Y-182624676D02*
X216382141Y-182719914D01*
X216382141Y-182719914D02*
X216286903Y-182910390D01*
X216286903Y-182910390D02*
X216286903Y-183100866D01*
X216286903Y-183100866D02*
X216382141Y-183386580D01*
X216382141Y-183386580D02*
X217524998Y-184529438D01*
X217524998Y-184529438D02*
X216286903Y-184529438D01*
D12*
G36*
X148334757Y-189341675D02*
G01*
X148357610Y-189363700D01*
X148366229Y-189392567D01*
X148366307Y-189395773D01*
X148366307Y-189885529D01*
X148359059Y-189914607D01*
X148337292Y-189937853D01*
X148308923Y-189946704D01*
X148305784Y-189946785D01*
X148276706Y-189939337D01*
X148253459Y-189917172D01*
X148244608Y-189888657D01*
X148244528Y-189885529D01*
X148244528Y-189719932D01*
X148229434Y-189699855D01*
X148155428Y-189698976D01*
X148125660Y-189701902D01*
X148097054Y-189712617D01*
X148073594Y-189732955D01*
X148058307Y-189762250D01*
X148052559Y-189791861D01*
X148052113Y-189803170D01*
X148052113Y-189885529D01*
X148044865Y-189914607D01*
X148023098Y-189937853D01*
X147994729Y-189946704D01*
X147991590Y-189946785D01*
X147962512Y-189939337D01*
X147939265Y-189917172D01*
X147930414Y-189888657D01*
X147930334Y-189885529D01*
X147930334Y-189803170D01*
X147932413Y-189770243D01*
X147938804Y-189738458D01*
X147949739Y-189709143D01*
X147965450Y-189683623D01*
X147990125Y-189660419D01*
X147994228Y-189657797D01*
X147994961Y-189637720D01*
X147970767Y-189620948D01*
X147947504Y-189597087D01*
X147930382Y-189568207D01*
X147921229Y-189539144D01*
X147919793Y-189525466D01*
X148027787Y-189525466D01*
X148033829Y-189555412D01*
X148050546Y-189580361D01*
X148075819Y-189598768D01*
X148107532Y-189609086D01*
X148127731Y-189610756D01*
X148223572Y-189610756D01*
X148245407Y-189592877D01*
X148244528Y-189459813D01*
X148223572Y-189441202D01*
X148127731Y-189441202D01*
X148097938Y-189444822D01*
X148067848Y-189457364D01*
X148044804Y-189477488D01*
X148030921Y-189503750D01*
X148027787Y-189525466D01*
X147919793Y-189525466D01*
X147917731Y-189505829D01*
X147921116Y-189467831D01*
X147932038Y-189434031D01*
X147949663Y-189404695D01*
X147973162Y-189380093D01*
X148001703Y-189360491D01*
X148034455Y-189346158D01*
X148070586Y-189337362D01*
X148109266Y-189334370D01*
X148305784Y-189334370D01*
X148334757Y-189341675D01*
G37*
G36*
X147571569Y-189365807D02*
G01*
X147596604Y-189383475D01*
X147620046Y-189408529D01*
X147640760Y-189433875D01*
X147659444Y-189457421D01*
X147682537Y-189486738D01*
X147704119Y-189514256D01*
X147724809Y-189540604D01*
X147745227Y-189566410D01*
X147765993Y-189592302D01*
X147787727Y-189618910D01*
X147811049Y-189646862D01*
X147817201Y-189654133D01*
X147835202Y-189677351D01*
X147848298Y-189704195D01*
X147851639Y-189727259D01*
X147845159Y-189759758D01*
X147827495Y-189787105D01*
X147801314Y-189805961D01*
X147769280Y-189812989D01*
X147608959Y-189812989D01*
X147587883Y-189833717D01*
X147587857Y-189834824D01*
X147587857Y-189881865D01*
X147580612Y-189910943D01*
X147558882Y-189934190D01*
X147530606Y-189943041D01*
X147527480Y-189943121D01*
X147498303Y-189935673D01*
X147475015Y-189913508D01*
X147466158Y-189884993D01*
X147466077Y-189881865D01*
X147466077Y-189833945D01*
X147445336Y-189813015D01*
X147444242Y-189812989D01*
X147434130Y-189812989D01*
X147405390Y-189804295D01*
X147386052Y-189779433D01*
X147382986Y-189761698D01*
X147391633Y-189732633D01*
X147414083Y-189713660D01*
X147434130Y-189709527D01*
X147445121Y-189709527D01*
X147466050Y-189688799D01*
X147466077Y-189687692D01*
X147466077Y-189686080D01*
X147574521Y-189686080D01*
X147593090Y-189709073D01*
X147597968Y-189709527D01*
X147709636Y-189709527D01*
X147722239Y-189685201D01*
X147607201Y-189530449D01*
X147577213Y-189530874D01*
X147574521Y-189541293D01*
X147574521Y-189686080D01*
X147466077Y-189686080D01*
X147466077Y-189426255D01*
X147473322Y-189395505D01*
X147492881Y-189373570D01*
X147521485Y-189361680D01*
X147540083Y-189359869D01*
X147571569Y-189365807D01*
G37*
G36*
X167386489Y-193228947D02*
G01*
X167415909Y-193225668D01*
X167443956Y-193237717D01*
X167464745Y-193258696D01*
X167465477Y-193259575D01*
X167485286Y-193284475D01*
X167508069Y-193304158D01*
X167537196Y-193319509D01*
X167568999Y-193326397D01*
X167577292Y-193326693D01*
X167607609Y-193322682D01*
X167635839Y-193311171D01*
X167661380Y-193292945D01*
X167683629Y-193268789D01*
X167701983Y-193239488D01*
X167715839Y-193205827D01*
X167724595Y-193168591D01*
X167727452Y-193138789D01*
X167727648Y-193128563D01*
X167725917Y-193098552D01*
X167718530Y-193060733D01*
X167705892Y-193026171D01*
X167688606Y-192995684D01*
X167667275Y-192970091D01*
X167642500Y-192950207D01*
X167614885Y-192936851D01*
X167585034Y-192930839D01*
X167577292Y-192930580D01*
X167546117Y-192934933D01*
X167517096Y-192947398D01*
X167490909Y-192967081D01*
X167471236Y-192989020D01*
X167457124Y-193010448D01*
X167436285Y-193034009D01*
X167406800Y-193045118D01*
X167383119Y-193041076D01*
X167359057Y-193022538D01*
X167347665Y-192995311D01*
X167352930Y-192967949D01*
X167353810Y-192967070D01*
X167372771Y-192936172D01*
X167394849Y-192908323D01*
X167419768Y-192883855D01*
X167447251Y-192863096D01*
X167477021Y-192846376D01*
X167508802Y-192834025D01*
X167542318Y-192826372D01*
X167577292Y-192823748D01*
X167617782Y-192827263D01*
X167656284Y-192837462D01*
X167692361Y-192853825D01*
X167725579Y-192875835D01*
X167755502Y-192902972D01*
X167781694Y-192934718D01*
X167803721Y-192970555D01*
X167821146Y-193009962D01*
X167829992Y-193037962D01*
X167836470Y-193067164D01*
X167840451Y-193097416D01*
X167841807Y-193128563D01*
X167840441Y-193159880D01*
X167836434Y-193190257D01*
X167829916Y-193219546D01*
X167821023Y-193247597D01*
X167803516Y-193287028D01*
X167781410Y-193322834D01*
X167755153Y-193354514D01*
X167725193Y-193381562D01*
X167691978Y-193403477D01*
X167655957Y-193419753D01*
X167617579Y-193429888D01*
X167577292Y-193433378D01*
X167543787Y-193430947D01*
X167511486Y-193423848D01*
X167480658Y-193412374D01*
X167451574Y-193396815D01*
X167424502Y-193377465D01*
X167399713Y-193354615D01*
X167377475Y-193328556D01*
X167358059Y-193299582D01*
X167352397Y-193269775D01*
X167367168Y-193241900D01*
X167386489Y-193228947D01*
G37*
G36*
X166869476Y-193377105D02*
G01*
X166878654Y-193348145D01*
X166902377Y-193330838D01*
X166931758Y-193325667D01*
X166972965Y-193325903D01*
X167008460Y-193326471D01*
X167038605Y-193327163D01*
X167071103Y-193327917D01*
X167100564Y-193327893D01*
X167129602Y-193319529D01*
X167130767Y-193314237D01*
X167114494Y-193288796D01*
X167093196Y-193267562D01*
X167067462Y-193245648D01*
X167040741Y-193226161D01*
X167024082Y-193216051D01*
X166996875Y-193199289D01*
X166972145Y-193179939D01*
X166950156Y-193158243D01*
X166931172Y-193134443D01*
X166915458Y-193108782D01*
X166903278Y-193081502D01*
X166894897Y-193052844D01*
X166890579Y-193023050D01*
X166891649Y-192991778D01*
X166899113Y-192958483D01*
X166912755Y-192925085D01*
X166932362Y-192893504D01*
X166957719Y-192865660D01*
X166988611Y-192843472D01*
X167024823Y-192828862D01*
X167055344Y-192824031D01*
X167066140Y-192823748D01*
X167103502Y-192825812D01*
X167135961Y-192831201D01*
X167172261Y-192842976D01*
X167201402Y-192859263D01*
X167224273Y-192879260D01*
X167245399Y-192908257D01*
X167259856Y-192940239D01*
X167267787Y-192966923D01*
X167268115Y-192996619D01*
X167253401Y-193023384D01*
X167223970Y-193034481D01*
X167195608Y-193026529D01*
X167178623Y-193001554D01*
X167167055Y-192969113D01*
X167151484Y-192943535D01*
X167121905Y-192925406D01*
X167082730Y-192920125D01*
X167070244Y-192920468D01*
X167040514Y-192931201D01*
X167017194Y-192951866D01*
X167002517Y-192977543D01*
X166997086Y-193010083D01*
X167000634Y-193035360D01*
X167015384Y-193068842D01*
X167033848Y-193093982D01*
X167056286Y-193117524D01*
X167080898Y-193139346D01*
X167105885Y-193159323D01*
X167129446Y-193177333D01*
X167154151Y-193196888D01*
X167161835Y-193203741D01*
X167185245Y-193225786D01*
X167209833Y-193250010D01*
X167233493Y-193276404D01*
X167254118Y-193304957D01*
X167269602Y-193335659D01*
X167277838Y-193368501D01*
X167278632Y-193382234D01*
X167269013Y-193410723D01*
X167244492Y-193428099D01*
X167214738Y-193433378D01*
X166931758Y-193433378D01*
X166902377Y-193427116D01*
X166878654Y-193407451D01*
X166869476Y-193377105D01*
G37*
D14*
X178853628Y-178698809D02*
X179329819Y-178698809D01*
X178329819Y-178365476D02*
X178853628Y-178698809D01*
X178853628Y-178698809D02*
X178329819Y-179032142D01*
X179329819Y-179889285D02*
X179329819Y-179317857D01*
X179329819Y-179603571D02*
X178329819Y-179603571D01*
X178329819Y-179603571D02*
X178472676Y-179508333D01*
X178472676Y-179508333D02*
X178567914Y-179413095D01*
X178567914Y-179413095D02*
X178615533Y-179317857D01*
D12*
G36*
X173162106Y-177840940D02*
G01*
X173185352Y-177862707D01*
X173194203Y-177891076D01*
X173194284Y-177894215D01*
X173186836Y-177923293D01*
X173164671Y-177946540D01*
X173136156Y-177955391D01*
X173133028Y-177955471D01*
X172967431Y-177955471D01*
X172947354Y-177970565D01*
X172946475Y-178044571D01*
X172949401Y-178074339D01*
X172960116Y-178102945D01*
X172980454Y-178126405D01*
X173009749Y-178141692D01*
X173039360Y-178147440D01*
X173050669Y-178147886D01*
X173133028Y-178147886D01*
X173162106Y-178155134D01*
X173185352Y-178176901D01*
X173194203Y-178205270D01*
X173194284Y-178208409D01*
X173186836Y-178237487D01*
X173164671Y-178260734D01*
X173136156Y-178269585D01*
X173133028Y-178269665D01*
X173050669Y-178269665D01*
X173017742Y-178267586D01*
X172985957Y-178261195D01*
X172956642Y-178250260D01*
X172931122Y-178234549D01*
X172907918Y-178209874D01*
X172905296Y-178205771D01*
X172885219Y-178205038D01*
X172868447Y-178229232D01*
X172844586Y-178252495D01*
X172815706Y-178269617D01*
X172786643Y-178278770D01*
X172753328Y-178282268D01*
X172715330Y-178278883D01*
X172681530Y-178267961D01*
X172652194Y-178250336D01*
X172627592Y-178226837D01*
X172607990Y-178198296D01*
X172593657Y-178165544D01*
X172584861Y-178129413D01*
X172581869Y-178090733D01*
X172581869Y-178072268D01*
X172688701Y-178072268D01*
X172692321Y-178102061D01*
X172704863Y-178132151D01*
X172724987Y-178155195D01*
X172751249Y-178169078D01*
X172772965Y-178172212D01*
X172802911Y-178166170D01*
X172827860Y-178149453D01*
X172846267Y-178124180D01*
X172856585Y-178092467D01*
X172858255Y-178072268D01*
X172858255Y-177976427D01*
X172840376Y-177954592D01*
X172707312Y-177955471D01*
X172688701Y-177976427D01*
X172688701Y-178072268D01*
X172581869Y-178072268D01*
X172581869Y-177894215D01*
X172589174Y-177865242D01*
X172611199Y-177842389D01*
X172640066Y-177833770D01*
X172643272Y-177833692D01*
X173133028Y-177833692D01*
X173162106Y-177840940D01*
G37*
G36*
X172946404Y-178360600D02*
G01*
X172978975Y-178364562D01*
X173008995Y-178370585D01*
X173049308Y-178383291D01*
X173084047Y-178400144D01*
X173113311Y-178420847D01*
X173137197Y-178445108D01*
X173155806Y-178472632D01*
X173169235Y-178503126D01*
X173177583Y-178536294D01*
X173180948Y-178571842D01*
X173181012Y-178583070D01*
X173178409Y-178615404D01*
X173171798Y-178645549D01*
X173161411Y-178673287D01*
X173142092Y-178706154D01*
X173117028Y-178733843D01*
X173086773Y-178755842D01*
X173051879Y-178771638D01*
X173022997Y-178779104D01*
X172992051Y-178782575D01*
X172964802Y-178782247D01*
X172928192Y-178776957D01*
X172892640Y-178765912D01*
X172859645Y-178748885D01*
X172830706Y-178725650D01*
X172807321Y-178695980D01*
X172794331Y-178669369D01*
X172785941Y-178638915D01*
X172782784Y-178604522D01*
X172783308Y-178579316D01*
X172873495Y-178579316D01*
X172873748Y-178585823D01*
X172879712Y-178614931D01*
X172895466Y-178642536D01*
X172917901Y-178662467D01*
X172948708Y-178676470D01*
X172980181Y-178681019D01*
X172988893Y-178680633D01*
X173021033Y-178673157D01*
X173047688Y-178659048D01*
X173070093Y-178637696D01*
X173085001Y-178608974D01*
X173089357Y-178579316D01*
X173088842Y-178569876D01*
X173079319Y-178537903D01*
X173062397Y-178513617D01*
X173038325Y-178494316D01*
X173007991Y-178481993D01*
X172978569Y-178478493D01*
X172947000Y-178483477D01*
X172919344Y-178497102D01*
X172897008Y-178517372D01*
X172879554Y-178546761D01*
X172873495Y-178579316D01*
X172783308Y-178579316D01*
X172783314Y-178579040D01*
X172786809Y-178544608D01*
X172794583Y-178511221D01*
X172803007Y-178482743D01*
X172784027Y-178484711D01*
X172755647Y-178495087D01*
X172729856Y-178509822D01*
X172706430Y-178529805D01*
X172689411Y-178554769D01*
X172682839Y-178584445D01*
X172684255Y-178606506D01*
X172694238Y-178636862D01*
X172715502Y-178658983D01*
X172739992Y-178677648D01*
X172749012Y-178687850D01*
X172758788Y-178716202D01*
X172751716Y-178744766D01*
X172746325Y-178752325D01*
X172720007Y-178765266D01*
X172690460Y-178761619D01*
X172663532Y-178748377D01*
X172639849Y-178729160D01*
X172619950Y-178704025D01*
X172604377Y-178673029D01*
X172595395Y-178644050D01*
X172589803Y-178611386D01*
X172587878Y-178575066D01*
X172589416Y-178552375D01*
X172597227Y-178520106D01*
X172611135Y-178490148D01*
X172630571Y-178462712D01*
X172654964Y-178438013D01*
X172683744Y-178416262D01*
X172716341Y-178397674D01*
X172752185Y-178382462D01*
X172790706Y-178370837D01*
X172831332Y-178363014D01*
X172873495Y-178359205D01*
X172911254Y-178358785D01*
X172946404Y-178360600D01*
G37*
G36*
X149384757Y-189341675D02*
G01*
X149407610Y-189363700D01*
X149416229Y-189392567D01*
X149416307Y-189395773D01*
X149416307Y-189885529D01*
X149409059Y-189914607D01*
X149387292Y-189937853D01*
X149358923Y-189946704D01*
X149355784Y-189946785D01*
X149326706Y-189939337D01*
X149303459Y-189917172D01*
X149294608Y-189888657D01*
X149294528Y-189885529D01*
X149294528Y-189719932D01*
X149279434Y-189699855D01*
X149205428Y-189698976D01*
X149175660Y-189701902D01*
X149147054Y-189712617D01*
X149123594Y-189732955D01*
X149108307Y-189762250D01*
X149102559Y-189791861D01*
X149102113Y-189803170D01*
X149102113Y-189885529D01*
X149094865Y-189914607D01*
X149073098Y-189937853D01*
X149044729Y-189946704D01*
X149041590Y-189946785D01*
X149012512Y-189939337D01*
X148989265Y-189917172D01*
X148980414Y-189888657D01*
X148980334Y-189885529D01*
X148980334Y-189803170D01*
X148982413Y-189770243D01*
X148988804Y-189738458D01*
X148999739Y-189709143D01*
X149015450Y-189683623D01*
X149040125Y-189660419D01*
X149044228Y-189657797D01*
X149044961Y-189637720D01*
X149020767Y-189620948D01*
X148997504Y-189597087D01*
X148980382Y-189568207D01*
X148971229Y-189539144D01*
X148969793Y-189525466D01*
X149077787Y-189525466D01*
X149083829Y-189555412D01*
X149100546Y-189580361D01*
X149125819Y-189598768D01*
X149157532Y-189609086D01*
X149177731Y-189610756D01*
X149273572Y-189610756D01*
X149295407Y-189592877D01*
X149294528Y-189459813D01*
X149273572Y-189441202D01*
X149177731Y-189441202D01*
X149147938Y-189444822D01*
X149117848Y-189457364D01*
X149094804Y-189477488D01*
X149080921Y-189503750D01*
X149077787Y-189525466D01*
X148969793Y-189525466D01*
X148967731Y-189505829D01*
X148971116Y-189467831D01*
X148982038Y-189434031D01*
X148999663Y-189404695D01*
X149023162Y-189380093D01*
X149051703Y-189360491D01*
X149084455Y-189346158D01*
X149120586Y-189337362D01*
X149159266Y-189334370D01*
X149355784Y-189334370D01*
X149384757Y-189341675D01*
G37*
G36*
X148842874Y-189525613D02*
G01*
X148812818Y-189530627D01*
X148784118Y-189517488D01*
X148768136Y-189498795D01*
X148751449Y-189474284D01*
X148729330Y-189453813D01*
X148701426Y-189441971D01*
X148679036Y-189439590D01*
X148647988Y-189442364D01*
X148618126Y-189453729D01*
X148597655Y-189477612D01*
X148593307Y-189502165D01*
X148600062Y-189530700D01*
X148619434Y-189556804D01*
X148643804Y-189573490D01*
X148668192Y-189582179D01*
X148695273Y-189595605D01*
X148709221Y-189622993D01*
X148709371Y-189626436D01*
X148697586Y-189653626D01*
X148670037Y-189667815D01*
X148668192Y-189668201D01*
X148638882Y-189679536D01*
X148614211Y-189696814D01*
X148593596Y-189721035D01*
X148582766Y-189751679D01*
X148585345Y-189781744D01*
X148587445Y-189788222D01*
X148603008Y-189813854D01*
X148629513Y-189833258D01*
X148657369Y-189842934D01*
X148686811Y-189847059D01*
X148699259Y-189847427D01*
X148729255Y-189840550D01*
X148756749Y-189825124D01*
X148780545Y-189804024D01*
X148794954Y-189783240D01*
X148811020Y-189758433D01*
X148837097Y-189744270D01*
X148859727Y-189744845D01*
X148884143Y-189763414D01*
X148891216Y-189794716D01*
X148885665Y-189822368D01*
X148872223Y-189848770D01*
X148853357Y-189872429D01*
X148830101Y-189893117D01*
X148803490Y-189910606D01*
X148774557Y-189924668D01*
X148744336Y-189935073D01*
X148713861Y-189941593D01*
X148684165Y-189944001D01*
X148649774Y-189941198D01*
X148614542Y-189932348D01*
X148580141Y-189917779D01*
X148548244Y-189897820D01*
X148520523Y-189872798D01*
X148498652Y-189843042D01*
X148484302Y-189808879D01*
X148479148Y-189770637D01*
X148481797Y-189735633D01*
X148492295Y-189699934D01*
X148508468Y-189674673D01*
X148532857Y-189654280D01*
X148561808Y-189640295D01*
X148587031Y-189624635D01*
X148587445Y-189622333D01*
X148562199Y-189605946D01*
X148536372Y-189591065D01*
X148515317Y-189569751D01*
X148499296Y-189536559D01*
X148493007Y-189499075D01*
X148492630Y-189487950D01*
X148495932Y-189458344D01*
X148509566Y-189424909D01*
X148527260Y-189401528D01*
X148550260Y-189381591D01*
X148577893Y-189365516D01*
X148609488Y-189353720D01*
X148644374Y-189346620D01*
X148672295Y-189344629D01*
X148701596Y-189345971D01*
X148736784Y-189352446D01*
X148769436Y-189363607D01*
X148798551Y-189378768D01*
X148823125Y-189397241D01*
X148845207Y-189422812D01*
X148850494Y-189431970D01*
X148862692Y-189461334D01*
X148867024Y-189490824D01*
X148854736Y-189517886D01*
X148842874Y-189525613D01*
G37*
G36*
X165495764Y-189851005D02*
G01*
X165511951Y-189862555D01*
X165516653Y-189884296D01*
X165511618Y-189908931D01*
X165511342Y-189909898D01*
X165503072Y-189936843D01*
X165499895Y-189961501D01*
X165502771Y-189986086D01*
X165512892Y-190005948D01*
X165516592Y-190010067D01*
X165533720Y-190021522D01*
X165555167Y-190026691D01*
X165580095Y-190025843D01*
X165607664Y-190019251D01*
X165637035Y-190007184D01*
X165667369Y-189989914D01*
X165697827Y-189967711D01*
X165720247Y-189947985D01*
X165727569Y-189940847D01*
X165747974Y-189918810D01*
X165771235Y-189888585D01*
X165789716Y-189858189D01*
X165803125Y-189828483D01*
X165811166Y-189800329D01*
X165813547Y-189774591D01*
X165809974Y-189752129D01*
X165800152Y-189733806D01*
X165796686Y-189729973D01*
X165778912Y-189718355D01*
X165756417Y-189713488D01*
X165730155Y-189715061D01*
X165705368Y-189721301D01*
X165683564Y-189729800D01*
X165657080Y-189736637D01*
X165635325Y-189730593D01*
X165627020Y-189716571D01*
X165628786Y-189692120D01*
X165642667Y-189667498D01*
X165664497Y-189650632D01*
X165665533Y-189650425D01*
X165696320Y-189637515D01*
X165726420Y-189628231D01*
X165755468Y-189622676D01*
X165783103Y-189620952D01*
X165808959Y-189623163D01*
X165832675Y-189629412D01*
X165853885Y-189639800D01*
X165872228Y-189654431D01*
X165888830Y-189676004D01*
X165899768Y-189701365D01*
X165905204Y-189729943D01*
X165905300Y-189761166D01*
X165900217Y-189794460D01*
X165890116Y-189829255D01*
X165875160Y-189864979D01*
X165855509Y-189901058D01*
X165839880Y-189925027D01*
X165822284Y-189948730D01*
X165802770Y-189971998D01*
X165781384Y-189994662D01*
X165758597Y-190016162D01*
X165735227Y-190035753D01*
X165711445Y-190053391D01*
X165687417Y-190069034D01*
X165651283Y-190088663D01*
X165615543Y-190103561D01*
X165580764Y-190113584D01*
X165547515Y-190118587D01*
X165516361Y-190118425D01*
X165487872Y-190112954D01*
X165462614Y-190102029D01*
X165441154Y-190085505D01*
X165427079Y-190067992D01*
X165416872Y-190047745D01*
X165410453Y-190025099D01*
X165407744Y-190000387D01*
X165408665Y-189973942D01*
X165413137Y-189946099D01*
X165421080Y-189917190D01*
X165432415Y-189887550D01*
X165450823Y-189863804D01*
X165477496Y-189851056D01*
X165495764Y-189851005D01*
G37*
G36*
X165256566Y-189814288D02*
G01*
X165232588Y-189831432D01*
X165205889Y-189837609D01*
X165186257Y-189830494D01*
X165184720Y-189829071D01*
X165176280Y-189810097D01*
X165180994Y-189783466D01*
X165196985Y-189759130D01*
X165199159Y-189756880D01*
X165543707Y-189412332D01*
X165568121Y-189394602D01*
X165592718Y-189391018D01*
X165607953Y-189399483D01*
X165617848Y-189418713D01*
X165613763Y-189443322D01*
X165603014Y-189469360D01*
X165597436Y-189494678D01*
X165598077Y-189517610D01*
X165602427Y-189536542D01*
X165602584Y-189560199D01*
X165591102Y-189586285D01*
X165584845Y-189593777D01*
X165559665Y-189608077D01*
X165536142Y-189606834D01*
X165520139Y-189594427D01*
X165507439Y-189581653D01*
X165481735Y-189589239D01*
X165475108Y-189595746D01*
X165256566Y-189814288D01*
G37*
G36*
X164909911Y-189474679D02*
G01*
X164934715Y-189458528D01*
X164958136Y-189457473D01*
X164975643Y-189467667D01*
X164994901Y-189487259D01*
X165011232Y-189504393D01*
X165024954Y-189519093D01*
X165039740Y-189534946D01*
X165053645Y-189548817D01*
X165073248Y-189556591D01*
X165077539Y-189553399D01*
X165087858Y-189527738D01*
X165092832Y-189502683D01*
X165096197Y-189475057D01*
X165097380Y-189448681D01*
X165096675Y-189433679D01*
X165095702Y-189409001D01*
X165097727Y-189383661D01*
X165102702Y-189357953D01*
X165110582Y-189332175D01*
X165121320Y-189306622D01*
X165134868Y-189281590D01*
X165151182Y-189257375D01*
X165170213Y-189234273D01*
X165192830Y-189212665D01*
X165219892Y-189192640D01*
X165249939Y-189175455D01*
X165281513Y-189162367D01*
X165313156Y-189154631D01*
X165343407Y-189153505D01*
X165370809Y-189160244D01*
X165388612Y-189171216D01*
X165393902Y-189176105D01*
X165410055Y-189195177D01*
X165421545Y-189214289D01*
X165430331Y-189239728D01*
X165432552Y-189264981D01*
X165429193Y-189289903D01*
X165418648Y-189320366D01*
X165402849Y-189349795D01*
X165387719Y-189372403D01*
X165366876Y-189393555D01*
X165341013Y-189405545D01*
X165319293Y-189399518D01*
X165311546Y-189380525D01*
X165321199Y-189354858D01*
X165338685Y-189326465D01*
X165349431Y-189301039D01*
X165348307Y-189274276D01*
X165333574Y-189252075D01*
X165327445Y-189246431D01*
X165305841Y-189240006D01*
X165280235Y-189243625D01*
X165255160Y-189254863D01*
X165229590Y-189275312D01*
X165213390Y-189294858D01*
X165196667Y-189325487D01*
X165187595Y-189351967D01*
X165181525Y-189379191D01*
X165177697Y-189406224D01*
X165175350Y-189432129D01*
X165173722Y-189455970D01*
X165171541Y-189481444D01*
X165170317Y-189489912D01*
X165165765Y-189516536D01*
X165160227Y-189545256D01*
X165152717Y-189575072D01*
X165142250Y-189604985D01*
X165127839Y-189633994D01*
X165108499Y-189661099D01*
X165099162Y-189671184D01*
X165074483Y-189686795D01*
X165050637Y-189687522D01*
X165032878Y-189677229D01*
X164899480Y-189543831D01*
X164890058Y-189525552D01*
X164892779Y-189500464D01*
X164909911Y-189474679D01*
G37*
G36*
X164862654Y-192938948D02*
G01*
X164885776Y-192957433D01*
X164897088Y-192985784D01*
X164896953Y-193015319D01*
X164896850Y-193016459D01*
X164893249Y-193048072D01*
X164895442Y-193078101D01*
X164905183Y-193109551D01*
X164922800Y-193136909D01*
X164928455Y-193142983D01*
X164952729Y-193161584D01*
X164980830Y-193173406D01*
X165011778Y-193178579D01*
X165044591Y-193177231D01*
X165078288Y-193169490D01*
X165111888Y-193155486D01*
X165144409Y-193135347D01*
X165167503Y-193116294D01*
X165174871Y-193109202D01*
X165194868Y-193086757D01*
X165216388Y-193054791D01*
X165231890Y-193021416D01*
X165241224Y-192987636D01*
X165244238Y-192954454D01*
X165240780Y-192922876D01*
X165230698Y-192893905D01*
X165213840Y-192868547D01*
X165208549Y-192862889D01*
X165183427Y-192843923D01*
X165154092Y-192832215D01*
X165121657Y-192827617D01*
X165092233Y-192829219D01*
X165067103Y-192834392D01*
X165035707Y-192836318D01*
X165007002Y-192823324D01*
X164993116Y-192803720D01*
X164989210Y-192773598D01*
X165000406Y-192746290D01*
X165023478Y-192730665D01*
X165024721Y-192730665D01*
X165059977Y-192722225D01*
X165095281Y-192718145D01*
X165130203Y-192718463D01*
X165164315Y-192723217D01*
X165197188Y-192732445D01*
X165228395Y-192746185D01*
X165257505Y-192764473D01*
X165284091Y-192787347D01*
X165310236Y-192818464D01*
X165330250Y-192852900D01*
X165344189Y-192889981D01*
X165352115Y-192929033D01*
X165354084Y-192969381D01*
X165350157Y-193010350D01*
X165340392Y-193051265D01*
X165324849Y-193091451D01*
X165311305Y-193117505D01*
X165295236Y-193142735D01*
X165276660Y-193166941D01*
X165255594Y-193189924D01*
X165232484Y-193211103D01*
X165208171Y-193229749D01*
X165182852Y-193245851D01*
X165156728Y-193259398D01*
X165116467Y-193274900D01*
X165075517Y-193284588D01*
X165034550Y-193288422D01*
X164994238Y-193286363D01*
X164955256Y-193278372D01*
X164918276Y-193264411D01*
X164883972Y-193244440D01*
X164853017Y-193218421D01*
X164831045Y-193193010D01*
X164813224Y-193165150D01*
X164799539Y-193135238D01*
X164789975Y-193103671D01*
X164784515Y-193070846D01*
X164783144Y-193037159D01*
X164785846Y-193003009D01*
X164792604Y-192968792D01*
X164809677Y-192943712D01*
X164839832Y-192934446D01*
X164862654Y-192938948D01*
G37*
G36*
X164554478Y-192833253D02*
G01*
X164528791Y-192848688D01*
X164496961Y-192849734D01*
X164470643Y-192835933D01*
X164468367Y-192833771D01*
X164453072Y-192807943D01*
X164452307Y-192775832D01*
X164466211Y-192749410D01*
X164468367Y-192747141D01*
X164812915Y-192402593D01*
X164839000Y-192386534D01*
X164868850Y-192388203D01*
X164890011Y-192402593D01*
X164907186Y-192429104D01*
X164908233Y-192458845D01*
X164901305Y-192488704D01*
X164900663Y-192518958D01*
X164907197Y-192547783D01*
X164917367Y-192572536D01*
X164923477Y-192602146D01*
X164915647Y-192631883D01*
X164909699Y-192639684D01*
X164881799Y-192651263D01*
X164852084Y-192643829D01*
X164828979Y-192624319D01*
X164809910Y-192605177D01*
X164779677Y-192608234D01*
X164773020Y-192614711D01*
X164554478Y-192833253D01*
G37*
G36*
X178953947Y-177741745D02*
G01*
X178950668Y-177712325D01*
X178962717Y-177684278D01*
X178983696Y-177663489D01*
X178984575Y-177662757D01*
X179009475Y-177642948D01*
X179029158Y-177620165D01*
X179044509Y-177591038D01*
X179051397Y-177559235D01*
X179051693Y-177550942D01*
X179047682Y-177520625D01*
X179036171Y-177492395D01*
X179017945Y-177466854D01*
X178993789Y-177444605D01*
X178964488Y-177426251D01*
X178930827Y-177412395D01*
X178893591Y-177403639D01*
X178863789Y-177400782D01*
X178853563Y-177400586D01*
X178823552Y-177402317D01*
X178785733Y-177409704D01*
X178751171Y-177422342D01*
X178720684Y-177439628D01*
X178695091Y-177460959D01*
X178675207Y-177485734D01*
X178661851Y-177513349D01*
X178655839Y-177543200D01*
X178655580Y-177550942D01*
X178659933Y-177582117D01*
X178672398Y-177611138D01*
X178692081Y-177637325D01*
X178714020Y-177656998D01*
X178735448Y-177671110D01*
X178759009Y-177691949D01*
X178770118Y-177721434D01*
X178766076Y-177745115D01*
X178747538Y-177769177D01*
X178720311Y-177780569D01*
X178692949Y-177775304D01*
X178692070Y-177774424D01*
X178661172Y-177755463D01*
X178633323Y-177733385D01*
X178608855Y-177708466D01*
X178588096Y-177680983D01*
X178571376Y-177651213D01*
X178559025Y-177619432D01*
X178551372Y-177585916D01*
X178548748Y-177550942D01*
X178552263Y-177510452D01*
X178562462Y-177471950D01*
X178578825Y-177435873D01*
X178600835Y-177402655D01*
X178627972Y-177372732D01*
X178659718Y-177346540D01*
X178695555Y-177324513D01*
X178734962Y-177307088D01*
X178762962Y-177298242D01*
X178792164Y-177291764D01*
X178822416Y-177287783D01*
X178853563Y-177286427D01*
X178884880Y-177287793D01*
X178915257Y-177291800D01*
X178944546Y-177298318D01*
X178972597Y-177307211D01*
X179012028Y-177324718D01*
X179047834Y-177346824D01*
X179079514Y-177373081D01*
X179106562Y-177403041D01*
X179128477Y-177436256D01*
X179144753Y-177472277D01*
X179154888Y-177510655D01*
X179158378Y-177550942D01*
X179155947Y-177584447D01*
X179148848Y-177616748D01*
X179137374Y-177647576D01*
X179121815Y-177676660D01*
X179102465Y-177703732D01*
X179079615Y-177728521D01*
X179053556Y-177750759D01*
X179024582Y-177770175D01*
X178994775Y-177775837D01*
X178966900Y-177761066D01*
X178953947Y-177741745D01*
G37*
G36*
X179097122Y-178034396D02*
G01*
X179126200Y-178041645D01*
X179149447Y-178063412D01*
X179158298Y-178091781D01*
X179158378Y-178094920D01*
X179150930Y-178123998D01*
X179128765Y-178147244D01*
X179100251Y-178156095D01*
X179097122Y-178156176D01*
X178609858Y-178156176D01*
X178580057Y-178149087D01*
X178560130Y-178126800D01*
X178555343Y-178101661D01*
X178561944Y-178070770D01*
X178582233Y-178049000D01*
X178608246Y-178032784D01*
X178630093Y-178011847D01*
X178645855Y-177986844D01*
X178656166Y-177962149D01*
X178672783Y-177936891D01*
X178699348Y-177921401D01*
X178709069Y-177920091D01*
X178736986Y-177931632D01*
X178752740Y-177957900D01*
X178755283Y-177988033D01*
X178755231Y-178015052D01*
X178778770Y-178034269D01*
X178788057Y-178034396D01*
X179097122Y-178034396D01*
G37*
G36*
X178678588Y-178510230D02*
G01*
X178678867Y-178541837D01*
X178679392Y-178572337D01*
X178679694Y-178602771D01*
X178679303Y-178634180D01*
X178678588Y-178652966D01*
X178672398Y-178683240D01*
X178650381Y-178703518D01*
X178630667Y-178706748D01*
X178599960Y-178698529D01*
X178581106Y-178675472D01*
X178576885Y-178652966D01*
X178576453Y-178620100D01*
X178576503Y-178587559D01*
X178576786Y-178555303D01*
X178577054Y-178523290D01*
X178577059Y-178491482D01*
X178576553Y-178459837D01*
X178576152Y-178447216D01*
X178584186Y-178417931D01*
X178608045Y-178400420D01*
X178612203Y-178399295D01*
X178645811Y-178392176D01*
X178676041Y-178386190D01*
X178709930Y-178379896D01*
X178743618Y-178373865D01*
X178773374Y-178368500D01*
X178806229Y-178362366D01*
X178837095Y-178358638D01*
X178867459Y-178365456D01*
X178881700Y-178378339D01*
X178894078Y-178406227D01*
X178894566Y-178437815D01*
X178885803Y-178457327D01*
X178870759Y-178483085D01*
X178861586Y-178513705D01*
X178858306Y-178546173D01*
X178858253Y-178558151D01*
X178862756Y-178587328D01*
X178876937Y-178615659D01*
X178899427Y-178636684D01*
X178928854Y-178649190D01*
X178953361Y-178652233D01*
X178983044Y-178647973D01*
X179009925Y-178635090D01*
X179032254Y-178614668D01*
X179048281Y-178587792D01*
X179056256Y-178555545D01*
X179056822Y-178543789D01*
X179053191Y-178510922D01*
X179042389Y-178482353D01*
X179022411Y-178459259D01*
X178995859Y-178447216D01*
X178967701Y-178434392D01*
X178948230Y-178409332D01*
X178945008Y-178385080D01*
X178958540Y-178356939D01*
X178983374Y-178341003D01*
X179015069Y-178336834D01*
X179018427Y-178337160D01*
X179048718Y-178344013D01*
X179075967Y-178356813D01*
X179099867Y-178375298D01*
X179120112Y-178399204D01*
X179136392Y-178428269D01*
X179148402Y-178462230D01*
X179155833Y-178500824D01*
X179158217Y-178532653D01*
X179158378Y-178543789D01*
X179156828Y-178575082D01*
X179149159Y-178616631D01*
X179135982Y-178652075D01*
X179118313Y-178681822D01*
X179097169Y-178706278D01*
X179073565Y-178725854D01*
X179040026Y-178745065D01*
X179006331Y-178757290D01*
X178974891Y-178763495D01*
X178954240Y-178764780D01*
X178920090Y-178761379D01*
X178886131Y-178751445D01*
X178853707Y-178735383D01*
X178824163Y-178713599D01*
X178798843Y-178686499D01*
X178779093Y-178654486D01*
X178766257Y-178617968D01*
X178761976Y-178587866D01*
X178761679Y-178577348D01*
X178764066Y-178547133D01*
X178769346Y-178517847D01*
X178774282Y-178490886D01*
X178756697Y-178472422D01*
X178727497Y-178480885D01*
X178697568Y-178489124D01*
X178691044Y-178490886D01*
X178678588Y-178510230D01*
G37*
G36*
X171088948Y-180562344D02*
G01*
X171107433Y-180539222D01*
X171135784Y-180527910D01*
X171165319Y-180528045D01*
X171166459Y-180528148D01*
X171198072Y-180531749D01*
X171228101Y-180529556D01*
X171259551Y-180519815D01*
X171286909Y-180502198D01*
X171292983Y-180496543D01*
X171311584Y-180472269D01*
X171323406Y-180444168D01*
X171328579Y-180413220D01*
X171327231Y-180380407D01*
X171319490Y-180346710D01*
X171305486Y-180313110D01*
X171285347Y-180280589D01*
X171266294Y-180257495D01*
X171259202Y-180250127D01*
X171236757Y-180230130D01*
X171204791Y-180208610D01*
X171171416Y-180193108D01*
X171137636Y-180183774D01*
X171104454Y-180180760D01*
X171072876Y-180184218D01*
X171043905Y-180194300D01*
X171018547Y-180211158D01*
X171012889Y-180216449D01*
X170993923Y-180241571D01*
X170982215Y-180270906D01*
X170977617Y-180303341D01*
X170979219Y-180332765D01*
X170984392Y-180357895D01*
X170986318Y-180389291D01*
X170973324Y-180417996D01*
X170953720Y-180431882D01*
X170923598Y-180435788D01*
X170896290Y-180424592D01*
X170880665Y-180401520D01*
X170880665Y-180400277D01*
X170872225Y-180365021D01*
X170868145Y-180329717D01*
X170868463Y-180294795D01*
X170873217Y-180260683D01*
X170882445Y-180227810D01*
X170896185Y-180196603D01*
X170914473Y-180167493D01*
X170937347Y-180140907D01*
X170968464Y-180114762D01*
X171002900Y-180094748D01*
X171039981Y-180080809D01*
X171079033Y-180072883D01*
X171119381Y-180070914D01*
X171160350Y-180074841D01*
X171201265Y-180084606D01*
X171241451Y-180100149D01*
X171267505Y-180113693D01*
X171292735Y-180129762D01*
X171316941Y-180148338D01*
X171339924Y-180169404D01*
X171361103Y-180192514D01*
X171379749Y-180216827D01*
X171395851Y-180242146D01*
X171409398Y-180268270D01*
X171424900Y-180308531D01*
X171434588Y-180349481D01*
X171438422Y-180390448D01*
X171436363Y-180430760D01*
X171428372Y-180469742D01*
X171414411Y-180506722D01*
X171394440Y-180541026D01*
X171368421Y-180571981D01*
X171343010Y-180593953D01*
X171315150Y-180611774D01*
X171285238Y-180625459D01*
X171253671Y-180635023D01*
X171220846Y-180640483D01*
X171187159Y-180641854D01*
X171153009Y-180639152D01*
X171118792Y-180632394D01*
X171093712Y-180615321D01*
X171084446Y-180585166D01*
X171088948Y-180562344D01*
G37*
G36*
X170763138Y-180445926D02*
G01*
X170799331Y-180455832D01*
X170835434Y-180470420D01*
X170870892Y-180489438D01*
X170905151Y-180512634D01*
X170937658Y-180539754D01*
X170964654Y-180566157D01*
X170988226Y-180592295D01*
X171008455Y-180618128D01*
X171025424Y-180643614D01*
X171044944Y-180681104D01*
X171057592Y-180717585D01*
X171063645Y-180752917D01*
X171063381Y-180786963D01*
X171057076Y-180819584D01*
X171045010Y-180850641D01*
X171027460Y-180879998D01*
X171004703Y-180907514D01*
X170996809Y-180915498D01*
X170972104Y-180936522D01*
X170946114Y-180953162D01*
X170919155Y-180965432D01*
X170882254Y-180975011D01*
X170844952Y-180976867D01*
X170808003Y-180971029D01*
X170772160Y-180957525D01*
X170746458Y-180942382D01*
X170722121Y-180922954D01*
X170703085Y-180903454D01*
X170680939Y-180873826D01*
X170663610Y-180840877D01*
X170652319Y-180805506D01*
X170648285Y-180768614D01*
X170649823Y-180755636D01*
X170752848Y-180755636D01*
X170754619Y-180785593D01*
X170766501Y-180817278D01*
X170785539Y-180842749D01*
X170791972Y-180848637D01*
X170819985Y-180866077D01*
X170848809Y-180874949D01*
X170879750Y-180875693D01*
X170910602Y-180865925D01*
X170934653Y-180848034D01*
X170940964Y-180840995D01*
X170956839Y-180811652D01*
X170962046Y-180782514D01*
X170958673Y-180751844D01*
X170945937Y-180721681D01*
X170927607Y-180698402D01*
X170901760Y-180679604D01*
X170872570Y-180669682D01*
X170842443Y-180668222D01*
X170809320Y-180676661D01*
X170782016Y-180695397D01*
X170777594Y-180700176D01*
X170761228Y-180724976D01*
X170752848Y-180755636D01*
X170649823Y-180755636D01*
X170652730Y-180731099D01*
X170662361Y-180703096D01*
X170677963Y-180675629D01*
X170700050Y-180649077D01*
X170718443Y-180631433D01*
X170745262Y-180609558D01*
X170774367Y-180591446D01*
X170800461Y-180577266D01*
X170785648Y-180565236D01*
X170758244Y-180552506D01*
X170729588Y-180544689D01*
X170698892Y-180542254D01*
X170669205Y-180547872D01*
X170643575Y-180564209D01*
X170628977Y-180580810D01*
X170614571Y-180609333D01*
X170613965Y-180640012D01*
X170618083Y-180670527D01*
X170617248Y-180684118D01*
X170604112Y-180711079D01*
X170578914Y-180726276D01*
X170569757Y-180727809D01*
X170541997Y-180718350D01*
X170523682Y-180694878D01*
X170514005Y-180666474D01*
X170510847Y-180636139D01*
X170514550Y-180604296D01*
X170525455Y-180571366D01*
X170539595Y-180544524D01*
X170558738Y-180517473D01*
X170583059Y-180490429D01*
X170600191Y-180475472D01*
X170628532Y-180458178D01*
X170659551Y-180446828D01*
X170692694Y-180441172D01*
X170727407Y-180440955D01*
X170763138Y-180445926D01*
G37*
D14*
G36*
X160309757Y-192946674D02*
G01*
X160332610Y-192968699D01*
X160341229Y-192997566D01*
X160341307Y-193000772D01*
X160341307Y-193490528D01*
X160334059Y-193519606D01*
X160312292Y-193542852D01*
X160283923Y-193551703D01*
X160280784Y-193551784D01*
X160251706Y-193544336D01*
X160228459Y-193522171D01*
X160219608Y-193493656D01*
X160219528Y-193490528D01*
X160219528Y-193324931D01*
X160204434Y-193304854D01*
X160130428Y-193303975D01*
X160100660Y-193306901D01*
X160072054Y-193317616D01*
X160048594Y-193337954D01*
X160033307Y-193367249D01*
X160027559Y-193396860D01*
X160027113Y-193408169D01*
X160027113Y-193490528D01*
X160019865Y-193519606D01*
X159998098Y-193542852D01*
X159969729Y-193551703D01*
X159966590Y-193551784D01*
X159937512Y-193544336D01*
X159914265Y-193522171D01*
X159905414Y-193493656D01*
X159905334Y-193490528D01*
X159905334Y-193408169D01*
X159907413Y-193375242D01*
X159913804Y-193343457D01*
X159924739Y-193314142D01*
X159940450Y-193288622D01*
X159965125Y-193265418D01*
X159969228Y-193262796D01*
X159969961Y-193242719D01*
X159945767Y-193225947D01*
X159922504Y-193202086D01*
X159905382Y-193173206D01*
X159896229Y-193144143D01*
X159894793Y-193130465D01*
X160002787Y-193130465D01*
X160008829Y-193160411D01*
X160025546Y-193185360D01*
X160050819Y-193203767D01*
X160082532Y-193214085D01*
X160102731Y-193215755D01*
X160198572Y-193215755D01*
X160220407Y-193197876D01*
X160219528Y-193064812D01*
X160198572Y-193046201D01*
X160102731Y-193046201D01*
X160072938Y-193049821D01*
X160042848Y-193062363D01*
X160019804Y-193082487D01*
X160005921Y-193108749D01*
X160002787Y-193130465D01*
X159894793Y-193130465D01*
X159892731Y-193110828D01*
X159896116Y-193072830D01*
X159907038Y-193039030D01*
X159924663Y-193009694D01*
X159948162Y-192985092D01*
X159976703Y-192965490D01*
X160009455Y-192951157D01*
X160045586Y-192942361D01*
X160084266Y-192939369D01*
X160280784Y-192939369D01*
X160309757Y-192946674D01*
G37*
G36*
X159614148Y-193497122D02*
G01*
X159606899Y-193526200D01*
X159585132Y-193549447D01*
X159556763Y-193558298D01*
X159553624Y-193558378D01*
X159524546Y-193550930D01*
X159501300Y-193528765D01*
X159492449Y-193500251D01*
X159492368Y-193497122D01*
X159492368Y-193009858D01*
X159499458Y-192980057D01*
X159521744Y-192960130D01*
X159546883Y-192955343D01*
X159577774Y-192961944D01*
X159599544Y-192982233D01*
X159615760Y-193008246D01*
X159636697Y-193030093D01*
X159661700Y-193045855D01*
X159686395Y-193056166D01*
X159711653Y-193072783D01*
X159727143Y-193099348D01*
X159728453Y-193109069D01*
X159716913Y-193136986D01*
X159690644Y-193152740D01*
X159660511Y-193155283D01*
X159633492Y-193155231D01*
X159614275Y-193178770D01*
X159614148Y-193188057D01*
X159614148Y-193497122D01*
G37*
G36*
X85579320Y-91231596D02*
G01*
X85588988Y-91193722D01*
X85617763Y-91163288D01*
X85658845Y-91150899D01*
X86133849Y-91148554D01*
X86175154Y-91141558D01*
X86214081Y-91118815D01*
X86242039Y-91083209D01*
X86256481Y-91044713D01*
X86261441Y-91000836D01*
X86256381Y-90956784D01*
X86241730Y-90918057D01*
X86218284Y-90886640D01*
X86180878Y-90861877D01*
X86141108Y-90853114D01*
X86133849Y-90852922D01*
X85658845Y-90852922D01*
X85621093Y-90842502D01*
X85590914Y-90813441D01*
X85579320Y-90772224D01*
X85591189Y-90731462D01*
X85621907Y-90703268D01*
X85660018Y-90693871D01*
X86155147Y-90693871D01*
X86205856Y-90700075D01*
X86253109Y-90717890D01*
X86295889Y-90746123D01*
X86324424Y-90773417D01*
X86349440Y-90805398D01*
X86370506Y-90841561D01*
X86387193Y-90881404D01*
X86399070Y-90924423D01*
X86405708Y-90970115D01*
X86407010Y-91001813D01*
X86404076Y-91048786D01*
X86395571Y-91093519D01*
X86381944Y-91135492D01*
X86363640Y-91174185D01*
X86341109Y-91209078D01*
X86314796Y-91239652D01*
X86285149Y-91265387D01*
X86241206Y-91291275D01*
X86193192Y-91306404D01*
X86155147Y-91309949D01*
X85660018Y-91309949D01*
X85621907Y-91300553D01*
X85591189Y-91272358D01*
X85579320Y-91231596D01*
G37*
G36*
X86312830Y-91707186D02*
G01*
X86351600Y-91716851D01*
X86382596Y-91745874D01*
X86394397Y-91783698D01*
X86394505Y-91787884D01*
X86384574Y-91826654D01*
X86355020Y-91857650D01*
X86317001Y-91869451D01*
X86312830Y-91869559D01*
X85663144Y-91869559D01*
X85623410Y-91860106D01*
X85596840Y-91830390D01*
X85590457Y-91796872D01*
X85599259Y-91755685D01*
X85626311Y-91726658D01*
X85660995Y-91705037D01*
X85690124Y-91677120D01*
X85711140Y-91643783D01*
X85724889Y-91610857D01*
X85747045Y-91577179D01*
X85782464Y-91556526D01*
X85795426Y-91554778D01*
X85832648Y-91570166D01*
X85853653Y-91605190D01*
X85857044Y-91645368D01*
X85856975Y-91681394D01*
X85888360Y-91707016D01*
X85900743Y-91707186D01*
X86312830Y-91707186D01*
G37*
D12*
G36*
X150036489Y-189748948D02*
G01*
X150065909Y-189745669D01*
X150093956Y-189757718D01*
X150114745Y-189778697D01*
X150115477Y-189779576D01*
X150135286Y-189804476D01*
X150158069Y-189824159D01*
X150187196Y-189839510D01*
X150218999Y-189846398D01*
X150227292Y-189846694D01*
X150257609Y-189842683D01*
X150285839Y-189831172D01*
X150311380Y-189812946D01*
X150333629Y-189788790D01*
X150351983Y-189759489D01*
X150365839Y-189725828D01*
X150374595Y-189688592D01*
X150377452Y-189658790D01*
X150377648Y-189648564D01*
X150375917Y-189618553D01*
X150368530Y-189580734D01*
X150355892Y-189546172D01*
X150338606Y-189515685D01*
X150317275Y-189490092D01*
X150292500Y-189470208D01*
X150264885Y-189456852D01*
X150235034Y-189450840D01*
X150227292Y-189450581D01*
X150196117Y-189454934D01*
X150167096Y-189467399D01*
X150140909Y-189487082D01*
X150121236Y-189509021D01*
X150107124Y-189530449D01*
X150086285Y-189554010D01*
X150056800Y-189565119D01*
X150033119Y-189561077D01*
X150009057Y-189542539D01*
X149997665Y-189515312D01*
X150002930Y-189487950D01*
X150003810Y-189487071D01*
X150022771Y-189456173D01*
X150044849Y-189428324D01*
X150069768Y-189403856D01*
X150097251Y-189383097D01*
X150127021Y-189366377D01*
X150158802Y-189354026D01*
X150192318Y-189346373D01*
X150227292Y-189343749D01*
X150267782Y-189347264D01*
X150306284Y-189357463D01*
X150342361Y-189373826D01*
X150375579Y-189395836D01*
X150405502Y-189422973D01*
X150431694Y-189454719D01*
X150453721Y-189490556D01*
X150471146Y-189529963D01*
X150479992Y-189557963D01*
X150486470Y-189587165D01*
X150490451Y-189617417D01*
X150491807Y-189648564D01*
X150490441Y-189679881D01*
X150486434Y-189710258D01*
X150479916Y-189739547D01*
X150471023Y-189767598D01*
X150453516Y-189807029D01*
X150431410Y-189842835D01*
X150405153Y-189874515D01*
X150375193Y-189901563D01*
X150341978Y-189923478D01*
X150305957Y-189939754D01*
X150267579Y-189949889D01*
X150227292Y-189953379D01*
X150193787Y-189950948D01*
X150161486Y-189943849D01*
X150130658Y-189932375D01*
X150101574Y-189916816D01*
X150074502Y-189897466D01*
X150049713Y-189874616D01*
X150027475Y-189848557D01*
X150008059Y-189819583D01*
X150002397Y-189789776D01*
X150017168Y-189761901D01*
X150036489Y-189748948D01*
G37*
G36*
X149754882Y-189336189D02*
G01*
X149784654Y-189341472D01*
X149821426Y-189353454D01*
X149854107Y-189370512D01*
X149881880Y-189392029D01*
X149903927Y-189417385D01*
X149919431Y-189445963D01*
X149927575Y-189477145D01*
X149928632Y-189493519D01*
X149924203Y-189526002D01*
X149913318Y-189557523D01*
X149899574Y-189583823D01*
X149886573Y-189600644D01*
X149881285Y-189630027D01*
X149887452Y-189635961D01*
X149909570Y-189659448D01*
X149927757Y-189686435D01*
X149941030Y-189716344D01*
X149948402Y-189748595D01*
X149949588Y-189767853D01*
X149945017Y-189805697D01*
X149931899Y-189840736D01*
X149911125Y-189872278D01*
X149883587Y-189899634D01*
X149859030Y-189916987D01*
X149831546Y-189931306D01*
X149801510Y-189942299D01*
X149769298Y-189949675D01*
X149735286Y-189953143D01*
X149723614Y-189953379D01*
X149689345Y-189951280D01*
X149656695Y-189945174D01*
X149626046Y-189935355D01*
X149597782Y-189922112D01*
X149572284Y-189905738D01*
X149549935Y-189886523D01*
X149525697Y-189856987D01*
X149508644Y-189823611D01*
X149499683Y-189787083D01*
X149498573Y-189768732D01*
X149611946Y-189768732D01*
X149617002Y-189798036D01*
X149631127Y-189823755D01*
X149652756Y-189844590D01*
X149680324Y-189859242D01*
X149712265Y-189866414D01*
X149723614Y-189866917D01*
X149757142Y-189862528D01*
X149786641Y-189850225D01*
X149810588Y-189831307D01*
X149827458Y-189807072D01*
X149835727Y-189778818D01*
X149836308Y-189768732D01*
X149829474Y-189735682D01*
X149810588Y-189707422D01*
X149786641Y-189688665D01*
X149757142Y-189676404D01*
X149723614Y-189672012D01*
X149690562Y-189676404D01*
X149661363Y-189688665D01*
X149637580Y-189707422D01*
X149618769Y-189735682D01*
X149611946Y-189768732D01*
X149498573Y-189768732D01*
X149498520Y-189767853D01*
X149502096Y-189734524D01*
X149512149Y-189703206D01*
X149527666Y-189674478D01*
X149547635Y-189648920D01*
X149560655Y-189635961D01*
X149566805Y-189606542D01*
X149562414Y-189600644D01*
X149545084Y-189574843D01*
X149531273Y-189546085D01*
X149522359Y-189517805D01*
X149520833Y-189504950D01*
X149634661Y-189504950D01*
X149641718Y-189536908D01*
X149660893Y-189562780D01*
X149689190Y-189580107D01*
X149719078Y-189586325D01*
X149723614Y-189586429D01*
X149754546Y-189581549D01*
X149780843Y-189568009D01*
X149802730Y-189544043D01*
X149813129Y-189513375D01*
X149813593Y-189504950D01*
X149806520Y-189474008D01*
X149787233Y-189448658D01*
X149758632Y-189431523D01*
X149728243Y-189425333D01*
X149723614Y-189425229D01*
X149693219Y-189430090D01*
X149663992Y-189446013D01*
X149643514Y-189470479D01*
X149634778Y-189500866D01*
X149634661Y-189504950D01*
X149520833Y-189504950D01*
X149519476Y-189493519D01*
X149523631Y-189461267D01*
X149535546Y-189431310D01*
X149554391Y-189404266D01*
X149579340Y-189380752D01*
X149609564Y-189361387D01*
X149644237Y-189346790D01*
X149672662Y-189339343D01*
X149702774Y-189335185D01*
X149723614Y-189334370D01*
X149754882Y-189336189D01*
G37*
G36*
X160943947Y-182136293D02*
G01*
X160962431Y-182113171D01*
X160990783Y-182101859D01*
X161020318Y-182101994D01*
X161021458Y-182102098D01*
X161053071Y-182105698D01*
X161083099Y-182103506D01*
X161114550Y-182093764D01*
X161141908Y-182076147D01*
X161147982Y-182070492D01*
X161166583Y-182046219D01*
X161178405Y-182018117D01*
X161183578Y-181987169D01*
X161182229Y-181954356D01*
X161174489Y-181920659D01*
X161160485Y-181887059D01*
X161140346Y-181854538D01*
X161121293Y-181831445D01*
X161114201Y-181824076D01*
X161091756Y-181804079D01*
X161059790Y-181782560D01*
X161026415Y-181767057D01*
X160992634Y-181757723D01*
X160959453Y-181754709D01*
X160927875Y-181758167D01*
X160898904Y-181768249D01*
X160873545Y-181785107D01*
X160867888Y-181790398D01*
X160848922Y-181815520D01*
X160837214Y-181844855D01*
X160832615Y-181877290D01*
X160834218Y-181906714D01*
X160839391Y-181931844D01*
X160841316Y-181963240D01*
X160828322Y-181991945D01*
X160808719Y-182005831D01*
X160778596Y-182009737D01*
X160751289Y-181998541D01*
X160735664Y-181975470D01*
X160735664Y-181974226D01*
X160727223Y-181938970D01*
X160723143Y-181903667D01*
X160723462Y-181868745D01*
X160728216Y-181834632D01*
X160737444Y-181801759D01*
X160751183Y-181770553D01*
X160769471Y-181741442D01*
X160792346Y-181714857D01*
X160823462Y-181688711D01*
X160857899Y-181668698D01*
X160894980Y-181654758D01*
X160934032Y-181646833D01*
X160974380Y-181644863D01*
X161015348Y-181648790D01*
X161056263Y-181658555D01*
X161096450Y-181674099D01*
X161122504Y-181687643D01*
X161147733Y-181703711D01*
X161171940Y-181722287D01*
X161194923Y-181743353D01*
X161216102Y-181766463D01*
X161234748Y-181790777D01*
X161250850Y-181816095D01*
X161264396Y-181842220D01*
X161279899Y-181882480D01*
X161289587Y-181923430D01*
X161293421Y-181964398D01*
X161291362Y-182004709D01*
X161283371Y-182043691D01*
X161269410Y-182080671D01*
X161249439Y-182114975D01*
X161223420Y-182145930D01*
X161198009Y-182167903D01*
X161170149Y-182185723D01*
X161140237Y-182199408D01*
X161108670Y-182208972D01*
X161075844Y-182214432D01*
X161042158Y-182215803D01*
X161008008Y-182213102D01*
X160973791Y-182206343D01*
X160948710Y-182189270D01*
X160939444Y-182159115D01*
X160943947Y-182136293D01*
G37*
G36*
X160838251Y-182444470D02*
G01*
X160853687Y-182470156D01*
X160854733Y-182501986D01*
X160840932Y-182528304D01*
X160838769Y-182530581D01*
X160812942Y-182545875D01*
X160780830Y-182546640D01*
X160754409Y-182532736D01*
X160752140Y-182530581D01*
X160407592Y-182186033D01*
X160391533Y-182159947D01*
X160393201Y-182130098D01*
X160407592Y-182108937D01*
X160434103Y-182091761D01*
X160463843Y-182090715D01*
X160493703Y-182097642D01*
X160523956Y-182098285D01*
X160552782Y-182091750D01*
X160577535Y-182081580D01*
X160607145Y-182075470D01*
X160636882Y-182083301D01*
X160644683Y-182089248D01*
X160656262Y-182117149D01*
X160648828Y-182146863D01*
X160629318Y-182169968D01*
X160610176Y-182189038D01*
X160613232Y-182219270D01*
X160619709Y-182225928D01*
X160838251Y-182444470D01*
G37*
G36*
X160284591Y-182308205D02*
G01*
X160299932Y-182334126D01*
X160301303Y-182363422D01*
X160288763Y-182390417D01*
X160284591Y-182395041D01*
X160255091Y-182424405D01*
X160229029Y-182450151D01*
X160206335Y-182472484D01*
X160181193Y-182497311D01*
X160157758Y-182521075D01*
X160137962Y-182544552D01*
X160136720Y-182552445D01*
X160165971Y-182562869D01*
X160197413Y-182568547D01*
X160228094Y-182574104D01*
X160232883Y-182575035D01*
X160263674Y-182581335D01*
X160293505Y-182588192D01*
X160322289Y-182595723D01*
X160354433Y-182605521D01*
X160384899Y-182616588D01*
X160412653Y-182628678D01*
X160439808Y-182642965D01*
X160467359Y-182659529D01*
X160496302Y-182678446D01*
X160522203Y-182696065D01*
X160538779Y-182707466D01*
X160560059Y-182730983D01*
X160564986Y-182761046D01*
X160552631Y-182790038D01*
X160545929Y-182797722D01*
X160519253Y-182813111D01*
X160487001Y-182811323D01*
X160460755Y-182797821D01*
X160455155Y-182793577D01*
X160431489Y-182775312D01*
X160406089Y-182757520D01*
X160379871Y-182741003D01*
X160349027Y-182723704D01*
X160321001Y-182709779D01*
X160289979Y-182696171D01*
X160257568Y-182684726D01*
X160227318Y-182676254D01*
X160195851Y-182668905D01*
X160164785Y-182662823D01*
X160135742Y-182658154D01*
X160105841Y-182654618D01*
X160072362Y-182652959D01*
X160038709Y-182652388D01*
X160009428Y-182649072D01*
X159979364Y-182636246D01*
X159965016Y-182624256D01*
X159949980Y-182596249D01*
X159952055Y-182564833D01*
X159967918Y-182539285D01*
X160198376Y-182308826D01*
X160224108Y-182293388D01*
X160256014Y-182292315D01*
X160282323Y-182306051D01*
X160284591Y-182308205D01*
G37*
G36*
X164187655Y-192238948D02*
G01*
X164210777Y-192257433D01*
X164222089Y-192285784D01*
X164221954Y-192315319D01*
X164221851Y-192316459D01*
X164218250Y-192348072D01*
X164220443Y-192378101D01*
X164230184Y-192409551D01*
X164247801Y-192436909D01*
X164253456Y-192442983D01*
X164277730Y-192461584D01*
X164305831Y-192473406D01*
X164336779Y-192478579D01*
X164369592Y-192477231D01*
X164403289Y-192469490D01*
X164436889Y-192455486D01*
X164469410Y-192435347D01*
X164492504Y-192416294D01*
X164499872Y-192409202D01*
X164519869Y-192386757D01*
X164541389Y-192354791D01*
X164556891Y-192321416D01*
X164566225Y-192287636D01*
X164569239Y-192254454D01*
X164565781Y-192222876D01*
X164555699Y-192193905D01*
X164538841Y-192168547D01*
X164533550Y-192162889D01*
X164508428Y-192143923D01*
X164479093Y-192132215D01*
X164446658Y-192127617D01*
X164417234Y-192129219D01*
X164392104Y-192134392D01*
X164360708Y-192136318D01*
X164332003Y-192123324D01*
X164318117Y-192103720D01*
X164314211Y-192073598D01*
X164325407Y-192046290D01*
X164348479Y-192030665D01*
X164349722Y-192030665D01*
X164384978Y-192022225D01*
X164420282Y-192018145D01*
X164455204Y-192018463D01*
X164489316Y-192023217D01*
X164522189Y-192032445D01*
X164553396Y-192046185D01*
X164582506Y-192064473D01*
X164609092Y-192087347D01*
X164635237Y-192118464D01*
X164655251Y-192152900D01*
X164669190Y-192189981D01*
X164677116Y-192229033D01*
X164679085Y-192269381D01*
X164675158Y-192310350D01*
X164665393Y-192351265D01*
X164649850Y-192391451D01*
X164636306Y-192417505D01*
X164620237Y-192442735D01*
X164601661Y-192466941D01*
X164580595Y-192489924D01*
X164557485Y-192511103D01*
X164533172Y-192529749D01*
X164507853Y-192545851D01*
X164481729Y-192559398D01*
X164441468Y-192574900D01*
X164400518Y-192584588D01*
X164359551Y-192588422D01*
X164319239Y-192586363D01*
X164280257Y-192578372D01*
X164243277Y-192564411D01*
X164208973Y-192544440D01*
X164178018Y-192518421D01*
X164156046Y-192493010D01*
X164138225Y-192465150D01*
X164124540Y-192435238D01*
X164114976Y-192403671D01*
X164109516Y-192370846D01*
X164108145Y-192337159D01*
X164110847Y-192303009D01*
X164117605Y-192268792D01*
X164134678Y-192243712D01*
X164164833Y-192234446D01*
X164187655Y-192238948D01*
G37*
G36*
X164126572Y-191670940D02*
G01*
X164160279Y-191678821D01*
X164192823Y-191692108D01*
X164224034Y-191710395D01*
X164253741Y-191733276D01*
X164272626Y-191750882D01*
X164292588Y-191774155D01*
X164308395Y-191799592D01*
X164320029Y-191826716D01*
X164329021Y-191864684D01*
X164330520Y-191903678D01*
X164326702Y-191932918D01*
X164318627Y-191961625D01*
X164306279Y-191989322D01*
X164289639Y-192015534D01*
X164268733Y-192039731D01*
X164244756Y-192060416D01*
X164218724Y-192076877D01*
X164191174Y-192089078D01*
X164162586Y-192097034D01*
X164133438Y-192100760D01*
X164094532Y-192099173D01*
X164056618Y-192090127D01*
X164029517Y-192078469D01*
X164004093Y-192062650D01*
X163980822Y-192042686D01*
X163960373Y-192019209D01*
X163943756Y-191993398D01*
X163931703Y-191965819D01*
X163927249Y-191949943D01*
X163907457Y-191942585D01*
X163887500Y-191967667D01*
X163875364Y-191997487D01*
X163871832Y-192029486D01*
X163877686Y-192061100D01*
X163893710Y-192089769D01*
X163901447Y-192098228D01*
X163926651Y-192116498D01*
X163956822Y-192127768D01*
X163988792Y-192131713D01*
X163995123Y-192131595D01*
X164026783Y-192132202D01*
X164056349Y-192140878D01*
X164075169Y-192164111D01*
X164076881Y-192171075D01*
X164070015Y-192202227D01*
X164048620Y-192226361D01*
X164021285Y-192239705D01*
X164018541Y-192240192D01*
X163983988Y-192241578D01*
X163949842Y-192236412D01*
X163916772Y-192225716D01*
X163885443Y-192210513D01*
X163856522Y-192191823D01*
X163830675Y-192170671D01*
X163821346Y-192161749D01*
X163798934Y-192136169D01*
X163782038Y-192110102D01*
X163766194Y-192070346D01*
X163760597Y-192030155D01*
X163763952Y-191989927D01*
X163774962Y-191950059D01*
X163792329Y-191910948D01*
X163804155Y-191890934D01*
X164007084Y-191890934D01*
X164014203Y-191923792D01*
X164030434Y-191948791D01*
X164034085Y-191952533D01*
X164059348Y-191972523D01*
X164089761Y-191985366D01*
X164119555Y-191987257D01*
X164147965Y-191979470D01*
X164174224Y-191963278D01*
X164186308Y-191952430D01*
X164206097Y-191927511D01*
X164218060Y-191900185D01*
X164220815Y-191866630D01*
X164212450Y-191837603D01*
X164193145Y-191809415D01*
X164188795Y-191804870D01*
X164164888Y-191785672D01*
X164135926Y-191773668D01*
X164102640Y-191773219D01*
X164070949Y-191785385D01*
X164045894Y-191804274D01*
X164041960Y-191808082D01*
X164022340Y-191833486D01*
X164010552Y-191861720D01*
X164007084Y-191890934D01*
X163804155Y-191890934D01*
X163814758Y-191872991D01*
X163831882Y-191848523D01*
X163850295Y-191824862D01*
X163869612Y-191802126D01*
X163889451Y-191780431D01*
X163909426Y-191759897D01*
X163934177Y-191736957D01*
X163958889Y-191717561D01*
X163983513Y-191701589D01*
X164020172Y-191683789D01*
X164056349Y-191673019D01*
X164091872Y-191668871D01*
X164126572Y-191670940D01*
G37*
G36*
X164268688Y-192039784D02*
G01*
X164268733Y-192039731D01*
X164268792Y-192039681D01*
X164268688Y-192039784D01*
G37*
G36*
X164311489Y-178358946D02*
G01*
X164340909Y-178355667D01*
X164368956Y-178367716D01*
X164389745Y-178388695D01*
X164390477Y-178389574D01*
X164410286Y-178414474D01*
X164433069Y-178434157D01*
X164462196Y-178449508D01*
X164493999Y-178456396D01*
X164502292Y-178456692D01*
X164532609Y-178452681D01*
X164560839Y-178441170D01*
X164586380Y-178422944D01*
X164608629Y-178398788D01*
X164626983Y-178369487D01*
X164640839Y-178335826D01*
X164649595Y-178298590D01*
X164652452Y-178268788D01*
X164652648Y-178258562D01*
X164650917Y-178228551D01*
X164643530Y-178190732D01*
X164630892Y-178156170D01*
X164613606Y-178125683D01*
X164592275Y-178100090D01*
X164567500Y-178080206D01*
X164539885Y-178066850D01*
X164510034Y-178060838D01*
X164502292Y-178060579D01*
X164471117Y-178064932D01*
X164442096Y-178077397D01*
X164415909Y-178097080D01*
X164396236Y-178119019D01*
X164382124Y-178140447D01*
X164361285Y-178164008D01*
X164331800Y-178175117D01*
X164308119Y-178171075D01*
X164284057Y-178152537D01*
X164272665Y-178125310D01*
X164277930Y-178097948D01*
X164278810Y-178097069D01*
X164297771Y-178066171D01*
X164319849Y-178038322D01*
X164344768Y-178013854D01*
X164372251Y-177993095D01*
X164402021Y-177976375D01*
X164433802Y-177964024D01*
X164467318Y-177956371D01*
X164502292Y-177953747D01*
X164542782Y-177957262D01*
X164581284Y-177967461D01*
X164617361Y-177983824D01*
X164650579Y-178005834D01*
X164680502Y-178032971D01*
X164706694Y-178064717D01*
X164728721Y-178100554D01*
X164746146Y-178139961D01*
X164754992Y-178167961D01*
X164761470Y-178197163D01*
X164765451Y-178227415D01*
X164766807Y-178258562D01*
X164765441Y-178289879D01*
X164761434Y-178320256D01*
X164754916Y-178349545D01*
X164746023Y-178377596D01*
X164728516Y-178417027D01*
X164706410Y-178452833D01*
X164680153Y-178484513D01*
X164650193Y-178511561D01*
X164616978Y-178533476D01*
X164580957Y-178549752D01*
X164542579Y-178559887D01*
X164502292Y-178563377D01*
X164468787Y-178560946D01*
X164436486Y-178553847D01*
X164405658Y-178542373D01*
X164376574Y-178526814D01*
X164349502Y-178507464D01*
X164324713Y-178484614D01*
X164302475Y-178458555D01*
X164283059Y-178429581D01*
X164277397Y-178399774D01*
X164292168Y-178371899D01*
X164311489Y-178358946D01*
G37*
G36*
X164227226Y-178014271D02*
G01*
X164219743Y-178043447D01*
X164199999Y-178065132D01*
X164172043Y-178075354D01*
X164165823Y-178075673D01*
X164124199Y-178075577D01*
X164087566Y-178075354D01*
X164055727Y-178075098D01*
X164020394Y-178074876D01*
X163987018Y-178075108D01*
X163956420Y-178077711D01*
X163949961Y-178082414D01*
X163963274Y-178110468D01*
X163981491Y-178136716D01*
X163999257Y-178162340D01*
X164001985Y-178166385D01*
X164019302Y-178192613D01*
X164035547Y-178218554D01*
X164050576Y-178244233D01*
X164066377Y-178273891D01*
X164080094Y-178303259D01*
X164091170Y-178331433D01*
X164100269Y-178360737D01*
X164108038Y-178391931D01*
X164115127Y-178425773D01*
X164120984Y-178456547D01*
X164124644Y-178476329D01*
X164123061Y-178508006D01*
X164105288Y-178532747D01*
X164076051Y-178544512D01*
X164065879Y-178545206D01*
X164036134Y-178537225D01*
X164014592Y-178513155D01*
X164005581Y-178485048D01*
X164004623Y-178478088D01*
X164000803Y-178448438D01*
X163995423Y-178417897D01*
X163988564Y-178387678D01*
X163978986Y-178353636D01*
X163969015Y-178323972D01*
X163956702Y-178292414D01*
X163941876Y-178261403D01*
X163926477Y-178234023D01*
X163909423Y-178206575D01*
X163891757Y-178180308D01*
X163874522Y-178156470D01*
X163855879Y-178132826D01*
X163833379Y-178107980D01*
X163809987Y-178083780D01*
X163791626Y-178060731D01*
X163779437Y-178030402D01*
X163777770Y-178011779D01*
X163786942Y-177981343D01*
X163810623Y-177960595D01*
X163839905Y-177953747D01*
X164165823Y-177953747D01*
X164194935Y-177961025D01*
X164218254Y-177982828D01*
X164227145Y-178011144D01*
X164227226Y-178014271D01*
G37*
D14*
X102579819Y-90338095D02*
X103389342Y-90338095D01*
X103389342Y-90338095D02*
X103484580Y-90385714D01*
X103484580Y-90385714D02*
X103532200Y-90433333D01*
X103532200Y-90433333D02*
X103579819Y-90528571D01*
X103579819Y-90528571D02*
X103579819Y-90719047D01*
X103579819Y-90719047D02*
X103532200Y-90814285D01*
X103532200Y-90814285D02*
X103484580Y-90861904D01*
X103484580Y-90861904D02*
X103389342Y-90909523D01*
X103389342Y-90909523D02*
X102579819Y-90909523D01*
X102913152Y-91814285D02*
X103579819Y-91814285D01*
X102532200Y-91576190D02*
X103246485Y-91338095D01*
X103246485Y-91338095D02*
X103246485Y-91957142D01*
G36*
X94416300Y-79567987D02*
G01*
X94454799Y-79577918D01*
X94485215Y-79607471D01*
X94496699Y-79645491D01*
X94496803Y-79649662D01*
X94496803Y-80184065D01*
X94507379Y-80225120D01*
X94535386Y-80252522D01*
X94575242Y-80264410D01*
X94584144Y-80264763D01*
X94626424Y-80253669D01*
X94659387Y-80227940D01*
X94682201Y-80191091D01*
X94689462Y-80152607D01*
X94702383Y-80113823D01*
X94735173Y-80090658D01*
X94754528Y-80087736D01*
X94792888Y-80100644D01*
X94815412Y-80133342D01*
X94818227Y-80152607D01*
X94813298Y-80201261D01*
X94799169Y-80246622D01*
X94776825Y-80287706D01*
X94747250Y-80323528D01*
X94711427Y-80353103D01*
X94670344Y-80375448D01*
X94624982Y-80389576D01*
X94576328Y-80394505D01*
X94527674Y-80389576D01*
X94482313Y-80375448D01*
X94441229Y-80353103D01*
X94405407Y-80323528D01*
X94375832Y-80287706D01*
X94353487Y-80246622D01*
X94339359Y-80201261D01*
X94334430Y-80152607D01*
X94334430Y-79649662D01*
X94344367Y-79610372D01*
X94373970Y-79579623D01*
X94412112Y-79568091D01*
X94416300Y-79567987D01*
G37*
G36*
X93937389Y-80312830D02*
G01*
X93927724Y-80351600D01*
X93898701Y-80382596D01*
X93860877Y-80394397D01*
X93856691Y-80394505D01*
X93817921Y-80384574D01*
X93786925Y-80355020D01*
X93775124Y-80317001D01*
X93775016Y-80312830D01*
X93775016Y-79663144D01*
X93784469Y-79623410D01*
X93814185Y-79596840D01*
X93847703Y-79590457D01*
X93888891Y-79599259D01*
X93917917Y-79626311D01*
X93939538Y-79660995D01*
X93967455Y-79690124D01*
X94000792Y-79711140D01*
X94033718Y-79724889D01*
X94067396Y-79747045D01*
X94088049Y-79782464D01*
X94089797Y-79795426D01*
X94074409Y-79832648D01*
X94039385Y-79853653D01*
X93999207Y-79857044D01*
X93963181Y-79856975D01*
X93937559Y-79888360D01*
X93937389Y-79900743D01*
X93937389Y-80312830D01*
G37*
D12*
G36*
X88188254Y-94853947D02*
G01*
X88217674Y-94850668D01*
X88245721Y-94862717D01*
X88266510Y-94883696D01*
X88267242Y-94884575D01*
X88287051Y-94909475D01*
X88309834Y-94929158D01*
X88338961Y-94944509D01*
X88370764Y-94951397D01*
X88379057Y-94951693D01*
X88409374Y-94947682D01*
X88437604Y-94936171D01*
X88463145Y-94917945D01*
X88485394Y-94893789D01*
X88503748Y-94864488D01*
X88517604Y-94830827D01*
X88526360Y-94793591D01*
X88529217Y-94763789D01*
X88529413Y-94753563D01*
X88527682Y-94723552D01*
X88520295Y-94685733D01*
X88507657Y-94651171D01*
X88490371Y-94620684D01*
X88469040Y-94595091D01*
X88444265Y-94575207D01*
X88416650Y-94561851D01*
X88386799Y-94555839D01*
X88379057Y-94555580D01*
X88347882Y-94559933D01*
X88318861Y-94572398D01*
X88292674Y-94592081D01*
X88273001Y-94614020D01*
X88258889Y-94635448D01*
X88238050Y-94659009D01*
X88208565Y-94670118D01*
X88184884Y-94666076D01*
X88160822Y-94647538D01*
X88149430Y-94620311D01*
X88154695Y-94592949D01*
X88155575Y-94592070D01*
X88174536Y-94561172D01*
X88196614Y-94533323D01*
X88221533Y-94508855D01*
X88249016Y-94488096D01*
X88278786Y-94471376D01*
X88310567Y-94459025D01*
X88344083Y-94451372D01*
X88379057Y-94448748D01*
X88419547Y-94452263D01*
X88458049Y-94462462D01*
X88494126Y-94478825D01*
X88527344Y-94500835D01*
X88557267Y-94527972D01*
X88583459Y-94559718D01*
X88605486Y-94595555D01*
X88622911Y-94634962D01*
X88631757Y-94662962D01*
X88638235Y-94692164D01*
X88642216Y-94722416D01*
X88643572Y-94753563D01*
X88642206Y-94784880D01*
X88638199Y-94815257D01*
X88631681Y-94844546D01*
X88622788Y-94872597D01*
X88605281Y-94912028D01*
X88583175Y-94947834D01*
X88556918Y-94979514D01*
X88526958Y-95006562D01*
X88493743Y-95028477D01*
X88457722Y-95044753D01*
X88419344Y-95054888D01*
X88379057Y-95058378D01*
X88345552Y-95055947D01*
X88313251Y-95048848D01*
X88282423Y-95037374D01*
X88253339Y-95021815D01*
X88226267Y-95002465D01*
X88201478Y-94979615D01*
X88179240Y-94953556D01*
X88159824Y-94924582D01*
X88154162Y-94894775D01*
X88168933Y-94866900D01*
X88188254Y-94853947D01*
G37*
G36*
X87895603Y-94997122D02*
G01*
X87888354Y-95026200D01*
X87866587Y-95049447D01*
X87838218Y-95058298D01*
X87835079Y-95058378D01*
X87806001Y-95050930D01*
X87782755Y-95028765D01*
X87773904Y-95000251D01*
X87773823Y-94997122D01*
X87773823Y-94509858D01*
X87780912Y-94480057D01*
X87803199Y-94460130D01*
X87828338Y-94455343D01*
X87859229Y-94461944D01*
X87880999Y-94482233D01*
X87897215Y-94508246D01*
X87918152Y-94530093D01*
X87943155Y-94545855D01*
X87967850Y-94556166D01*
X87993108Y-94572783D01*
X88008598Y-94599348D01*
X88009908Y-94609069D01*
X87998367Y-94636986D01*
X87972099Y-94652740D01*
X87941966Y-94655283D01*
X87914947Y-94655231D01*
X87895730Y-94678770D01*
X87895603Y-94688057D01*
X87895603Y-94997122D01*
G37*
G36*
X87324493Y-94470806D02*
G01*
X87349528Y-94488474D01*
X87372970Y-94513528D01*
X87393683Y-94538874D01*
X87412368Y-94562420D01*
X87435461Y-94591737D01*
X87457043Y-94619255D01*
X87477732Y-94645603D01*
X87498150Y-94671409D01*
X87518916Y-94697301D01*
X87540651Y-94723909D01*
X87563973Y-94751861D01*
X87570124Y-94759132D01*
X87588126Y-94782350D01*
X87601222Y-94809194D01*
X87604563Y-94832258D01*
X87598083Y-94864757D01*
X87580419Y-94892104D01*
X87554238Y-94910960D01*
X87522204Y-94917988D01*
X87361883Y-94917988D01*
X87340807Y-94938716D01*
X87340780Y-94939823D01*
X87340780Y-94986864D01*
X87333536Y-95015942D01*
X87311806Y-95039189D01*
X87283529Y-95048040D01*
X87280404Y-95048120D01*
X87251227Y-95040672D01*
X87227938Y-95018507D01*
X87219081Y-94989992D01*
X87219001Y-94986864D01*
X87219001Y-94938944D01*
X87198260Y-94918014D01*
X87197166Y-94917988D01*
X87187054Y-94917988D01*
X87158314Y-94909294D01*
X87138976Y-94884432D01*
X87135910Y-94866697D01*
X87144557Y-94837632D01*
X87167007Y-94818659D01*
X87187054Y-94814526D01*
X87198045Y-94814526D01*
X87218974Y-94793798D01*
X87219001Y-94792691D01*
X87219001Y-94791079D01*
X87327445Y-94791079D01*
X87346014Y-94814072D01*
X87350892Y-94814526D01*
X87462560Y-94814526D01*
X87475163Y-94790200D01*
X87360124Y-94635448D01*
X87330137Y-94635873D01*
X87327445Y-94646292D01*
X87327445Y-94791079D01*
X87219001Y-94791079D01*
X87219001Y-94531254D01*
X87226246Y-94500504D01*
X87245805Y-94478569D01*
X87274409Y-94466679D01*
X87293007Y-94464868D01*
X87324493Y-94470806D01*
G37*
G36*
X173216972Y-182359319D02*
G01*
X173235456Y-182336197D01*
X173263808Y-182324885D01*
X173293343Y-182325020D01*
X173294483Y-182325124D01*
X173326096Y-182328724D01*
X173356124Y-182326532D01*
X173387575Y-182316790D01*
X173414933Y-182299173D01*
X173421007Y-182293518D01*
X173439608Y-182269245D01*
X173451430Y-182241143D01*
X173456603Y-182210195D01*
X173455254Y-182177382D01*
X173447514Y-182143685D01*
X173433510Y-182110085D01*
X173413371Y-182077564D01*
X173394318Y-182054471D01*
X173387226Y-182047102D01*
X173364781Y-182027105D01*
X173332815Y-182005586D01*
X173299440Y-181990083D01*
X173265659Y-181980749D01*
X173232478Y-181977735D01*
X173200900Y-181981193D01*
X173171929Y-181991275D01*
X173146570Y-182008133D01*
X173140913Y-182013424D01*
X173121947Y-182038546D01*
X173110239Y-182067881D01*
X173105640Y-182100316D01*
X173107243Y-182129740D01*
X173112416Y-182154870D01*
X173114341Y-182186266D01*
X173101347Y-182214971D01*
X173081744Y-182228857D01*
X173051621Y-182232763D01*
X173024314Y-182221567D01*
X173008689Y-182198496D01*
X173008689Y-182197252D01*
X173000248Y-182161996D01*
X172996168Y-182126693D01*
X172996487Y-182091771D01*
X173001241Y-182057658D01*
X173010469Y-182024785D01*
X173024208Y-181993579D01*
X173042496Y-181964468D01*
X173065371Y-181937883D01*
X173096487Y-181911737D01*
X173130924Y-181891724D01*
X173168005Y-181877784D01*
X173207057Y-181869859D01*
X173247405Y-181867889D01*
X173288373Y-181871816D01*
X173329288Y-181881581D01*
X173369475Y-181897125D01*
X173395529Y-181910669D01*
X173420758Y-181926737D01*
X173444965Y-181945313D01*
X173467948Y-181966379D01*
X173489127Y-181989489D01*
X173507773Y-182013803D01*
X173523875Y-182039121D01*
X173537421Y-182065246D01*
X173552924Y-182105506D01*
X173562612Y-182146456D01*
X173566446Y-182187424D01*
X173564387Y-182227735D01*
X173556396Y-182266717D01*
X173542435Y-182303697D01*
X173522464Y-182338001D01*
X173496445Y-182368956D01*
X173471034Y-182390929D01*
X173443174Y-182408749D01*
X173413262Y-182422434D01*
X173381695Y-182431998D01*
X173348869Y-182437458D01*
X173315183Y-182438829D01*
X173281033Y-182436128D01*
X173246816Y-182429369D01*
X173221735Y-182412296D01*
X173212469Y-182382141D01*
X173216972Y-182359319D01*
G37*
G36*
X173111276Y-182667496D02*
G01*
X173126712Y-182693182D01*
X173127758Y-182725012D01*
X173113957Y-182751330D01*
X173111794Y-182753607D01*
X173085967Y-182768901D01*
X173053855Y-182769666D01*
X173027434Y-182755762D01*
X173025165Y-182753607D01*
X172680617Y-182409059D01*
X172664558Y-182382973D01*
X172666226Y-182353124D01*
X172680617Y-182331963D01*
X172707128Y-182314787D01*
X172736868Y-182313741D01*
X172766728Y-182320668D01*
X172796981Y-182321311D01*
X172825807Y-182314776D01*
X172850560Y-182304606D01*
X172880170Y-182298496D01*
X172909907Y-182306327D01*
X172917708Y-182312274D01*
X172929287Y-182340175D01*
X172921853Y-182369889D01*
X172902343Y-182392994D01*
X172883201Y-182412064D01*
X172886257Y-182442296D01*
X172892734Y-182448954D01*
X173111276Y-182667496D01*
G37*
G36*
X172755226Y-183023546D02*
G01*
X172770662Y-183049232D01*
X172771708Y-183081062D01*
X172757907Y-183107380D01*
X172755744Y-183109657D01*
X172729916Y-183124951D01*
X172697805Y-183125716D01*
X172671384Y-183111812D01*
X172669115Y-183109657D01*
X172324567Y-182765109D01*
X172308508Y-182739024D01*
X172310176Y-182709174D01*
X172324567Y-182688013D01*
X172351077Y-182670838D01*
X172380818Y-182669791D01*
X172410678Y-182676718D01*
X172440931Y-182677361D01*
X172469756Y-182670827D01*
X172494509Y-182660656D01*
X172524120Y-182654546D01*
X172553856Y-182662377D01*
X172561657Y-182668325D01*
X172573237Y-182696225D01*
X172565802Y-182725939D01*
X172546293Y-182749044D01*
X172527151Y-182768114D01*
X172530207Y-182798346D01*
X172536684Y-182805004D01*
X172755226Y-183023546D01*
G37*
D14*
G36*
X164459757Y-192971674D02*
G01*
X164482610Y-192993699D01*
X164491229Y-193022566D01*
X164491307Y-193025772D01*
X164491307Y-193515528D01*
X164484059Y-193544606D01*
X164462292Y-193567852D01*
X164433923Y-193576703D01*
X164430784Y-193576784D01*
X164401706Y-193569336D01*
X164378459Y-193547171D01*
X164369608Y-193518656D01*
X164369528Y-193515528D01*
X164369528Y-193349931D01*
X164354434Y-193329854D01*
X164280428Y-193328975D01*
X164250660Y-193331901D01*
X164222054Y-193342616D01*
X164198594Y-193362954D01*
X164183307Y-193392249D01*
X164177559Y-193421860D01*
X164177113Y-193433169D01*
X164177113Y-193515528D01*
X164169865Y-193544606D01*
X164148098Y-193567852D01*
X164119729Y-193576703D01*
X164116590Y-193576784D01*
X164087512Y-193569336D01*
X164064265Y-193547171D01*
X164055414Y-193518656D01*
X164055334Y-193515528D01*
X164055334Y-193433169D01*
X164057413Y-193400242D01*
X164063804Y-193368457D01*
X164074739Y-193339142D01*
X164090450Y-193313622D01*
X164115125Y-193290418D01*
X164119228Y-193287796D01*
X164119961Y-193267719D01*
X164095767Y-193250947D01*
X164072504Y-193227086D01*
X164055382Y-193198206D01*
X164046229Y-193169143D01*
X164044793Y-193155465D01*
X164152787Y-193155465D01*
X164158829Y-193185411D01*
X164175546Y-193210360D01*
X164200819Y-193228767D01*
X164232532Y-193239085D01*
X164252731Y-193240755D01*
X164348572Y-193240755D01*
X164370407Y-193222876D01*
X164369528Y-193089812D01*
X164348572Y-193071201D01*
X164252731Y-193071201D01*
X164222938Y-193074821D01*
X164192848Y-193087363D01*
X164169804Y-193107487D01*
X164155921Y-193133749D01*
X164152787Y-193155465D01*
X164044793Y-193155465D01*
X164042731Y-193135828D01*
X164046116Y-193097830D01*
X164057038Y-193064030D01*
X164074663Y-193034694D01*
X164098162Y-193010092D01*
X164126703Y-192990490D01*
X164159455Y-192976157D01*
X164195586Y-192967361D01*
X164234266Y-192964369D01*
X164430784Y-192964369D01*
X164459757Y-192971674D01*
G37*
G36*
X163539786Y-193527105D02*
G01*
X163548964Y-193498145D01*
X163572687Y-193480838D01*
X163602068Y-193475667D01*
X163643275Y-193475903D01*
X163678770Y-193476471D01*
X163708915Y-193477163D01*
X163741413Y-193477917D01*
X163770875Y-193477893D01*
X163799912Y-193469529D01*
X163801077Y-193464237D01*
X163784804Y-193438796D01*
X163763506Y-193417562D01*
X163737773Y-193395648D01*
X163711051Y-193376161D01*
X163694392Y-193366051D01*
X163667185Y-193349289D01*
X163642455Y-193329939D01*
X163620466Y-193308243D01*
X163601482Y-193284443D01*
X163585768Y-193258782D01*
X163573588Y-193231502D01*
X163565207Y-193202844D01*
X163560889Y-193173050D01*
X163561959Y-193141778D01*
X163569423Y-193108483D01*
X163583065Y-193075085D01*
X163602673Y-193043504D01*
X163628029Y-193015660D01*
X163658921Y-192993472D01*
X163695133Y-192978862D01*
X163725654Y-192974031D01*
X163736450Y-192973748D01*
X163773812Y-192975812D01*
X163806271Y-192981201D01*
X163842571Y-192992976D01*
X163871712Y-193009263D01*
X163894583Y-193029260D01*
X163915709Y-193058257D01*
X163930166Y-193090239D01*
X163938097Y-193116923D01*
X163938425Y-193146619D01*
X163923711Y-193173384D01*
X163894280Y-193184481D01*
X163865918Y-193176529D01*
X163848933Y-193151554D01*
X163837365Y-193119113D01*
X163821794Y-193093535D01*
X163792216Y-193075406D01*
X163753040Y-193070125D01*
X163740554Y-193070468D01*
X163710824Y-193081201D01*
X163687504Y-193101866D01*
X163672827Y-193127543D01*
X163667396Y-193160083D01*
X163670945Y-193185360D01*
X163685694Y-193218842D01*
X163704158Y-193243982D01*
X163726596Y-193267524D01*
X163751209Y-193289346D01*
X163776195Y-193309323D01*
X163799756Y-193327333D01*
X163824461Y-193346888D01*
X163832145Y-193353741D01*
X163855555Y-193375786D01*
X163880144Y-193400010D01*
X163903803Y-193426404D01*
X163924429Y-193454957D01*
X163939912Y-193485659D01*
X163948148Y-193518501D01*
X163948942Y-193532234D01*
X163939324Y-193560723D01*
X163914802Y-193578099D01*
X163885048Y-193583378D01*
X163602068Y-193583378D01*
X163572687Y-193577116D01*
X163548964Y-193557451D01*
X163539786Y-193527105D01*
G37*
X149594819Y-183988095D02*
X150404342Y-183988095D01*
X150404342Y-183988095D02*
X150499580Y-184035714D01*
X150499580Y-184035714D02*
X150547200Y-184083333D01*
X150547200Y-184083333D02*
X150594819Y-184178571D01*
X150594819Y-184178571D02*
X150594819Y-184369047D01*
X150594819Y-184369047D02*
X150547200Y-184464285D01*
X150547200Y-184464285D02*
X150499580Y-184511904D01*
X150499580Y-184511904D02*
X150404342Y-184559523D01*
X150404342Y-184559523D02*
X149594819Y-184559523D01*
X149690057Y-184988095D02*
X149642438Y-185035714D01*
X149642438Y-185035714D02*
X149594819Y-185130952D01*
X149594819Y-185130952D02*
X149594819Y-185369047D01*
X149594819Y-185369047D02*
X149642438Y-185464285D01*
X149642438Y-185464285D02*
X149690057Y-185511904D01*
X149690057Y-185511904D02*
X149785295Y-185559523D01*
X149785295Y-185559523D02*
X149880533Y-185559523D01*
X149880533Y-185559523D02*
X150023390Y-185511904D01*
X150023390Y-185511904D02*
X150594819Y-184940476D01*
X150594819Y-184940476D02*
X150594819Y-185559523D01*
G36*
X145958579Y-180616651D02*
G01*
X145987759Y-180642978D01*
X146001439Y-180680252D01*
X146001865Y-180688545D01*
X146001865Y-181294072D01*
X145991898Y-181333634D01*
X145965410Y-181362813D01*
X145927515Y-181376493D01*
X145919018Y-181376919D01*
X145584112Y-181376919D01*
X145539949Y-181372495D01*
X145498770Y-181359804D01*
X145461470Y-181339722D01*
X145428944Y-181313123D01*
X145402088Y-181280882D01*
X145381796Y-181243874D01*
X145368965Y-181202973D01*
X145364489Y-181159055D01*
X145365920Y-181144400D01*
X145528034Y-181144400D01*
X145536090Y-181183715D01*
X145558379Y-181216630D01*
X145592076Y-181241012D01*
X145634361Y-181254724D01*
X145661292Y-181256947D01*
X145802563Y-181256947D01*
X145830504Y-181233695D01*
X145830504Y-181055300D01*
X145802563Y-181031853D01*
X145661292Y-181031853D01*
X145621568Y-181036898D01*
X145581449Y-181054161D01*
X145550723Y-181081398D01*
X145532213Y-181116215D01*
X145528034Y-181144400D01*
X145365920Y-181144400D01*
X145368611Y-181116836D01*
X145380408Y-181077341D01*
X145399021Y-181041395D01*
X145423592Y-181009825D01*
X145453264Y-180983460D01*
X145464140Y-180975970D01*
X145466484Y-180942362D01*
X145438323Y-180913313D01*
X145416757Y-180878786D01*
X145402957Y-180839899D01*
X145401433Y-180826689D01*
X145558320Y-180826689D01*
X145567747Y-180866378D01*
X145593442Y-180898448D01*
X145631519Y-180919892D01*
X145671942Y-180927579D01*
X145678096Y-180927708D01*
X145805884Y-180927708D01*
X145830504Y-180906605D01*
X145830504Y-180746577D01*
X145805884Y-180725475D01*
X145678096Y-180725475D01*
X145636956Y-180731640D01*
X145597604Y-180751842D01*
X145570149Y-180782901D01*
X145558476Y-180821499D01*
X145558320Y-180826689D01*
X145401433Y-180826689D01*
X145398096Y-180797771D01*
X145404225Y-180750282D01*
X145421538Y-180707041D01*
X145448425Y-180669603D01*
X145483276Y-180639524D01*
X145524481Y-180618361D01*
X145570431Y-180607670D01*
X145589778Y-180606675D01*
X145919018Y-180606675D01*
X145958579Y-180616651D01*
G37*
G36*
X144968874Y-180586351D02*
G01*
X145020209Y-180599949D01*
X145068312Y-180621767D01*
X145112603Y-180651113D01*
X145152500Y-180687297D01*
X145187423Y-180729625D01*
X145216792Y-180777406D01*
X145240025Y-180829950D01*
X145251819Y-180867282D01*
X145260457Y-180906219D01*
X145265765Y-180946555D01*
X145267573Y-180988085D01*
X145265752Y-181029840D01*
X145260409Y-181070343D01*
X145251719Y-181109395D01*
X145239861Y-181146797D01*
X145216519Y-181199370D01*
X145187044Y-181247113D01*
X145152035Y-181289352D01*
X145112088Y-181325416D01*
X145067801Y-181354636D01*
X145019774Y-181376338D01*
X144968603Y-181389851D01*
X144914886Y-181394505D01*
X144861420Y-181389851D01*
X144810452Y-181376338D01*
X144762586Y-181354636D01*
X144718423Y-181325416D01*
X144678568Y-181289352D01*
X144643623Y-181247113D01*
X144614191Y-181199370D01*
X144590874Y-181146797D01*
X144579024Y-181109395D01*
X144570339Y-181070343D01*
X144564997Y-181029840D01*
X144563177Y-180988085D01*
X144715389Y-180988085D01*
X144717696Y-181028420D01*
X144727535Y-181079097D01*
X144744356Y-181125269D01*
X144767343Y-181165888D01*
X144795682Y-181199909D01*
X144828556Y-181226284D01*
X144865152Y-181243969D01*
X144904653Y-181251915D01*
X144914886Y-181252258D01*
X144955309Y-181246909D01*
X144992949Y-181231561D01*
X145027004Y-181207260D01*
X145056669Y-181175053D01*
X145081141Y-181135985D01*
X145099616Y-181091103D01*
X145111291Y-181041454D01*
X145115100Y-181001719D01*
X145115361Y-180988085D01*
X145113053Y-180948070D01*
X145103204Y-180897644D01*
X145086354Y-180851562D01*
X145063306Y-180810913D01*
X145034863Y-180776788D01*
X145001831Y-180750276D01*
X144965011Y-180732468D01*
X144925209Y-180724453D01*
X144914886Y-180724107D01*
X144874786Y-180729503D01*
X144837388Y-180744965D01*
X144803507Y-180769403D01*
X144773958Y-180801727D01*
X144749557Y-180840847D01*
X144731118Y-180885674D01*
X144719457Y-180935116D01*
X144715649Y-180974571D01*
X144715389Y-180988085D01*
X144563177Y-180988085D01*
X144564997Y-180946555D01*
X144570339Y-180906219D01*
X144579024Y-180867282D01*
X144590874Y-180829950D01*
X144614191Y-180777406D01*
X144643623Y-180729625D01*
X144678568Y-180687297D01*
X144718423Y-180651113D01*
X144762586Y-180621767D01*
X144810452Y-180599949D01*
X144861420Y-180586351D01*
X144914886Y-180581665D01*
X144968874Y-180586351D01*
G37*
G36*
X144181825Y-180586351D02*
G01*
X144233161Y-180599949D01*
X144281264Y-180621767D01*
X144325555Y-180651113D01*
X144365452Y-180687297D01*
X144400375Y-180729625D01*
X144429744Y-180777406D01*
X144452977Y-180829950D01*
X144464771Y-180867282D01*
X144473409Y-180906219D01*
X144478717Y-180946555D01*
X144480525Y-180988085D01*
X144478704Y-181029840D01*
X144473361Y-181070343D01*
X144464671Y-181109395D01*
X144452812Y-181146797D01*
X144429471Y-181199370D01*
X144399996Y-181247113D01*
X144364987Y-181289352D01*
X144325039Y-181325416D01*
X144280753Y-181354636D01*
X144232726Y-181376338D01*
X144181555Y-181389851D01*
X144127838Y-181394505D01*
X144074372Y-181389851D01*
X144023404Y-181376338D01*
X143975537Y-181354636D01*
X143931375Y-181325416D01*
X143891520Y-181289352D01*
X143856575Y-181247113D01*
X143827143Y-181199370D01*
X143803826Y-181146797D01*
X143791976Y-181109395D01*
X143783291Y-181070343D01*
X143777949Y-181029840D01*
X143776128Y-180988085D01*
X143928341Y-180988085D01*
X143930648Y-181028420D01*
X143940487Y-181079097D01*
X143957308Y-181125269D01*
X143980295Y-181165888D01*
X144008634Y-181199909D01*
X144041508Y-181226284D01*
X144078103Y-181243969D01*
X144117604Y-181251915D01*
X144127838Y-181252258D01*
X144168261Y-181246909D01*
X144205901Y-181231561D01*
X144239956Y-181207260D01*
X144269621Y-181175053D01*
X144294093Y-181135985D01*
X144312568Y-181091103D01*
X144324243Y-181041454D01*
X144328052Y-181001719D01*
X144328313Y-180988085D01*
X144326004Y-180948070D01*
X144316156Y-180897644D01*
X144299306Y-180851562D01*
X144276257Y-180810913D01*
X144247815Y-180776788D01*
X144214782Y-180750276D01*
X144177963Y-180732468D01*
X144138161Y-180724453D01*
X144127838Y-180724107D01*
X144087738Y-180729503D01*
X144050340Y-180744965D01*
X144016459Y-180769403D01*
X143986910Y-180801727D01*
X143962509Y-180840847D01*
X143944070Y-180885674D01*
X143932409Y-180935116D01*
X143928601Y-180974571D01*
X143928341Y-180988085D01*
X143776128Y-180988085D01*
X143777949Y-180946555D01*
X143783291Y-180906219D01*
X143791976Y-180867282D01*
X143803826Y-180829950D01*
X143827143Y-180777406D01*
X143856575Y-180729625D01*
X143891520Y-180687297D01*
X143931375Y-180651113D01*
X143975537Y-180621767D01*
X144023404Y-180599949D01*
X144074372Y-180586351D01*
X144127838Y-180581665D01*
X144181825Y-180586351D01*
G37*
G36*
X143191704Y-180569159D02*
G01*
X143631927Y-180569159D01*
X143670471Y-180579100D01*
X143700984Y-180608454D01*
X143712521Y-180645792D01*
X143712625Y-180649857D01*
X143702921Y-180688759D01*
X143673851Y-180719811D01*
X143636096Y-180731620D01*
X143631927Y-180731727D01*
X143519967Y-180731727D01*
X143492025Y-180759669D01*
X143492025Y-181300715D01*
X143482321Y-181339486D01*
X143453251Y-181370482D01*
X143415496Y-181382283D01*
X143411327Y-181382390D01*
X143372512Y-181372460D01*
X143341419Y-181342906D01*
X143329565Y-181304887D01*
X143329457Y-181300715D01*
X143329457Y-180759669D01*
X143301516Y-180731727D01*
X143191704Y-180731727D01*
X143152934Y-180722023D01*
X143121938Y-180692953D01*
X143110137Y-180655198D01*
X143110029Y-180651030D01*
X143119960Y-180612214D01*
X143149514Y-180581121D01*
X143187533Y-180569267D01*
X143191704Y-180569159D01*
G37*
G36*
X142457217Y-181153193D02*
G01*
X142462183Y-181105626D01*
X142476278Y-181062371D01*
X142498300Y-181024220D01*
X142527046Y-180991964D01*
X142561312Y-180966395D01*
X142599895Y-180948304D01*
X142616268Y-180943339D01*
X142660980Y-180932583D01*
X142703697Y-180922127D01*
X142748782Y-180909586D01*
X142792721Y-180894557D01*
X142831998Y-180876632D01*
X142869185Y-180849538D01*
X142887280Y-180809103D01*
X142876662Y-180769112D01*
X142849395Y-180740524D01*
X142811772Y-180723512D01*
X142769299Y-180716584D01*
X142753044Y-180716096D01*
X142714079Y-180720792D01*
X142677830Y-180735983D01*
X142647165Y-180761552D01*
X142624373Y-180794084D01*
X142620762Y-180801092D01*
X142595703Y-180832911D01*
X142557475Y-180845701D01*
X142519591Y-180835922D01*
X142506456Y-180827471D01*
X142485041Y-180794613D01*
X142480356Y-180755070D01*
X142490968Y-180715372D01*
X142514509Y-180680412D01*
X142519939Y-180674672D01*
X142552498Y-180645422D01*
X142585803Y-180622364D01*
X142621115Y-180604993D01*
X142659695Y-180592803D01*
X142702805Y-180585290D01*
X142751706Y-180581947D01*
X142773170Y-180581665D01*
X142816481Y-180585244D01*
X142861009Y-180595794D01*
X142904597Y-180613030D01*
X142945092Y-180636668D01*
X142980339Y-180666424D01*
X143008183Y-180702015D01*
X143026470Y-180743156D01*
X143033044Y-180789564D01*
X143028959Y-180839929D01*
X143017390Y-180883096D01*
X142999361Y-180919727D01*
X142967047Y-180959552D01*
X142927506Y-180990512D01*
X142883169Y-181014181D01*
X142836468Y-181032132D01*
X142789834Y-181045938D01*
X142756366Y-181054519D01*
X142713439Y-181068007D01*
X142674676Y-181086341D01*
X142642548Y-181109296D01*
X142616751Y-181141619D01*
X142607280Y-181179571D01*
X142619816Y-181221224D01*
X142653784Y-181250182D01*
X142696796Y-181265610D01*
X142740625Y-181271816D01*
X142764182Y-181272579D01*
X142808830Y-181267861D01*
X142848893Y-181252469D01*
X142880877Y-181226184D01*
X142902261Y-181191853D01*
X142905256Y-181184260D01*
X142926973Y-181147809D01*
X142961627Y-181128200D01*
X143002758Y-181130332D01*
X143037684Y-181153561D01*
X143049074Y-181191480D01*
X143041079Y-181232462D01*
X143036366Y-181243856D01*
X143015044Y-181280398D01*
X142988161Y-181311578D01*
X142955943Y-181337547D01*
X142918616Y-181358454D01*
X142876408Y-181374453D01*
X142829544Y-181385694D01*
X142778252Y-181392327D01*
X142737013Y-181394370D01*
X142722758Y-181394505D01*
X142673994Y-181391173D01*
X142630411Y-181381679D01*
X142591926Y-181366774D01*
X142548396Y-181339782D01*
X142513579Y-181306289D01*
X142487276Y-181268076D01*
X142469288Y-181226923D01*
X142459416Y-181184613D01*
X142457217Y-181153193D01*
G37*
G36*
X141836254Y-181250108D02*
G01*
X142144391Y-181250108D01*
X142172332Y-181222167D01*
X142172332Y-181066829D01*
X142144391Y-181038887D01*
X141914607Y-181038887D01*
X141874744Y-181026491D01*
X141848607Y-180994456D01*
X141842897Y-180966005D01*
X141855283Y-180926142D01*
X141886916Y-180900005D01*
X141914607Y-180894295D01*
X142144391Y-180894295D01*
X142172332Y-180866354D01*
X142172332Y-180754198D01*
X142144391Y-180726256D01*
X141836254Y-180726256D01*
X141796305Y-180713861D01*
X141770226Y-180681825D01*
X141764544Y-180653374D01*
X141776878Y-180613512D01*
X141808481Y-180587374D01*
X141836254Y-180581665D01*
X142254007Y-180581665D01*
X142292637Y-180591641D01*
X142323109Y-180621291D01*
X142334601Y-180659363D01*
X142334705Y-180663535D01*
X142334705Y-181312830D01*
X142325040Y-181351600D01*
X142296017Y-181382596D01*
X142258193Y-181394397D01*
X142254007Y-181394505D01*
X141836254Y-181394505D01*
X141796305Y-181382181D01*
X141770226Y-181350651D01*
X141764544Y-181322990D01*
X141775003Y-181285112D01*
X141805309Y-181257262D01*
X141836254Y-181250108D01*
G37*
G36*
X141632849Y-181312830D02*
G01*
X141622918Y-181351600D01*
X141593364Y-181382596D01*
X141555345Y-181394397D01*
X141551174Y-181394505D01*
X141116422Y-181394505D01*
X141077651Y-181384574D01*
X141046655Y-181355020D01*
X141034854Y-181317001D01*
X141034747Y-181312830D01*
X141044677Y-181274286D01*
X141074231Y-181243774D01*
X141112250Y-181232237D01*
X141116422Y-181232132D01*
X141442535Y-181232132D01*
X141470476Y-181204191D01*
X141470476Y-180663144D01*
X141480407Y-180624374D01*
X141509960Y-180593378D01*
X141547980Y-180581576D01*
X141552151Y-180581469D01*
X141590781Y-180591400D01*
X141621252Y-180620954D01*
X141632745Y-180658973D01*
X141632849Y-180663144D01*
X141632849Y-181312830D01*
G37*
G36*
X140719576Y-181312830D02*
G01*
X140709911Y-181351600D01*
X140680888Y-181382596D01*
X140643063Y-181394397D01*
X140638878Y-181394505D01*
X140600107Y-181384574D01*
X140569112Y-181355020D01*
X140557310Y-181317001D01*
X140557203Y-181312830D01*
X140557203Y-180663144D01*
X140566656Y-180623410D01*
X140596371Y-180596840D01*
X140629890Y-180590457D01*
X140671077Y-180599259D01*
X140700104Y-180626311D01*
X140721725Y-180660995D01*
X140749642Y-180690124D01*
X140782979Y-180711140D01*
X140815905Y-180724889D01*
X140849583Y-180747045D01*
X140870236Y-180782464D01*
X140871983Y-180795426D01*
X140856596Y-180832648D01*
X140821572Y-180853653D01*
X140781394Y-180857044D01*
X140745368Y-180856975D01*
X140719746Y-180888360D01*
X140719576Y-180900743D01*
X140719576Y-181312830D01*
G37*
G36*
X163657705Y-187642064D02*
G01*
X163677650Y-187675682D01*
X163678823Y-187717548D01*
X163658534Y-187755359D01*
X163324314Y-188092895D01*
X163300053Y-188127049D01*
X163288610Y-188170656D01*
X163294018Y-188215602D01*
X163311026Y-188253035D01*
X163338545Y-188287569D01*
X163373272Y-188315140D01*
X163411017Y-188332164D01*
X163449810Y-188337800D01*
X163493770Y-188328860D01*
X163528088Y-188306935D01*
X163533357Y-188301938D01*
X163869235Y-187966060D01*
X163903299Y-187946733D01*
X163945187Y-187945942D01*
X163982530Y-187966889D01*
X164002961Y-188004104D01*
X164001176Y-188045762D01*
X163980872Y-188079355D01*
X163630763Y-188429464D01*
X163590520Y-188460934D01*
X163544509Y-188481750D01*
X163494296Y-188492036D01*
X163454818Y-188492914D01*
X163414516Y-188487989D01*
X163374048Y-188477313D01*
X163334076Y-188460939D01*
X163295259Y-188438919D01*
X163258256Y-188411303D01*
X163234921Y-188389810D01*
X163203781Y-188354520D01*
X163178164Y-188316876D01*
X163158120Y-188277560D01*
X163143703Y-188237258D01*
X163134962Y-188196652D01*
X163131949Y-188156427D01*
X163134715Y-188117266D01*
X163147482Y-188067889D01*
X163170735Y-188023240D01*
X163195130Y-187993831D01*
X163545239Y-187643722D01*
X163578832Y-187623417D01*
X163620489Y-187621633D01*
X163657705Y-187642064D01*
G37*
G36*
X163293227Y-187623826D02*
G01*
X163260162Y-187600216D01*
X163245491Y-187560771D01*
X163248047Y-187528078D01*
X163255424Y-187489236D01*
X163253870Y-187449082D01*
X163238726Y-187411610D01*
X163219861Y-187388255D01*
X163187975Y-187361598D01*
X163149105Y-187344159D01*
X163107288Y-187347376D01*
X163080039Y-187366425D01*
X163059504Y-187399697D01*
X163053158Y-187442572D01*
X163060402Y-187481280D01*
X163075203Y-187512465D01*
X163088078Y-187550656D01*
X163075406Y-187589627D01*
X163072302Y-187593015D01*
X163035556Y-187607539D01*
X162996205Y-187594944D01*
X162994100Y-187593568D01*
X162955781Y-187576621D01*
X162916231Y-187569650D01*
X162873959Y-187573051D01*
X162834857Y-187591730D01*
X162808943Y-187622508D01*
X162804815Y-187630596D01*
X162795322Y-187669435D01*
X162802018Y-187712718D01*
X162819157Y-187748104D01*
X162843026Y-187779751D01*
X162854416Y-187791834D01*
X162889180Y-187813631D01*
X162929645Y-187825008D01*
X162971974Y-187827551D01*
X163005154Y-187821539D01*
X163043689Y-187813298D01*
X163081628Y-187824531D01*
X163102422Y-187846409D01*
X163107934Y-187886936D01*
X163085091Y-187923116D01*
X163053788Y-187943953D01*
X163016222Y-187956171D01*
X162976128Y-187960691D01*
X162934698Y-187958270D01*
X162893119Y-187949670D01*
X162852584Y-187935648D01*
X162814281Y-187916966D01*
X162779402Y-187894381D01*
X162749135Y-187868654D01*
X162719353Y-187833587D01*
X162694480Y-187792026D01*
X162675781Y-187745857D01*
X162664526Y-187696967D01*
X162661982Y-187647241D01*
X162669416Y-187598565D01*
X162688096Y-187552827D01*
X162719291Y-187511912D01*
X162754791Y-187481408D01*
X162798347Y-187457649D01*
X162837410Y-187449080D01*
X162879631Y-187452847D01*
X162920112Y-187466957D01*
X162958657Y-187475974D01*
X162961217Y-187474194D01*
X162952865Y-187434943D01*
X162942544Y-187396562D01*
X162942789Y-187356616D01*
X162958979Y-187310218D01*
X162988389Y-187268949D01*
X162998522Y-187258104D01*
X163029548Y-187233305D01*
X163073925Y-187214636D01*
X163112652Y-187209274D01*
X163153132Y-187212161D01*
X163194341Y-187223058D01*
X163235251Y-187241725D01*
X163274835Y-187267923D01*
X163303037Y-187292369D01*
X163329396Y-187321260D01*
X163356467Y-187360540D01*
X163376730Y-187401848D01*
X163389885Y-187443591D01*
X163395637Y-187484176D01*
X163392348Y-187529104D01*
X163388699Y-187542723D01*
X163372514Y-187581908D01*
X163348794Y-187613796D01*
X163311695Y-187627725D01*
X163293227Y-187623826D01*
G37*
D12*
G36*
X162557720Y-188905891D02*
G01*
X162580842Y-188924376D01*
X162592154Y-188952727D01*
X162592019Y-188982262D01*
X162591916Y-188983402D01*
X162588315Y-189015015D01*
X162590508Y-189045044D01*
X162600249Y-189076494D01*
X162617866Y-189103852D01*
X162623521Y-189109926D01*
X162647795Y-189128527D01*
X162675896Y-189140349D01*
X162706844Y-189145522D01*
X162739657Y-189144174D01*
X162773354Y-189136433D01*
X162806954Y-189122429D01*
X162839475Y-189102290D01*
X162862569Y-189083237D01*
X162869937Y-189076145D01*
X162889934Y-189053700D01*
X162911454Y-189021734D01*
X162926956Y-188988359D01*
X162936290Y-188954579D01*
X162939304Y-188921397D01*
X162935846Y-188889819D01*
X162925764Y-188860848D01*
X162908906Y-188835490D01*
X162903615Y-188829832D01*
X162878493Y-188810866D01*
X162849158Y-188799158D01*
X162816723Y-188794560D01*
X162787299Y-188796162D01*
X162762169Y-188801335D01*
X162730773Y-188803261D01*
X162702068Y-188790267D01*
X162688182Y-188770663D01*
X162684276Y-188740541D01*
X162695472Y-188713233D01*
X162718544Y-188697608D01*
X162719787Y-188697608D01*
X162755043Y-188689168D01*
X162790347Y-188685088D01*
X162825269Y-188685406D01*
X162859381Y-188690160D01*
X162892254Y-188699388D01*
X162923461Y-188713128D01*
X162952571Y-188731416D01*
X162979157Y-188754290D01*
X163005302Y-188785407D01*
X163025316Y-188819843D01*
X163039255Y-188856924D01*
X163047181Y-188895976D01*
X163049150Y-188936324D01*
X163045223Y-188977293D01*
X163035458Y-189018208D01*
X163019915Y-189058394D01*
X163006371Y-189084448D01*
X162990302Y-189109678D01*
X162971726Y-189133884D01*
X162950660Y-189156867D01*
X162927550Y-189178046D01*
X162903237Y-189196692D01*
X162877918Y-189212794D01*
X162851794Y-189226341D01*
X162811533Y-189241843D01*
X162770583Y-189251531D01*
X162729616Y-189255365D01*
X162689304Y-189253306D01*
X162650322Y-189245315D01*
X162613342Y-189231354D01*
X162579038Y-189211383D01*
X162548083Y-189185364D01*
X162526111Y-189159953D01*
X162508290Y-189132093D01*
X162494605Y-189102181D01*
X162485041Y-189070614D01*
X162479581Y-189037789D01*
X162478210Y-189004102D01*
X162480912Y-188969952D01*
X162487670Y-188935735D01*
X162504743Y-188910655D01*
X162534898Y-188901389D01*
X162557720Y-188905891D01*
G37*
G36*
X162617407Y-188649734D02*
G01*
X162592609Y-188632027D01*
X162581605Y-188602443D01*
X162583522Y-188577923D01*
X162589055Y-188548792D01*
X162587889Y-188518677D01*
X162576531Y-188490572D01*
X162562383Y-188473056D01*
X162538468Y-188453063D01*
X162509316Y-188439984D01*
X162477953Y-188442397D01*
X162457516Y-188456684D01*
X162442115Y-188481638D01*
X162437355Y-188513794D01*
X162442789Y-188542825D01*
X162453889Y-188566214D01*
X162463545Y-188594857D01*
X162454042Y-188624085D01*
X162451713Y-188626626D01*
X162424154Y-188637519D01*
X162394641Y-188628073D01*
X162393062Y-188627041D01*
X162364323Y-188614331D01*
X162334660Y-188609102D01*
X162302956Y-188611653D01*
X162273630Y-188625663D01*
X162254194Y-188648746D01*
X162251098Y-188654812D01*
X162243978Y-188683941D01*
X162249000Y-188716403D01*
X162261855Y-188742943D01*
X162279756Y-188766678D01*
X162288299Y-188775740D01*
X162314372Y-188792088D01*
X162344721Y-188800621D01*
X162376467Y-188802528D01*
X162401352Y-188798019D01*
X162430254Y-188791839D01*
X162458708Y-188800264D01*
X162474303Y-188816672D01*
X162478437Y-188847067D01*
X162461305Y-188874202D01*
X162437828Y-188889830D01*
X162409653Y-188898993D01*
X162379583Y-188902383D01*
X162348510Y-188900568D01*
X162317326Y-188894117D01*
X162286925Y-188883601D01*
X162258198Y-188869589D01*
X162232038Y-188852651D01*
X162209338Y-188833355D01*
X162187002Y-188807055D01*
X162168347Y-188775884D01*
X162154323Y-188741258D01*
X162145881Y-188704590D01*
X162143973Y-188667295D01*
X162149549Y-188630789D01*
X162163559Y-188596485D01*
X162186955Y-188565799D01*
X162213580Y-188542921D01*
X162246247Y-188525101D01*
X162275544Y-188518675D01*
X162307210Y-188521500D01*
X162337571Y-188532083D01*
X162366479Y-188538845D01*
X162368400Y-188537510D01*
X162362136Y-188508072D01*
X162354395Y-188479287D01*
X162354579Y-188449327D01*
X162366721Y-188414528D01*
X162388779Y-188383576D01*
X162396378Y-188375443D01*
X162419648Y-188356843D01*
X162452931Y-188342842D01*
X162481976Y-188338820D01*
X162512336Y-188340986D01*
X162543243Y-188349158D01*
X162573925Y-188363159D01*
X162603613Y-188382807D01*
X162624764Y-188401142D01*
X162644534Y-188422810D01*
X162664837Y-188452270D01*
X162680034Y-188483251D01*
X162689901Y-188514558D01*
X162694215Y-188544997D01*
X162691748Y-188578693D01*
X162689011Y-188588907D01*
X162676872Y-188618296D01*
X162659082Y-188642212D01*
X162631258Y-188652659D01*
X162617407Y-188649734D01*
G37*
G36*
X89113254Y-88053947D02*
G01*
X89142674Y-88050668D01*
X89170721Y-88062717D01*
X89191510Y-88083696D01*
X89192242Y-88084575D01*
X89212051Y-88109475D01*
X89234834Y-88129158D01*
X89263961Y-88144509D01*
X89295764Y-88151397D01*
X89304057Y-88151693D01*
X89334374Y-88147682D01*
X89362604Y-88136171D01*
X89388145Y-88117945D01*
X89410394Y-88093789D01*
X89428748Y-88064488D01*
X89442604Y-88030827D01*
X89451360Y-87993591D01*
X89454217Y-87963789D01*
X89454413Y-87953563D01*
X89452682Y-87923552D01*
X89445295Y-87885733D01*
X89432657Y-87851171D01*
X89415371Y-87820684D01*
X89394040Y-87795091D01*
X89369265Y-87775207D01*
X89341650Y-87761851D01*
X89311799Y-87755839D01*
X89304057Y-87755580D01*
X89272882Y-87759933D01*
X89243861Y-87772398D01*
X89217674Y-87792081D01*
X89198001Y-87814020D01*
X89183889Y-87835448D01*
X89163050Y-87859009D01*
X89133565Y-87870118D01*
X89109884Y-87866076D01*
X89085822Y-87847538D01*
X89074430Y-87820311D01*
X89079695Y-87792949D01*
X89080575Y-87792070D01*
X89099536Y-87761172D01*
X89121614Y-87733323D01*
X89146533Y-87708855D01*
X89174016Y-87688096D01*
X89203786Y-87671376D01*
X89235567Y-87659025D01*
X89269083Y-87651372D01*
X89304057Y-87648748D01*
X89344547Y-87652263D01*
X89383049Y-87662462D01*
X89419126Y-87678825D01*
X89452344Y-87700835D01*
X89482267Y-87727972D01*
X89508459Y-87759718D01*
X89530486Y-87795555D01*
X89547911Y-87834962D01*
X89556757Y-87862962D01*
X89563235Y-87892164D01*
X89567216Y-87922416D01*
X89568572Y-87953563D01*
X89567206Y-87984880D01*
X89563199Y-88015257D01*
X89556681Y-88044546D01*
X89547788Y-88072597D01*
X89530281Y-88112028D01*
X89508175Y-88147834D01*
X89481918Y-88179514D01*
X89451958Y-88206562D01*
X89418743Y-88228477D01*
X89382722Y-88244753D01*
X89344344Y-88254888D01*
X89304057Y-88258378D01*
X89270552Y-88255947D01*
X89238251Y-88248848D01*
X89207423Y-88237374D01*
X89178339Y-88221815D01*
X89151267Y-88202465D01*
X89126478Y-88179615D01*
X89104240Y-88153556D01*
X89084824Y-88124582D01*
X89079162Y-88094775D01*
X89093933Y-88066900D01*
X89113254Y-88053947D01*
G37*
G36*
X88820603Y-88197122D02*
G01*
X88813354Y-88226200D01*
X88791587Y-88249447D01*
X88763218Y-88258298D01*
X88760079Y-88258378D01*
X88731001Y-88250930D01*
X88707755Y-88228765D01*
X88698904Y-88200251D01*
X88698823Y-88197122D01*
X88698823Y-87709858D01*
X88705912Y-87680057D01*
X88728199Y-87660130D01*
X88753338Y-87655343D01*
X88784229Y-87661944D01*
X88805999Y-87682233D01*
X88822215Y-87708246D01*
X88843152Y-87730093D01*
X88868155Y-87745855D01*
X88892850Y-87756166D01*
X88918108Y-87772783D01*
X88933598Y-87799348D01*
X88934908Y-87809069D01*
X88923367Y-87836986D01*
X88897099Y-87852740D01*
X88866966Y-87855283D01*
X88839947Y-87855231D01*
X88820730Y-87878770D01*
X88820603Y-87888057D01*
X88820603Y-88197122D01*
G37*
G36*
X88470798Y-87830612D02*
G01*
X88440742Y-87835626D01*
X88412042Y-87822487D01*
X88396060Y-87803794D01*
X88379373Y-87779283D01*
X88357254Y-87758812D01*
X88329350Y-87746970D01*
X88306960Y-87744589D01*
X88275912Y-87747363D01*
X88246050Y-87758728D01*
X88225579Y-87782611D01*
X88221231Y-87807164D01*
X88227985Y-87835699D01*
X88247358Y-87861803D01*
X88271728Y-87878489D01*
X88296115Y-87887178D01*
X88323197Y-87900604D01*
X88337145Y-87927992D01*
X88337295Y-87931435D01*
X88325510Y-87958625D01*
X88297961Y-87972814D01*
X88296115Y-87973200D01*
X88266806Y-87984535D01*
X88242135Y-88001813D01*
X88221520Y-88026034D01*
X88210689Y-88056678D01*
X88213269Y-88086743D01*
X88215369Y-88093221D01*
X88230932Y-88118853D01*
X88257437Y-88138257D01*
X88285293Y-88147933D01*
X88314734Y-88152058D01*
X88327183Y-88152426D01*
X88357179Y-88145549D01*
X88384673Y-88130123D01*
X88408469Y-88109023D01*
X88422877Y-88088239D01*
X88438944Y-88063432D01*
X88465021Y-88049269D01*
X88487651Y-88049844D01*
X88512067Y-88068413D01*
X88519140Y-88099715D01*
X88513589Y-88127367D01*
X88500147Y-88153769D01*
X88481281Y-88177428D01*
X88458025Y-88198116D01*
X88431414Y-88215605D01*
X88402481Y-88229667D01*
X88372260Y-88240072D01*
X88341784Y-88246592D01*
X88312089Y-88249000D01*
X88277698Y-88246197D01*
X88242466Y-88237347D01*
X88208065Y-88222778D01*
X88176168Y-88202819D01*
X88148447Y-88177797D01*
X88126576Y-88148041D01*
X88112226Y-88113878D01*
X88107071Y-88075636D01*
X88109720Y-88040632D01*
X88120219Y-88004933D01*
X88136391Y-87979672D01*
X88160780Y-87959279D01*
X88189731Y-87945294D01*
X88214955Y-87929634D01*
X88215369Y-87927332D01*
X88190123Y-87910945D01*
X88164296Y-87896064D01*
X88143241Y-87874750D01*
X88127220Y-87841558D01*
X88120931Y-87804074D01*
X88120554Y-87792949D01*
X88123856Y-87763343D01*
X88137490Y-87729908D01*
X88155184Y-87706527D01*
X88178183Y-87686590D01*
X88205817Y-87670515D01*
X88237412Y-87658719D01*
X88272298Y-87651619D01*
X88300219Y-87649628D01*
X88329520Y-87650970D01*
X88364708Y-87657445D01*
X88397360Y-87668606D01*
X88426475Y-87683767D01*
X88451049Y-87702240D01*
X88473131Y-87727811D01*
X88478418Y-87736969D01*
X88490616Y-87766333D01*
X88494948Y-87795823D01*
X88482660Y-87822885D01*
X88470798Y-87830612D01*
G37*
G36*
X161885969Y-188234140D02*
G01*
X161909091Y-188252625D01*
X161920403Y-188280976D01*
X161920268Y-188310511D01*
X161920165Y-188311651D01*
X161916564Y-188343264D01*
X161918757Y-188373293D01*
X161928498Y-188404743D01*
X161946115Y-188432101D01*
X161951770Y-188438175D01*
X161976044Y-188456776D01*
X162004145Y-188468598D01*
X162035093Y-188473771D01*
X162067906Y-188472423D01*
X162101603Y-188464682D01*
X162135203Y-188450678D01*
X162167724Y-188430539D01*
X162190818Y-188411486D01*
X162198186Y-188404394D01*
X162218183Y-188381949D01*
X162239703Y-188349983D01*
X162255205Y-188316608D01*
X162264539Y-188282828D01*
X162267553Y-188249646D01*
X162264095Y-188218068D01*
X162254013Y-188189097D01*
X162237155Y-188163739D01*
X162231864Y-188158081D01*
X162206742Y-188139115D01*
X162177407Y-188127407D01*
X162144972Y-188122809D01*
X162115548Y-188124411D01*
X162090418Y-188129584D01*
X162059022Y-188131510D01*
X162030317Y-188118516D01*
X162016431Y-188098912D01*
X162012525Y-188068790D01*
X162023721Y-188041482D01*
X162046793Y-188025857D01*
X162048036Y-188025857D01*
X162083292Y-188017417D01*
X162118596Y-188013337D01*
X162153518Y-188013655D01*
X162187630Y-188018409D01*
X162220503Y-188027637D01*
X162251710Y-188041377D01*
X162280820Y-188059665D01*
X162307406Y-188082539D01*
X162333551Y-188113656D01*
X162353565Y-188148092D01*
X162367504Y-188185173D01*
X162375430Y-188224225D01*
X162377399Y-188264573D01*
X162373472Y-188305542D01*
X162363707Y-188346457D01*
X162348164Y-188386643D01*
X162334620Y-188412697D01*
X162318551Y-188437927D01*
X162299975Y-188462133D01*
X162278909Y-188485116D01*
X162255799Y-188506295D01*
X162231486Y-188524941D01*
X162206167Y-188541043D01*
X162180043Y-188554590D01*
X162139782Y-188570092D01*
X162098832Y-188579780D01*
X162057865Y-188583614D01*
X162017553Y-188581555D01*
X161978571Y-188573564D01*
X161941591Y-188559603D01*
X161907287Y-188539632D01*
X161876332Y-188513613D01*
X161854360Y-188488202D01*
X161836539Y-188460342D01*
X161822854Y-188430430D01*
X161813290Y-188398863D01*
X161807830Y-188366038D01*
X161806459Y-188332351D01*
X161809161Y-188298201D01*
X161815919Y-188263984D01*
X161832992Y-188238904D01*
X161863147Y-188229638D01*
X161885969Y-188234140D01*
G37*
G36*
X161869673Y-187670165D02*
G01*
X161884104Y-187682035D01*
X161902169Y-187708498D01*
X161907379Y-187738694D01*
X161906239Y-187772985D01*
X161902963Y-187805554D01*
X161899526Y-187835416D01*
X161895125Y-187872475D01*
X161890927Y-187907194D01*
X161886926Y-187940454D01*
X161883116Y-187973139D01*
X161879491Y-188006132D01*
X161876045Y-188040315D01*
X161872772Y-188076571D01*
X161871980Y-188086063D01*
X161868291Y-188115209D01*
X161858570Y-188143451D01*
X161844623Y-188162122D01*
X161817061Y-188180520D01*
X161785234Y-188187367D01*
X161753388Y-188182188D01*
X161725767Y-188164505D01*
X161612403Y-188051141D01*
X161582843Y-188050896D01*
X161582041Y-188051660D01*
X161548778Y-188084923D01*
X161523095Y-188100361D01*
X161491291Y-188101434D01*
X161465038Y-188087698D01*
X161462771Y-188085544D01*
X161447406Y-188059647D01*
X161446612Y-188027506D01*
X161460512Y-188001081D01*
X161462667Y-187998812D01*
X161495038Y-187966441D01*
X161674661Y-187966441D01*
X161677789Y-187970211D01*
X161756750Y-188049173D01*
X161782864Y-188040883D01*
X161810946Y-187850112D01*
X161789440Y-187829209D01*
X161780169Y-187834672D01*
X161677789Y-187937052D01*
X161674661Y-187966441D01*
X161495038Y-187966441D01*
X161496552Y-187964927D01*
X161496685Y-187935461D01*
X161495930Y-187934669D01*
X161488780Y-187927519D01*
X161474605Y-187901048D01*
X161478511Y-187869795D01*
X161488884Y-187855086D01*
X161515551Y-187840649D01*
X161544840Y-187843108D01*
X161561938Y-187854360D01*
X161569710Y-187862132D01*
X161599166Y-187862274D01*
X161599968Y-187861510D01*
X161784832Y-187676646D01*
X161811699Y-187660027D01*
X161841039Y-187658346D01*
X161869673Y-187670165D01*
G37*
D15*
%TO.C,C16*%
X173612500Y-179567164D02*
X173612500Y-179782836D01*
X174332500Y-179567164D02*
X174332500Y-179782836D01*
D14*
%TO.C,D74*%
X274812500Y-170287500D02*
X275362500Y-170287500D01*
X274962500Y-169687500D02*
X275762500Y-169687500D01*
X275362500Y-169187500D02*
X275362500Y-169687500D01*
X275362500Y-170287500D02*
X274962500Y-169687500D01*
X275362500Y-170287500D02*
X275362500Y-170687500D01*
X275762500Y-169687500D02*
X275362500Y-170287500D01*
X275912500Y-170287500D02*
X275362500Y-170287500D01*
%TO.C,D31*%
X346250000Y-113137500D02*
X346800000Y-113137500D01*
X346400000Y-112537500D02*
X347200000Y-112537500D01*
X346800000Y-112037500D02*
X346800000Y-112537500D01*
X346800000Y-113137500D02*
X346400000Y-112537500D01*
X346800000Y-113137500D02*
X346800000Y-113537500D01*
X347200000Y-112537500D02*
X346800000Y-113137500D01*
X347350000Y-113137500D02*
X346800000Y-113137500D01*
D15*
%TO.C,C5*%
X173467164Y-186765000D02*
X173682836Y-186765000D01*
X173467164Y-187485000D02*
X173682836Y-187485000D01*
D14*
%TO.C,D68*%
X160512500Y-170287500D02*
X161062500Y-170287500D01*
X160662500Y-169687500D02*
X161462500Y-169687500D01*
X161062500Y-169187500D02*
X161062500Y-169687500D01*
X161062500Y-170287500D02*
X160662500Y-169687500D01*
X161062500Y-170287500D02*
X161062500Y-170687500D01*
X161462500Y-169687500D02*
X161062500Y-170287500D01*
X161612500Y-170287500D02*
X161062500Y-170287500D01*
D15*
%TO.C,C10*%
X159994190Y-188221693D02*
X160146693Y-188069190D01*
X160503307Y-188730810D02*
X160655810Y-188578307D01*
D14*
%TO.C,D69*%
X179562500Y-170287500D02*
X180112500Y-170287500D01*
X179712500Y-169687500D02*
X180512500Y-169687500D01*
X180112500Y-169187500D02*
X180112500Y-169687500D01*
X180112500Y-170287500D02*
X179712500Y-169687500D01*
X180112500Y-170287500D02*
X180112500Y-170687500D01*
X180512500Y-169687500D02*
X180112500Y-170287500D01*
X180662500Y-170287500D02*
X180112500Y-170287500D01*
%TO.C,D15*%
X389112500Y-89325000D02*
X389662500Y-89325000D01*
X389262500Y-88725000D02*
X390062500Y-88725000D01*
X389662500Y-88225000D02*
X389662500Y-88725000D01*
X389662500Y-89325000D02*
X389262500Y-88725000D01*
X389662500Y-89325000D02*
X389662500Y-89725000D01*
X390062500Y-88725000D02*
X389662500Y-89325000D01*
X390212500Y-89325000D02*
X389662500Y-89325000D01*
%TO.C,D37*%
X127175000Y-132187500D02*
X127725000Y-132187500D01*
X127325000Y-131587500D02*
X128125000Y-131587500D01*
X127725000Y-131087500D02*
X127725000Y-131587500D01*
X127725000Y-132187500D02*
X127325000Y-131587500D01*
X127725000Y-132187500D02*
X127725000Y-132587500D01*
X128125000Y-131587500D02*
X127725000Y-132187500D01*
X128275000Y-132187500D02*
X127725000Y-132187500D01*
%TO.C,D66*%
X122412500Y-170287500D02*
X122962500Y-170287500D01*
X122562500Y-169687500D02*
X123362500Y-169687500D01*
X122962500Y-169187500D02*
X122962500Y-169687500D01*
X122962500Y-170287500D02*
X122562500Y-169687500D01*
X122962500Y-170287500D02*
X122962500Y-170687500D01*
X123362500Y-169687500D02*
X122962500Y-170287500D01*
X123512500Y-170287500D02*
X122962500Y-170287500D01*
%TO.C,D75*%
X293862500Y-170287500D02*
X294412500Y-170287500D01*
X294012500Y-169687500D02*
X294812500Y-169687500D01*
X294412500Y-169187500D02*
X294412500Y-169687500D01*
X294412500Y-170287500D02*
X294012500Y-169687500D01*
X294412500Y-170287500D02*
X294412500Y-170687500D01*
X294812500Y-169687500D02*
X294412500Y-170287500D01*
X294962500Y-170287500D02*
X294412500Y-170287500D01*
D15*
%TO.C,R5*%
X80390000Y-156582836D02*
X80390000Y-156367164D01*
X81110000Y-156582836D02*
X81110000Y-156367164D01*
D14*
%TO.C,D20*%
X136700000Y-113137500D02*
X137250000Y-113137500D01*
X136850000Y-112537500D02*
X137650000Y-112537500D01*
X137250000Y-112037500D02*
X137250000Y-112537500D01*
X137250000Y-113137500D02*
X136850000Y-112537500D01*
X137250000Y-113137500D02*
X137250000Y-113537500D01*
X137650000Y-112537500D02*
X137250000Y-113137500D01*
X137800000Y-113137500D02*
X137250000Y-113137500D01*
%TO.C,D88*%
X389112500Y-189337500D02*
X389662500Y-189337500D01*
X389262500Y-188737500D02*
X390062500Y-188737500D01*
X389662500Y-188237500D02*
X389662500Y-188737500D01*
X389662500Y-189337500D02*
X389262500Y-188737500D01*
X389662500Y-189337500D02*
X389662500Y-189737500D01*
X390062500Y-188737500D02*
X389662500Y-189337500D01*
X390212500Y-189337500D02*
X389662500Y-189337500D01*
%TO.C,D84*%
X296243750Y-189337500D02*
X296793750Y-189337500D01*
X296393750Y-188737500D02*
X297193750Y-188737500D01*
X296793750Y-188237500D02*
X296793750Y-188737500D01*
X296793750Y-189337500D02*
X296393750Y-188737500D01*
X296793750Y-189337500D02*
X296793750Y-189737500D01*
X297193750Y-188737500D02*
X296793750Y-189337500D01*
X297343750Y-189337500D02*
X296793750Y-189337500D01*
%TO.C,D36*%
X108125000Y-132187500D02*
X108675000Y-132187500D01*
X108275000Y-131587500D02*
X109075000Y-131587500D01*
X108675000Y-131087500D02*
X108675000Y-131587500D01*
X108675000Y-132187500D02*
X108275000Y-131587500D01*
X108675000Y-132187500D02*
X108675000Y-132587500D01*
X109075000Y-131587500D02*
X108675000Y-132187500D01*
X109225000Y-132187500D02*
X108675000Y-132187500D01*
%TO.C,D34*%
X408162500Y-113137500D02*
X408712500Y-113137500D01*
X408312500Y-112537500D02*
X409112500Y-112537500D01*
X408712500Y-112037500D02*
X408712500Y-112537500D01*
X408712500Y-113137500D02*
X408312500Y-112537500D01*
X408712500Y-113137500D02*
X408712500Y-113537500D01*
X409112500Y-112537500D02*
X408712500Y-113137500D01*
X409262500Y-113137500D02*
X408712500Y-113137500D01*
%TO.C,D52*%
X86693750Y-151237500D02*
X87243750Y-151237500D01*
X86843750Y-150637500D02*
X87643750Y-150637500D01*
X87243750Y-150137500D02*
X87243750Y-150637500D01*
X87243750Y-151237500D02*
X86843750Y-150637500D01*
X87243750Y-151237500D02*
X87243750Y-151637500D01*
X87643750Y-150637500D02*
X87243750Y-151237500D01*
X87793750Y-151237500D02*
X87243750Y-151237500D01*
D15*
%TO.C,R8*%
X380462164Y-89280000D02*
X380677836Y-89280000D01*
X380462164Y-90000000D02*
X380677836Y-90000000D01*
D14*
%TO.C,D38*%
X146225000Y-132187500D02*
X146775000Y-132187500D01*
X146375000Y-131587500D02*
X147175000Y-131587500D01*
X146775000Y-131087500D02*
X146775000Y-131587500D01*
X146775000Y-132187500D02*
X146375000Y-131587500D01*
X146775000Y-132187500D02*
X146775000Y-132587500D01*
X147175000Y-131587500D02*
X146775000Y-132187500D01*
X147325000Y-132187500D02*
X146775000Y-132187500D01*
%TO.C,D58*%
X208137500Y-151237500D02*
X208687500Y-151237500D01*
X208287500Y-150637500D02*
X209087500Y-150637500D01*
X208687500Y-150137500D02*
X208687500Y-150637500D01*
X208687500Y-151237500D02*
X208287500Y-150637500D01*
X208687500Y-151237500D02*
X208687500Y-151637500D01*
X209087500Y-150637500D02*
X208687500Y-151237500D01*
X209237500Y-151237500D02*
X208687500Y-151237500D01*
%TO.C,D11*%
X308150000Y-89325000D02*
X308700000Y-89325000D01*
X308300000Y-88725000D02*
X309100000Y-88725000D01*
X308700000Y-88225000D02*
X308700000Y-88725000D01*
X308700000Y-89325000D02*
X308300000Y-88725000D01*
X308700000Y-89325000D02*
X308700000Y-89725000D01*
X309100000Y-88725000D02*
X308700000Y-89325000D01*
X309250000Y-89325000D02*
X308700000Y-89325000D01*
%TO.C,D83*%
X272431250Y-189337500D02*
X272981250Y-189337500D01*
X272581250Y-188737500D02*
X273381250Y-188737500D01*
X272981250Y-188237500D02*
X272981250Y-188737500D01*
X272981250Y-189337500D02*
X272581250Y-188737500D01*
X272981250Y-189337500D02*
X272981250Y-189737500D01*
X273381250Y-188737500D02*
X272981250Y-189337500D01*
X273531250Y-189337500D02*
X272981250Y-189337500D01*
%TO.C,D2*%
X117650000Y-89325000D02*
X118200000Y-89325000D01*
X117800000Y-88725000D02*
X118600000Y-88725000D01*
X118200000Y-88225000D02*
X118200000Y-88725000D01*
X118200000Y-89325000D02*
X117800000Y-88725000D01*
X118200000Y-89325000D02*
X118200000Y-89725000D01*
X118600000Y-88725000D02*
X118200000Y-89325000D01*
X118750000Y-89325000D02*
X118200000Y-89325000D01*
D15*
%TO.C,R4*%
X147540000Y-188317164D02*
X147540000Y-188532836D01*
X148260000Y-188317164D02*
X148260000Y-188532836D01*
D14*
%TO.C,D46*%
X298625000Y-132187500D02*
X299175000Y-132187500D01*
X298775000Y-131587500D02*
X299575000Y-131587500D01*
X299175000Y-131087500D02*
X299175000Y-131587500D01*
X299175000Y-132187500D02*
X298775000Y-131587500D01*
X299175000Y-132187500D02*
X299175000Y-132587500D01*
X299575000Y-131587500D02*
X299175000Y-132187500D01*
X299725000Y-132187500D02*
X299175000Y-132187500D01*
%TO.C,D9*%
X260525000Y-89325000D02*
X261075000Y-89325000D01*
X260675000Y-88725000D02*
X261475000Y-88725000D01*
X261075000Y-88225000D02*
X261075000Y-88725000D01*
X261075000Y-89325000D02*
X260675000Y-88725000D01*
X261075000Y-89325000D02*
X261075000Y-89725000D01*
X261475000Y-88725000D02*
X261075000Y-89325000D01*
X261625000Y-89325000D02*
X261075000Y-89325000D01*
D15*
%TO.C,C2*%
X166990000Y-191642164D02*
X166990000Y-191857836D01*
X167710000Y-191642164D02*
X167710000Y-191857836D01*
D16*
%TO.C,REF\u002A\u002A*%
X241479904Y-183087541D02*
X241495601Y-183107644D01*
X241513133Y-183128716D01*
X241522478Y-183139423D01*
X241532149Y-183150143D01*
X241542104Y-183160798D01*
X241552298Y-183171311D01*
X241562687Y-183181607D01*
X241573228Y-183191607D01*
X241583876Y-183201236D01*
X241594588Y-183210416D01*
X241605320Y-183219071D01*
X241616027Y-183227123D01*
X241626667Y-183234497D01*
X241637194Y-183241116D01*
X241732904Y-183305394D01*
X241744359Y-183312896D01*
X241755979Y-183320127D01*
X241767759Y-183327084D01*
X241779696Y-183333764D01*
X241791784Y-183340165D01*
X241804020Y-183346285D01*
X241816399Y-183352121D01*
X241828916Y-183357670D01*
X241947644Y-183408708D01*
X241956231Y-183413518D01*
X241965011Y-183417862D01*
X241973966Y-183421738D01*
X241983078Y-183425143D01*
X241992328Y-183428074D01*
X242001697Y-183430530D01*
X242011166Y-183432508D01*
X242020717Y-183434005D01*
X242030332Y-183435019D01*
X242039991Y-183435548D01*
X242049677Y-183435589D01*
X242059369Y-183435140D01*
X242069050Y-183434198D01*
X242078702Y-183432761D01*
X242088304Y-183430827D01*
X242097840Y-183428393D01*
X242255223Y-183383880D01*
X242228587Y-183425989D01*
X242199431Y-183460867D01*
X242168001Y-183488877D01*
X242134542Y-183510381D01*
X242099300Y-183525740D01*
X242062519Y-183535319D01*
X242024445Y-183539477D01*
X241985323Y-183538578D01*
X241945398Y-183532985D01*
X241904916Y-183523058D01*
X241864121Y-183509161D01*
X241823260Y-183491655D01*
X241782577Y-183470904D01*
X241742317Y-183447268D01*
X241702727Y-183421110D01*
X241664050Y-183392793D01*
X241626533Y-183362679D01*
X241590420Y-183331130D01*
X241523388Y-183265175D01*
X241464918Y-183197826D01*
X241439507Y-183164535D01*
X241416971Y-183131982D01*
X241397557Y-183100530D01*
X241381509Y-183070540D01*
X241369073Y-183042375D01*
X241360494Y-183016397D01*
X241356017Y-182992969D01*
X241355887Y-182972452D01*
X241360351Y-182955209D01*
X241369652Y-182941602D01*
X241479904Y-183087541D01*
G36*
X241479904Y-183087541D02*
G01*
X241495601Y-183107644D01*
X241513133Y-183128716D01*
X241522478Y-183139423D01*
X241532149Y-183150143D01*
X241542104Y-183160798D01*
X241552298Y-183171311D01*
X241562687Y-183181607D01*
X241573228Y-183191607D01*
X241583876Y-183201236D01*
X241594588Y-183210416D01*
X241605320Y-183219071D01*
X241616027Y-183227123D01*
X241626667Y-183234497D01*
X241637194Y-183241116D01*
X241732904Y-183305394D01*
X241744359Y-183312896D01*
X241755979Y-183320127D01*
X241767759Y-183327084D01*
X241779696Y-183333764D01*
X241791784Y-183340165D01*
X241804020Y-183346285D01*
X241816399Y-183352121D01*
X241828916Y-183357670D01*
X241947644Y-183408708D01*
X241956231Y-183413518D01*
X241965011Y-183417862D01*
X241973966Y-183421738D01*
X241983078Y-183425143D01*
X241992328Y-183428074D01*
X242001697Y-183430530D01*
X242011166Y-183432508D01*
X242020717Y-183434005D01*
X242030332Y-183435019D01*
X242039991Y-183435548D01*
X242049677Y-183435589D01*
X242059369Y-183435140D01*
X242069050Y-183434198D01*
X242078702Y-183432761D01*
X242088304Y-183430827D01*
X242097840Y-183428393D01*
X242255223Y-183383880D01*
X242228587Y-183425989D01*
X242199431Y-183460867D01*
X242168001Y-183488877D01*
X242134542Y-183510381D01*
X242099300Y-183525740D01*
X242062519Y-183535319D01*
X242024445Y-183539477D01*
X241985323Y-183538578D01*
X241945398Y-183532985D01*
X241904916Y-183523058D01*
X241864121Y-183509161D01*
X241823260Y-183491655D01*
X241782577Y-183470904D01*
X241742317Y-183447268D01*
X241702727Y-183421110D01*
X241664050Y-183392793D01*
X241626533Y-183362679D01*
X241590420Y-183331130D01*
X241523388Y-183265175D01*
X241464918Y-183197826D01*
X241439507Y-183164535D01*
X241416971Y-183131982D01*
X241397557Y-183100530D01*
X241381509Y-183070540D01*
X241369073Y-183042375D01*
X241360494Y-183016397D01*
X241356017Y-182992969D01*
X241355887Y-182972452D01*
X241360351Y-182955209D01*
X241369652Y-182941602D01*
X241479904Y-183087541D01*
G37*
D14*
%TO.C,D63*%
X303387500Y-151237500D02*
X303937500Y-151237500D01*
X303537500Y-150637500D02*
X304337500Y-150637500D01*
X303937500Y-150137500D02*
X303937500Y-150637500D01*
X303937500Y-151237500D02*
X303537500Y-150637500D01*
X303937500Y-151237500D02*
X303937500Y-151637500D01*
X304337500Y-150637500D02*
X303937500Y-151237500D01*
X304487500Y-151237500D02*
X303937500Y-151237500D01*
D11*
%TO.C,Y1*%
X177775000Y-181125000D02*
X177375000Y-181125000D01*
X177575000Y-180775000D01*
X177775000Y-181125000D01*
G36*
X177775000Y-181125000D02*
G01*
X177375000Y-181125000D01*
X177575000Y-180775000D01*
X177775000Y-181125000D01*
G37*
D14*
%TO.C,D4*%
X155750000Y-89325000D02*
X156300000Y-89325000D01*
X155900000Y-88725000D02*
X156700000Y-88725000D01*
X156300000Y-88225000D02*
X156300000Y-88725000D01*
X156300000Y-89325000D02*
X155900000Y-88725000D01*
X156300000Y-89325000D02*
X156300000Y-89725000D01*
X156700000Y-88725000D02*
X156300000Y-89325000D01*
X156850000Y-89325000D02*
X156300000Y-89325000D01*
%TO.C,D43*%
X241475000Y-132187500D02*
X242025000Y-132187500D01*
X241625000Y-131587500D02*
X242425000Y-131587500D01*
X242025000Y-131087500D02*
X242025000Y-131587500D01*
X242025000Y-132187500D02*
X241625000Y-131587500D01*
X242025000Y-132187500D02*
X242025000Y-132587500D01*
X242425000Y-131587500D02*
X242025000Y-132187500D01*
X242575000Y-132187500D02*
X242025000Y-132187500D01*
%TO.C,D85*%
X320056250Y-189337500D02*
X320606250Y-189337500D01*
X320206250Y-188737500D02*
X321006250Y-188737500D01*
X320606250Y-188237500D02*
X320606250Y-188737500D01*
X320606250Y-189337500D02*
X320206250Y-188737500D01*
X320606250Y-189337500D02*
X320606250Y-189737500D01*
X321006250Y-188737500D02*
X320606250Y-189337500D01*
X321156250Y-189337500D02*
X320606250Y-189337500D01*
D15*
%TO.C,R6*%
X172582500Y-179782836D02*
X172582500Y-179567164D01*
X173302500Y-179782836D02*
X173302500Y-179567164D01*
%TO.C,R3*%
X148590000Y-188317164D02*
X148590000Y-188532836D01*
X149310000Y-188317164D02*
X149310000Y-188532836D01*
%TO.C,C12*%
X164169190Y-190396693D02*
X164321693Y-190244190D01*
X164678307Y-190905810D02*
X164830810Y-190753307D01*
D14*
%TO.C,D89*%
X408162500Y-189337500D02*
X408712500Y-189337500D01*
X408312500Y-188737500D02*
X409112500Y-188737500D01*
X408712500Y-188237500D02*
X408712500Y-188737500D01*
X408712500Y-189337500D02*
X408312500Y-188737500D01*
X408712500Y-189337500D02*
X408712500Y-189737500D01*
X409112500Y-188737500D02*
X408712500Y-189337500D01*
X409262500Y-189337500D02*
X408712500Y-189337500D01*
D15*
%TO.C,C1*%
X165671693Y-191594190D02*
X165519190Y-191746693D01*
X166180810Y-192103307D02*
X166028307Y-192255810D01*
D14*
%TO.C,D3*%
X136700000Y-89325000D02*
X137250000Y-89325000D01*
X136850000Y-88725000D02*
X137650000Y-88725000D01*
X137250000Y-88225000D02*
X137250000Y-88725000D01*
X137250000Y-89325000D02*
X136850000Y-88725000D01*
X137250000Y-89325000D02*
X137250000Y-89725000D01*
X137650000Y-88725000D02*
X137250000Y-89325000D01*
X137800000Y-89325000D02*
X137250000Y-89325000D01*
%TO.C,D6*%
X203375000Y-89325000D02*
X203925000Y-89325000D01*
X203525000Y-88725000D02*
X204325000Y-88725000D01*
X203925000Y-88225000D02*
X203925000Y-88725000D01*
X203925000Y-89325000D02*
X203525000Y-88725000D01*
X203925000Y-89325000D02*
X203925000Y-89725000D01*
X204325000Y-88725000D02*
X203925000Y-89325000D01*
X204475000Y-89325000D02*
X203925000Y-89325000D01*
%TO.C,D18*%
X98600000Y-113137500D02*
X99150000Y-113137500D01*
X98750000Y-112537500D02*
X99550000Y-112537500D01*
X99150000Y-112037500D02*
X99150000Y-112537500D01*
X99150000Y-113137500D02*
X98750000Y-112537500D01*
X99150000Y-113137500D02*
X99150000Y-113537500D01*
X99550000Y-112537500D02*
X99150000Y-113137500D01*
X99700000Y-113137500D02*
X99150000Y-113137500D01*
%TO.C,D47*%
X317675000Y-132187500D02*
X318225000Y-132187500D01*
X317825000Y-131587500D02*
X318625000Y-131587500D01*
X318225000Y-131087500D02*
X318225000Y-131587500D01*
X318225000Y-132187500D02*
X317825000Y-131587500D01*
X318225000Y-132187500D02*
X318225000Y-132587500D01*
X318625000Y-131587500D02*
X318225000Y-132187500D01*
X318775000Y-132187500D02*
X318225000Y-132187500D01*
%TO.C,D82*%
X200975000Y-190675000D02*
X201525000Y-190675000D01*
X201125000Y-190075000D02*
X201925000Y-190075000D01*
X201525000Y-189575000D02*
X201525000Y-190075000D01*
X201525000Y-190675000D02*
X201125000Y-190075000D01*
X201525000Y-190675000D02*
X201525000Y-191075000D01*
X201925000Y-190075000D02*
X201525000Y-190675000D01*
X202075000Y-190675000D02*
X201525000Y-190675000D01*
%TO.C,D27*%
X270050000Y-113137500D02*
X270600000Y-113137500D01*
X270200000Y-112537500D02*
X271000000Y-112537500D01*
X270600000Y-112037500D02*
X270600000Y-112537500D01*
X270600000Y-113137500D02*
X270200000Y-112537500D01*
X270600000Y-113137500D02*
X270600000Y-113537500D01*
X271000000Y-112537500D02*
X270600000Y-113137500D01*
X271150000Y-113137500D02*
X270600000Y-113137500D01*
%TO.C,D19*%
X117650000Y-113137500D02*
X118200000Y-113137500D01*
X117800000Y-112537500D02*
X118600000Y-112537500D01*
X118200000Y-112037500D02*
X118200000Y-112537500D01*
X118200000Y-113137500D02*
X117800000Y-112537500D01*
X118200000Y-113137500D02*
X118200000Y-113537500D01*
X118600000Y-112537500D02*
X118200000Y-113137500D01*
X118750000Y-113137500D02*
X118200000Y-113137500D01*
D15*
%TO.C,C15*%
X178540000Y-179782836D02*
X178540000Y-179567164D01*
X179260000Y-179782836D02*
X179260000Y-179567164D01*
%TO.C,C6*%
X171319190Y-180996693D02*
X171471693Y-180844190D01*
X171828307Y-181505810D02*
X171980810Y-181353307D01*
D14*
%TO.C,D42*%
X222425000Y-132187500D02*
X222975000Y-132187500D01*
X222575000Y-131587500D02*
X223375000Y-131587500D01*
X222975000Y-131087500D02*
X222975000Y-131587500D01*
X222975000Y-132187500D02*
X222575000Y-131587500D01*
X222975000Y-132187500D02*
X222975000Y-132587500D01*
X223375000Y-131587500D02*
X222975000Y-132187500D01*
X223525000Y-132187500D02*
X222975000Y-132187500D01*
D15*
%TO.C,R1*%
X160690000Y-192059420D02*
X160690000Y-192340580D01*
X161710000Y-192059420D02*
X161710000Y-192340580D01*
D14*
%TO.C,D25*%
X231950000Y-113137500D02*
X232500000Y-113137500D01*
X232100000Y-112537500D02*
X232900000Y-112537500D01*
X232500000Y-112037500D02*
X232500000Y-112537500D01*
X232500000Y-113137500D02*
X232100000Y-112537500D01*
X232500000Y-113137500D02*
X232500000Y-113537500D01*
X232900000Y-112537500D02*
X232500000Y-113137500D01*
X233050000Y-113137500D02*
X232500000Y-113137500D01*
%TO.C,D56*%
X170037500Y-151237500D02*
X170587500Y-151237500D01*
X170187500Y-150637500D02*
X170987500Y-150637500D01*
X170587500Y-150137500D02*
X170587500Y-150637500D01*
X170587500Y-151237500D02*
X170187500Y-150637500D01*
X170587500Y-151237500D02*
X170587500Y-151637500D01*
X170987500Y-150637500D02*
X170587500Y-151237500D01*
X171137500Y-151237500D02*
X170587500Y-151237500D01*
%TO.C,D59*%
X227187500Y-151237500D02*
X227737500Y-151237500D01*
X227337500Y-150637500D02*
X228137500Y-150637500D01*
X227737500Y-150137500D02*
X227737500Y-150637500D01*
X227737500Y-151237500D02*
X227337500Y-150637500D01*
X227737500Y-151237500D02*
X227737500Y-151637500D01*
X228137500Y-150637500D02*
X227737500Y-151237500D01*
X228287500Y-151237500D02*
X227737500Y-151237500D01*
%TO.C,D50*%
X389112500Y-132187500D02*
X389662500Y-132187500D01*
X389262500Y-131587500D02*
X390062500Y-131587500D01*
X389662500Y-131087500D02*
X389662500Y-131587500D01*
X389662500Y-132187500D02*
X389262500Y-131587500D01*
X389662500Y-132187500D02*
X389662500Y-132587500D01*
X390062500Y-131587500D02*
X389662500Y-132187500D01*
X390212500Y-132187500D02*
X389662500Y-132187500D01*
D15*
%TO.C,U1*%
X86790000Y-90687500D02*
X86789999Y-91337500D01*
X86790000Y-91987500D02*
X86789999Y-91337500D01*
X89910000Y-90687500D02*
X89910001Y-91337500D01*
X89910000Y-91987500D02*
X89910001Y-91337500D01*
X90190000Y-92740000D02*
X89860000Y-92500000D01*
X90189999Y-92260000D01*
X90190000Y-92740000D01*
G36*
X90190000Y-92740000D02*
G01*
X89860000Y-92500000D01*
X90189999Y-92260000D01*
X90190000Y-92740000D01*
G37*
D14*
%TO.C,D53*%
X112887500Y-151237500D02*
X113437500Y-151237500D01*
X113037500Y-150637500D02*
X113837500Y-150637500D01*
X113437500Y-150137500D02*
X113437500Y-150637500D01*
X113437500Y-151237500D02*
X113037500Y-150637500D01*
X113437500Y-151237500D02*
X113437500Y-151637500D01*
X113837500Y-150637500D02*
X113437500Y-151237500D01*
X113987500Y-151237500D02*
X113437500Y-151237500D01*
%TO.C,D10*%
X289100000Y-89325000D02*
X289650000Y-89325000D01*
X289250000Y-88725000D02*
X290050000Y-88725000D01*
X289650000Y-88225000D02*
X289650000Y-88725000D01*
X289650000Y-89325000D02*
X289250000Y-88725000D01*
X289650000Y-89325000D02*
X289650000Y-89725000D01*
X290050000Y-88725000D02*
X289650000Y-89325000D01*
X290200000Y-89325000D02*
X289650000Y-89325000D01*
%TO.C,D29*%
X308150000Y-113137500D02*
X308700000Y-113137500D01*
X308300000Y-112537500D02*
X309100000Y-112537500D01*
X308700000Y-112037500D02*
X308700000Y-112537500D01*
X308700000Y-113137500D02*
X308300000Y-112537500D01*
X308700000Y-113137500D02*
X308700000Y-113537500D01*
X309100000Y-112537500D02*
X308700000Y-113137500D01*
X309250000Y-113137500D02*
X308700000Y-113137500D01*
%TO.C,D78*%
X389112500Y-170287500D02*
X389662500Y-170287500D01*
X389262500Y-169687500D02*
X390062500Y-169687500D01*
X389662500Y-169187500D02*
X389662500Y-169687500D01*
X389662500Y-170287500D02*
X389262500Y-169687500D01*
X389662500Y-170287500D02*
X389662500Y-170687500D01*
X390062500Y-169687500D02*
X389662500Y-170287500D01*
X390212500Y-170287500D02*
X389662500Y-170287500D01*
%TO.C,D45*%
X279575000Y-132187500D02*
X280125000Y-132187500D01*
X279725000Y-131587500D02*
X280525000Y-131587500D01*
X280125000Y-131087500D02*
X280125000Y-131587500D01*
X280125000Y-132187500D02*
X279725000Y-131587500D01*
X280125000Y-132187500D02*
X280125000Y-132587500D01*
X280525000Y-131587500D02*
X280125000Y-132187500D01*
X280675000Y-132187500D02*
X280125000Y-132187500D01*
%TO.C,D26*%
X251000000Y-113137500D02*
X251550000Y-113137500D01*
X251150000Y-112537500D02*
X251950000Y-112537500D01*
X251550000Y-112037500D02*
X251550000Y-112537500D01*
X251550000Y-113137500D02*
X251150000Y-112537500D01*
X251550000Y-113137500D02*
X251550000Y-113537500D01*
X251950000Y-112537500D02*
X251550000Y-113137500D01*
X252100000Y-113137500D02*
X251550000Y-113137500D01*
%TO.C,D86*%
X343868750Y-189337500D02*
X344418750Y-189337500D01*
X344018750Y-188737500D02*
X344818750Y-188737500D01*
X344418750Y-188237500D02*
X344418750Y-188737500D01*
X344418750Y-189337500D02*
X344018750Y-188737500D01*
X344418750Y-189337500D02*
X344418750Y-189737500D01*
X344818750Y-188737500D02*
X344418750Y-189337500D01*
X344968750Y-189337500D02*
X344418750Y-189337500D01*
%TO.C,D65*%
X91456250Y-170287500D02*
X92006250Y-170287500D01*
X91606250Y-169687500D02*
X92406250Y-169687500D01*
X92006250Y-169187500D02*
X92006250Y-169687500D01*
X92006250Y-170287500D02*
X91606250Y-169687500D01*
X92006250Y-170287500D02*
X92006250Y-170687500D01*
X92406250Y-169687500D02*
X92006250Y-170287500D01*
X92556250Y-170287500D02*
X92006250Y-170287500D01*
%TO.C,D40*%
X184325000Y-132187500D02*
X184875000Y-132187500D01*
X184475000Y-131587500D02*
X185275000Y-131587500D01*
X184875000Y-131087500D02*
X184875000Y-131587500D01*
X184875000Y-132187500D02*
X184475000Y-131587500D01*
X184875000Y-132187500D02*
X184875000Y-132587500D01*
X185275000Y-131587500D02*
X184875000Y-132187500D01*
X185425000Y-132187500D02*
X184875000Y-132187500D01*
%TO.C,D73*%
X255762500Y-170287500D02*
X256312500Y-170287500D01*
X255912500Y-169687500D02*
X256712500Y-169687500D01*
X256312500Y-169187500D02*
X256312500Y-169687500D01*
X256312500Y-170287500D02*
X255912500Y-169687500D01*
X256312500Y-170287500D02*
X256312500Y-170687500D01*
X256712500Y-169687500D02*
X256312500Y-170287500D01*
X256862500Y-170287500D02*
X256312500Y-170287500D01*
%TO.C,D51*%
X408162500Y-132187500D02*
X408712500Y-132187500D01*
X408312500Y-131587500D02*
X409112500Y-131587500D01*
X408712500Y-131087500D02*
X408712500Y-131587500D01*
X408712500Y-132187500D02*
X408312500Y-131587500D01*
X408712500Y-132187500D02*
X408712500Y-132587500D01*
X409112500Y-131587500D02*
X408712500Y-132187500D01*
X409262500Y-132187500D02*
X408712500Y-132187500D01*
D15*
%TO.C,C8*%
X149640000Y-188317164D02*
X149640000Y-188532836D01*
X150360000Y-188317164D02*
X150360000Y-188532836D01*
D14*
%TO.C,D64*%
X334343750Y-151237500D02*
X334893750Y-151237500D01*
X334493750Y-150637500D02*
X335293750Y-150637500D01*
X334893750Y-150137500D02*
X334893750Y-150637500D01*
X334893750Y-151237500D02*
X334493750Y-150637500D01*
X334893750Y-151237500D02*
X334893750Y-151637500D01*
X335293750Y-150637500D02*
X334893750Y-151237500D01*
X335443750Y-151237500D02*
X334893750Y-151237500D01*
D15*
%TO.C,C17*%
X161421693Y-183530810D02*
X161269190Y-183378307D01*
X161930810Y-183021693D02*
X161778307Y-182869190D01*
D14*
%TO.C,D23*%
X193850000Y-113137500D02*
X194400000Y-113137500D01*
X194000000Y-112537500D02*
X194800000Y-112537500D01*
X194400000Y-112037500D02*
X194400000Y-112537500D01*
X194400000Y-113137500D02*
X194000000Y-112537500D01*
X194400000Y-113137500D02*
X194400000Y-113537500D01*
X194800000Y-112537500D02*
X194400000Y-113137500D01*
X194950000Y-113137500D02*
X194400000Y-113137500D01*
%TO.C,D87*%
X370062500Y-189337500D02*
X370612500Y-189337500D01*
X370212500Y-188737500D02*
X371012500Y-188737500D01*
X370612500Y-188237500D02*
X370612500Y-188737500D01*
X370612500Y-189337500D02*
X370212500Y-188737500D01*
X370612500Y-189337500D02*
X370612500Y-189737500D01*
X371012500Y-188737500D02*
X370612500Y-189337500D01*
X371162500Y-189337500D02*
X370612500Y-189337500D01*
%TO.C,D12*%
X327200000Y-89325000D02*
X327750000Y-89325000D01*
X327350000Y-88725000D02*
X328150000Y-88725000D01*
X327750000Y-88225000D02*
X327750000Y-88725000D01*
X327750000Y-89325000D02*
X327350000Y-88725000D01*
X327750000Y-89325000D02*
X327750000Y-89725000D01*
X328150000Y-88725000D02*
X327750000Y-89325000D01*
X328300000Y-89325000D02*
X327750000Y-89325000D01*
%TO.C,D44*%
X260525000Y-132187500D02*
X261075000Y-132187500D01*
X260675000Y-131587500D02*
X261475000Y-131587500D01*
X261075000Y-131087500D02*
X261075000Y-131587500D01*
X261075000Y-132187500D02*
X260675000Y-131587500D01*
X261075000Y-132187500D02*
X261075000Y-132587500D01*
X261475000Y-131587500D02*
X261075000Y-132187500D01*
X261625000Y-132187500D02*
X261075000Y-132187500D01*
%TO.C,D57*%
X189087500Y-151237500D02*
X189637500Y-151237500D01*
X189237500Y-150637500D02*
X190037500Y-150637500D01*
X189637500Y-150137500D02*
X189637500Y-150637500D01*
X189637500Y-151237500D02*
X189237500Y-150637500D01*
X189637500Y-151237500D02*
X189637500Y-151637500D01*
X190037500Y-150637500D02*
X189637500Y-151237500D01*
X190187500Y-151237500D02*
X189637500Y-151237500D01*
%TO.C,D76*%
X320056250Y-170287500D02*
X320606250Y-170287500D01*
X320206250Y-169687500D02*
X321006250Y-169687500D01*
X320606250Y-169187500D02*
X320606250Y-169687500D01*
X320606250Y-170287500D02*
X320206250Y-169687500D01*
X320606250Y-170287500D02*
X320606250Y-170687500D01*
X321006250Y-169687500D02*
X320606250Y-170287500D01*
X321156250Y-170287500D02*
X320606250Y-170287500D01*
%TO.C,D80*%
X105743750Y-189337500D02*
X106293750Y-189337500D01*
X105893750Y-188737500D02*
X106693750Y-188737500D01*
X106293750Y-188237500D02*
X106293750Y-188737500D01*
X106293750Y-189337500D02*
X105893750Y-188737500D01*
X106293750Y-189337500D02*
X106293750Y-189737500D01*
X106693750Y-188737500D02*
X106293750Y-189337500D01*
X106843750Y-189337500D02*
X106293750Y-189337500D01*
%TO.C,D32*%
X370062500Y-113137500D02*
X370612500Y-113137500D01*
X370212500Y-112537500D02*
X371012500Y-112537500D01*
X370612500Y-112037500D02*
X370612500Y-112537500D01*
X370612500Y-113137500D02*
X370212500Y-112537500D01*
X370612500Y-113137500D02*
X370612500Y-113537500D01*
X371012500Y-112537500D02*
X370612500Y-113137500D01*
X371162500Y-113137500D02*
X370612500Y-113137500D01*
D15*
%TO.C,C9*%
X164844190Y-191071693D02*
X164996693Y-190919190D01*
X165353307Y-191580810D02*
X165505810Y-191428307D01*
%TO.C,C7*%
X163915000Y-179682836D02*
X163915000Y-179467164D01*
X164635000Y-179682836D02*
X164635000Y-179467164D01*
D14*
%TO.C,D79*%
X81931250Y-189337500D02*
X82481250Y-189337500D01*
X82081250Y-188737500D02*
X82881250Y-188737500D01*
X82481250Y-188237500D02*
X82481250Y-188737500D01*
X82481250Y-189337500D02*
X82081250Y-188737500D01*
X82481250Y-189337500D02*
X82481250Y-189737500D01*
X82881250Y-188737500D02*
X82481250Y-189337500D01*
X83031250Y-189337500D02*
X82481250Y-189337500D01*
%TO.C,D60*%
X246237500Y-151237500D02*
X246787500Y-151237500D01*
X246387500Y-150637500D02*
X247187500Y-150637500D01*
X246787500Y-150137500D02*
X246787500Y-150637500D01*
X246787500Y-151237500D02*
X246387500Y-150637500D01*
X246787500Y-151237500D02*
X246787500Y-151637500D01*
X247187500Y-150637500D02*
X246787500Y-151237500D01*
X247337500Y-151237500D02*
X246787500Y-151237500D01*
%TO.C,D33*%
X389112500Y-113137500D02*
X389662500Y-113137500D01*
X389262500Y-112537500D02*
X390062500Y-112537500D01*
X389662500Y-112037500D02*
X389662500Y-112537500D01*
X389662500Y-113137500D02*
X389262500Y-112537500D01*
X389662500Y-113137500D02*
X389662500Y-113537500D01*
X390062500Y-112537500D02*
X389662500Y-113137500D01*
X390212500Y-113137500D02*
X389662500Y-113137500D01*
D15*
%TO.C,U4*%
X99165000Y-90300000D02*
X99164999Y-91100000D01*
X99165000Y-91900000D02*
X99164999Y-91100000D01*
X102285000Y-90300000D02*
X102285001Y-91100000D01*
X102285000Y-91900000D02*
X102285001Y-91100000D01*
X102565000Y-92640000D02*
X102235000Y-92400000D01*
X102565000Y-92160000D01*
X102565000Y-92640000D01*
G36*
X102565000Y-92640000D02*
G01*
X102235000Y-92400000D01*
X102565000Y-92160000D01*
X102565000Y-92640000D01*
G37*
D14*
%TO.C,D24*%
X212900000Y-113137500D02*
X213450000Y-113137500D01*
X213050000Y-112537500D02*
X213850000Y-112537500D01*
X213450000Y-112037500D02*
X213450000Y-112537500D01*
X213450000Y-113137500D02*
X213050000Y-112537500D01*
X213450000Y-113137500D02*
X213450000Y-113537500D01*
X213850000Y-112537500D02*
X213450000Y-113137500D01*
X214000000Y-113137500D02*
X213450000Y-113137500D01*
%TO.C,D81*%
X129556250Y-189337500D02*
X130106250Y-189337500D01*
X129706250Y-188737500D02*
X130506250Y-188737500D01*
X130106250Y-188237500D02*
X130106250Y-188737500D01*
X130106250Y-189337500D02*
X129706250Y-188737500D01*
X130106250Y-189337500D02*
X130106250Y-189737500D01*
X130506250Y-188737500D02*
X130106250Y-189337500D01*
X130656250Y-189337500D02*
X130106250Y-189337500D01*
%TO.C,D41*%
X203375000Y-132187500D02*
X203925000Y-132187500D01*
X203525000Y-131587500D02*
X204325000Y-131587500D01*
X203925000Y-131087500D02*
X203925000Y-131587500D01*
X203925000Y-132187500D02*
X203525000Y-131587500D01*
X203925000Y-132187500D02*
X203925000Y-132587500D01*
X204325000Y-131587500D02*
X203925000Y-132187500D01*
X204475000Y-132187500D02*
X203925000Y-132187500D01*
%TO.C,D5*%
X174800000Y-89325000D02*
X175350000Y-89325000D01*
X174950000Y-88725000D02*
X175750000Y-88725000D01*
X175350000Y-88225000D02*
X175350000Y-88725000D01*
X175350000Y-89325000D02*
X174950000Y-88725000D01*
X175350000Y-89325000D02*
X175350000Y-89725000D01*
X175750000Y-88725000D02*
X175350000Y-89325000D01*
X175900000Y-89325000D02*
X175350000Y-89325000D01*
%TO.C,D14*%
X370062500Y-89325000D02*
X370612500Y-89325000D01*
X370212500Y-88725000D02*
X371012500Y-88725000D01*
X370612500Y-88225000D02*
X370612500Y-88725000D01*
X370612500Y-89325000D02*
X370212500Y-88725000D01*
X370612500Y-89325000D02*
X370612500Y-89725000D01*
X371012500Y-88725000D02*
X370612500Y-89325000D01*
X371162500Y-89325000D02*
X370612500Y-89325000D01*
D15*
%TO.C,J1*%
X91090000Y-81914999D02*
X91090000Y-84415000D01*
X92140000Y-81914999D02*
X91090000Y-81914999D01*
X92260000Y-86385000D02*
X96140000Y-86385000D01*
X96260000Y-80925000D02*
X96260000Y-81914999D01*
X96260000Y-81914999D02*
X97310000Y-81914999D01*
X97310000Y-81914999D02*
X97310000Y-84415000D01*
D14*
%TO.C,D71*%
X217662500Y-170287500D02*
X218212500Y-170287500D01*
X217812500Y-169687500D02*
X218612500Y-169687500D01*
X218212500Y-169187500D02*
X218212500Y-169687500D01*
X218212500Y-170287500D02*
X217812500Y-169687500D01*
X218212500Y-170287500D02*
X218212500Y-170687500D01*
X218612500Y-169687500D02*
X218212500Y-170287500D01*
X218762500Y-170287500D02*
X218212500Y-170287500D01*
D15*
%TO.C,C14*%
X88007836Y-93502500D02*
X87792164Y-93502500D01*
X88007836Y-94222500D02*
X87792164Y-94222500D01*
D14*
%TO.C,D7*%
X222425000Y-89325000D02*
X222975000Y-89325000D01*
X222575000Y-88725000D02*
X223375000Y-88725000D01*
X222975000Y-88225000D02*
X222975000Y-88725000D01*
X222975000Y-89325000D02*
X222575000Y-88725000D01*
X222975000Y-89325000D02*
X222975000Y-89725000D01*
X223375000Y-88725000D02*
X222975000Y-89325000D01*
X223525000Y-89325000D02*
X222975000Y-89325000D01*
%TO.C,D70*%
X198612500Y-170287500D02*
X199162500Y-170287500D01*
X198762500Y-169687500D02*
X199562500Y-169687500D01*
X199162500Y-169187500D02*
X199162500Y-169687500D01*
X199162500Y-170287500D02*
X198762500Y-169687500D01*
X199162500Y-170287500D02*
X199162500Y-170687500D01*
X199562500Y-169687500D02*
X199162500Y-170287500D01*
X199712500Y-170287500D02*
X199162500Y-170287500D01*
D15*
%TO.C,C11*%
X172146693Y-181519190D02*
X171994190Y-181671693D01*
X172655810Y-182028307D02*
X172503307Y-182180810D01*
D14*
%TO.C,D28*%
X289100000Y-113137500D02*
X289650000Y-113137500D01*
X289250000Y-112537500D02*
X290050000Y-112537500D01*
X289650000Y-112037500D02*
X289650000Y-112537500D01*
X289650000Y-113137500D02*
X289250000Y-112537500D01*
X289650000Y-113137500D02*
X289650000Y-113537500D01*
X290050000Y-112537500D02*
X289650000Y-113137500D01*
X290200000Y-113137500D02*
X289650000Y-113137500D01*
%TO.C,D8*%
X241475000Y-89325000D02*
X242025000Y-89325000D01*
X241625000Y-88725000D02*
X242425000Y-88725000D01*
X242025000Y-88225000D02*
X242025000Y-88725000D01*
X242025000Y-89325000D02*
X241625000Y-88725000D01*
X242025000Y-89325000D02*
X242025000Y-89725000D01*
X242425000Y-88725000D02*
X242025000Y-89325000D01*
X242575000Y-89325000D02*
X242025000Y-89325000D01*
%TO.C,D16*%
X408162500Y-89325000D02*
X408712500Y-89325000D01*
X408312500Y-88725000D02*
X409112500Y-88725000D01*
X408712500Y-88225000D02*
X408712500Y-88725000D01*
X408712500Y-89325000D02*
X408312500Y-88725000D01*
X408712500Y-89325000D02*
X408712500Y-89725000D01*
X409112500Y-88725000D02*
X408712500Y-89325000D01*
X409262500Y-89325000D02*
X408712500Y-89325000D01*
%TO.C,D13*%
X346250000Y-89325000D02*
X346800000Y-89325000D01*
X346400000Y-88725000D02*
X347200000Y-88725000D01*
X346800000Y-88225000D02*
X346800000Y-88725000D01*
X346800000Y-89325000D02*
X346400000Y-88725000D01*
X346800000Y-89325000D02*
X346800000Y-89725000D01*
X347200000Y-88725000D02*
X346800000Y-89325000D01*
X347350000Y-89325000D02*
X346800000Y-89325000D01*
%TO.C,D55*%
X150987500Y-151237500D02*
X151537500Y-151237500D01*
X151137500Y-150637500D02*
X151937500Y-150637500D01*
X151537500Y-150137500D02*
X151537500Y-150637500D01*
X151537500Y-151237500D02*
X151137500Y-150637500D01*
X151537500Y-151237500D02*
X151537500Y-151637500D01*
X151937500Y-150637500D02*
X151537500Y-151237500D01*
X152087500Y-151237500D02*
X151537500Y-151237500D01*
%TO.C,D30*%
X327200000Y-113137500D02*
X327750000Y-113137500D01*
X327350000Y-112537500D02*
X328150000Y-112537500D01*
X327750000Y-112037500D02*
X327750000Y-112537500D01*
X327750000Y-113137500D02*
X327350000Y-112537500D01*
X327750000Y-113137500D02*
X327750000Y-113537500D01*
X328150000Y-112537500D02*
X327750000Y-113137500D01*
X328300000Y-113137500D02*
X327750000Y-113137500D01*
%TO.C,D48*%
X341487500Y-132187500D02*
X342037500Y-132187500D01*
X341637500Y-131587500D02*
X342437500Y-131587500D01*
X342037500Y-131087500D02*
X342037500Y-131587500D01*
X342037500Y-132187500D02*
X341637500Y-131587500D01*
X342037500Y-132187500D02*
X342037500Y-132587500D01*
X342437500Y-131587500D02*
X342037500Y-132187500D01*
X342587500Y-132187500D02*
X342037500Y-132187500D01*
D15*
%TO.C,R2*%
X162190000Y-192340580D02*
X162190000Y-192059420D01*
X163210000Y-192340580D02*
X163210000Y-192059420D01*
D14*
%TO.C,D77*%
X346250000Y-170287500D02*
X346800000Y-170287500D01*
X346400000Y-169687500D02*
X347200000Y-169687500D01*
X346800000Y-169187500D02*
X346800000Y-169687500D01*
X346800000Y-170287500D02*
X346400000Y-169687500D01*
X346800000Y-170287500D02*
X346800000Y-170687500D01*
X347200000Y-169687500D02*
X346800000Y-170287500D01*
X347350000Y-170287500D02*
X346800000Y-170287500D01*
%TO.C,D17*%
X79550000Y-113137500D02*
X80100000Y-113137500D01*
X79700000Y-112537500D02*
X80500000Y-112537500D01*
X80100000Y-112037500D02*
X80100000Y-112537500D01*
X80100000Y-113137500D02*
X79700000Y-112537500D01*
X80100000Y-113137500D02*
X80100000Y-113537500D01*
X80500000Y-112537500D02*
X80100000Y-113137500D01*
X80650000Y-113137500D02*
X80100000Y-113137500D01*
%TO.C,D49*%
X370062500Y-132187500D02*
X370612500Y-132187500D01*
X370212500Y-131587500D02*
X371012500Y-131587500D01*
X370612500Y-131087500D02*
X370612500Y-131587500D01*
X370612500Y-132187500D02*
X370212500Y-131587500D01*
X370612500Y-132187500D02*
X370612500Y-132587500D01*
X371012500Y-131587500D02*
X370612500Y-132187500D01*
X371162500Y-132187500D02*
X370612500Y-132187500D01*
%TO.C,D35*%
X84312500Y-132187500D02*
X84862500Y-132187500D01*
X84462500Y-131587500D02*
X85262500Y-131587500D01*
X84862500Y-131087500D02*
X84862500Y-131587500D01*
X84862500Y-132187500D02*
X84462500Y-131587500D01*
X84862500Y-132187500D02*
X84862500Y-132587500D01*
X85262500Y-131587500D02*
X84862500Y-132187500D01*
X85412500Y-132187500D02*
X84862500Y-132187500D01*
%TO.C,D22*%
X174800000Y-113137500D02*
X175350000Y-113137500D01*
X174950000Y-112537500D02*
X175750000Y-112537500D01*
X175350000Y-112037500D02*
X175350000Y-112537500D01*
X175350000Y-113137500D02*
X174950000Y-112537500D01*
X175350000Y-113137500D02*
X175350000Y-113537500D01*
X175750000Y-112537500D02*
X175350000Y-113137500D01*
X175900000Y-113137500D02*
X175350000Y-113137500D01*
%TO.C,D21*%
X155750000Y-113137500D02*
X156300000Y-113137500D01*
X155900000Y-112537500D02*
X156700000Y-112537500D01*
X156300000Y-112037500D02*
X156300000Y-112537500D01*
X156300000Y-113137500D02*
X155900000Y-112537500D01*
X156300000Y-113137500D02*
X156300000Y-113537500D01*
X156700000Y-112537500D02*
X156300000Y-113137500D01*
X156850000Y-113137500D02*
X156300000Y-113137500D01*
D15*
%TO.C,U2*%
X151235000Y-181242500D02*
X150905000Y-181482500D01*
X150905000Y-181002500D01*
X151235000Y-181242500D01*
G36*
X151235000Y-181242500D02*
G01*
X150905000Y-181482500D01*
X150905000Y-181002500D01*
X151235000Y-181242500D01*
G37*
D14*
%TO.C,D54*%
X131937500Y-151237500D02*
X132487500Y-151237500D01*
X132087500Y-150637500D02*
X132887500Y-150637500D01*
X132487500Y-150137500D02*
X132487500Y-150637500D01*
X132487500Y-151237500D02*
X132087500Y-150637500D01*
X132487500Y-151237500D02*
X132487500Y-151637500D01*
X132887500Y-150637500D02*
X132487500Y-151237500D01*
X133037500Y-151237500D02*
X132487500Y-151237500D01*
D11*
%TO.C,U3*%
X162230709Y-184334315D02*
X161665024Y-184298959D01*
X162195354Y-183768629D01*
X162230709Y-184334315D01*
G36*
X162230709Y-184334315D02*
G01*
X161665024Y-184298959D01*
X162195354Y-183768629D01*
X162230709Y-184334315D01*
G37*
D14*
%TO.C,D1*%
X79550000Y-89325000D02*
X80100000Y-89325000D01*
X79700000Y-88725000D02*
X80500000Y-88725000D01*
X80100000Y-88225000D02*
X80100000Y-88725000D01*
X80100000Y-89325000D02*
X79700000Y-88725000D01*
X80100000Y-89325000D02*
X80100000Y-89725000D01*
X80500000Y-88725000D02*
X80100000Y-89325000D01*
X80650000Y-89325000D02*
X80100000Y-89325000D01*
%TO.C,D61*%
X265287500Y-151237500D02*
X265837500Y-151237500D01*
X265437500Y-150637500D02*
X266237500Y-150637500D01*
X265837500Y-150137500D02*
X265837500Y-150637500D01*
X265837500Y-151237500D02*
X265437500Y-150637500D01*
X265837500Y-151237500D02*
X265837500Y-151637500D01*
X266237500Y-150637500D02*
X265837500Y-151237500D01*
X266387500Y-151237500D02*
X265837500Y-151237500D01*
%TO.C,D72*%
X236712500Y-170287500D02*
X237262500Y-170287500D01*
X236862500Y-169687500D02*
X237662500Y-169687500D01*
X237262500Y-169187500D02*
X237262500Y-169687500D01*
X237262500Y-170287500D02*
X236862500Y-169687500D01*
X237262500Y-170287500D02*
X237262500Y-170687500D01*
X237662500Y-169687500D02*
X237262500Y-170287500D01*
X237812500Y-170287500D02*
X237262500Y-170287500D01*
D15*
%TO.C,C3*%
X161490197Y-189412694D02*
X161337694Y-189565197D01*
X161999314Y-189921811D02*
X161846811Y-190074314D01*
D14*
%TO.C,D67*%
X141462500Y-170287500D02*
X142012500Y-170287500D01*
X141612500Y-169687500D02*
X142412500Y-169687500D01*
X142012500Y-169187500D02*
X142012500Y-169687500D01*
X142012500Y-170287500D02*
X141612500Y-169687500D01*
X142012500Y-170287500D02*
X142012500Y-170687500D01*
X142412500Y-169687500D02*
X142012500Y-170287500D01*
X142562500Y-170287500D02*
X142012500Y-170287500D01*
D17*
%TO.C,REF\u002A\u002A*%
X370737586Y-146657448D02*
X370737586Y-147317449D01*
X371177586Y-147757449D02*
X374367586Y-147757449D01*
X372387586Y-143027449D02*
X372387586Y-143687449D01*
X372387586Y-150287449D02*
X372387586Y-150947449D01*
X372827586Y-144127449D02*
X374367586Y-144127449D01*
X372827586Y-151387449D02*
X378327586Y-151387449D01*
X374367586Y-146217449D02*
X371177586Y-146217448D01*
X374367587Y-149847449D02*
X372827586Y-149847449D01*
X374807586Y-144567449D02*
X374807586Y-145777449D01*
X374807586Y-148197449D02*
X374807587Y-149407449D01*
X376347586Y-145777448D02*
X376347586Y-144567449D01*
X376347586Y-149407449D02*
X376347586Y-148197449D01*
X376787586Y-144127449D02*
X378327586Y-144127449D01*
X376787586Y-147757449D02*
X382287586Y-147757449D01*
X378327585Y-149847449D02*
X376787586Y-149847449D01*
X378327586Y-142587449D02*
X372827586Y-142587449D01*
X378767586Y-143687449D02*
X378767586Y-143027449D01*
X378767586Y-150947449D02*
X378767585Y-150287449D01*
X382287586Y-146217449D02*
X376787586Y-146217448D01*
X382727586Y-143797449D02*
X382727586Y-145777449D01*
X382727586Y-148197449D02*
X382727586Y-150177449D01*
X383167586Y-150617449D02*
X383827586Y-150617449D01*
X383827586Y-143357449D02*
X383167586Y-143357449D01*
X384267586Y-145777449D02*
X384267586Y-143797449D01*
X384267586Y-150177449D02*
X384267586Y-148197449D01*
X384707586Y-147757449D02*
X386597049Y-147757449D01*
X386597049Y-146217449D02*
X384707586Y-146217449D01*
X370737586Y-146657448D02*
G75*
G02*
X371177586Y-146217448I440000J0D01*
G01*
X371177586Y-147757449D02*
G75*
G02*
X370737586Y-147317449I0J440000D01*
G01*
X372387586Y-143027449D02*
G75*
G02*
X372827586Y-142587449I440000J0D01*
G01*
X372387586Y-150287449D02*
G75*
G02*
X372827586Y-149847446I440084J-81D01*
G01*
X372827586Y-144127449D02*
G75*
G02*
X372387586Y-143687449I0J440000D01*
G01*
X372827586Y-151387449D02*
G75*
G02*
X372387581Y-150947449I4J440009D01*
G01*
X374367586Y-144127449D02*
G75*
G02*
X374807586Y-144567449I0J-440000D01*
G01*
X374367586Y-147757449D02*
G75*
G02*
X374807586Y-148197449I0J-440000D01*
G01*
X374807586Y-145777449D02*
G75*
G02*
X374367586Y-146217449I-440000J0D01*
G01*
X374807587Y-149407449D02*
G75*
G02*
X374367587Y-149847447I-439997J-1D01*
G01*
X376347586Y-144567449D02*
G75*
G02*
X376787586Y-144127449I440000J0D01*
G01*
X376347586Y-148197449D02*
G75*
G02*
X376787586Y-147757446I440044J-41D01*
G01*
X376787586Y-146217448D02*
G75*
G02*
X376347586Y-145777448I0J440000D01*
G01*
X376787586Y-149847449D02*
G75*
G02*
X376347581Y-149407449I4J440009D01*
G01*
X378327585Y-149847449D02*
G75*
G02*
X378767591Y-150287449I15J-439991D01*
G01*
X378327586Y-142587449D02*
G75*
G02*
X378767586Y-143027449I0J-440000D01*
G01*
X378767586Y-143687449D02*
G75*
G02*
X378327586Y-144127449I-440000J0D01*
G01*
X378767586Y-150947449D02*
G75*
G02*
X378327586Y-151387386I-439886J-51D01*
G01*
X382287586Y-147757449D02*
G75*
G02*
X382727586Y-148197449I0J-440000D01*
G01*
X382727586Y-143797449D02*
G75*
G02*
X383167586Y-143357449I440000J0D01*
G01*
X382727586Y-145777449D02*
G75*
G02*
X382287586Y-146217449I-440000J0D01*
G01*
X383167586Y-150617449D02*
G75*
G02*
X382727581Y-150177449I4J440009D01*
G01*
X383827586Y-143357449D02*
G75*
G02*
X384267586Y-143797449I0J-440000D01*
G01*
X384267586Y-148197449D02*
G75*
G02*
X384707586Y-147757446I440044J-41D01*
G01*
X384267586Y-150177449D02*
G75*
G02*
X383827586Y-150617446I-439916J-81D01*
G01*
X384707586Y-146217449D02*
G75*
G02*
X384267586Y-145777449I0J440000D01*
G01*
X386597049Y-147757449D02*
G75*
G02*
X386999269Y-148375827I-3J-440002D01*
G01*
X386999268Y-145599071D02*
G75*
G02*
X386597049Y-146217448I-402219J-178378D01*
G01*
X386999270Y-145599071D02*
G75*
G02*
X393843156Y-143263015I3318316J1471622D01*
G01*
X393843156Y-150711883D02*
G75*
G02*
X386999270Y-148375827I-3525570J864434D01*
G01*
X393843157Y-150711883D02*
G75*
G02*
X394255649Y-150473579I320443J-78517D01*
G01*
X394255657Y-143501347D02*
G75*
G02*
X393843157Y-143263015I-91992J316921D01*
G01*
X394255657Y-143501347D02*
G75*
G02*
X394255657Y-150473551I1011929J-3486102D01*
G01*
X392407586Y-144127449D02*
G75*
G02*
X388227586Y-144127449I-2090000J0D01*
G01*
X388227586Y-144127449D02*
G75*
G02*
X392407586Y-144127449I2090000J0D01*
G01*
X392407586Y-149847449D02*
G75*
G02*
X388227586Y-149847449I-2090000J0D01*
G01*
X388227586Y-149847449D02*
G75*
G02*
X392407586Y-149847449I2090000J0D01*
G01*
X397357586Y-146987449D02*
G75*
G02*
X393177586Y-146987449I-2090000J0D01*
G01*
X393177586Y-146987449D02*
G75*
G02*
X397357586Y-146987449I2090000J0D01*
G01*
D15*
%TO.C,C13*%
X88937836Y-88502500D02*
X88722164Y-88502500D01*
X88937836Y-89222500D02*
X88722164Y-89222500D01*
%TO.C,C4*%
X160818446Y-188740943D02*
X160665943Y-188893446D01*
X161327563Y-189250060D02*
X161175060Y-189402563D01*
D14*
%TO.C,D39*%
X165275000Y-132187500D02*
X165825000Y-132187500D01*
X165425000Y-131587500D02*
X166225000Y-131587500D01*
X165825000Y-131087500D02*
X165825000Y-131587500D01*
X165825000Y-132187500D02*
X165425000Y-131587500D01*
X165825000Y-132187500D02*
X165825000Y-132587500D01*
X166225000Y-131587500D02*
X165825000Y-132187500D01*
X166375000Y-132187500D02*
X165825000Y-132187500D01*
%TO.C,D62*%
X284337500Y-151237500D02*
X284887500Y-151237500D01*
X284487500Y-150637500D02*
X285287500Y-150637500D01*
X284887500Y-150137500D02*
X284887500Y-150637500D01*
X284887500Y-151237500D02*
X284487500Y-150637500D01*
X284887500Y-151237500D02*
X284887500Y-151637500D01*
X285287500Y-150637500D02*
X284887500Y-151237500D01*
X285437500Y-151237500D02*
X284887500Y-151237500D01*
%TD*%
M02*
